<svg height="512" viewBox="0 0 74 74" width="512" xmlns="http://www.w3.org/2000/svg"><g id="line_color" data-name="line color"><g fill="#323c6b"><path d="m18.33 69.436a.5.5 0 0 1 -.254-.069l-.429-.255a.5.5 0 0 1 .518-.855l.419.25a.5.5 0 0 1 -.254.931z"/><path d="m35.5 74.47h-.021a37.1 37.1 0 0 1 -14.729-3.676.5.5 0 0 1 .436-.9 36.107 36.107 0 0 0 14.334 3.577.5.5 0 0 1 -.021 1z"/><path d="m66.123 14.7a.5.5 0 0 1 -.393-.19l-.394-.493a.5.5 0 1 1 .775-.631l.4.5a.5.5 0 0 1 -.393.81z"/><path d="m63.648 11.857a.5.5 0 0 1 -.36-.153 36.411 36.411 0 0 0 -12.095-8.331.5.5 0 0 1 .391-.921 37.411 37.411 0 0 1 12.425 8.558.5.5 0 0 1 -.36.847z"/></g><circle cx="37" cy="37" fill="#9a9eaf" r="34"/><path d="m37 71.5a34.5 34.5 0 1 1 34.5-34.5 34.539 34.539 0 0 1 -34.5 34.5zm0-68a33.5 33.5 0 1 0 33.5 33.5 33.538 33.538 0 0 0 -33.5-33.5z" fill="#323c6b"/><path d="m37 3c-.5 0-1 .016-1.5.038a33.995 33.995 0 0 1 0 67.924c.5.022 1 .038 1.5.038a34 34 0 0 0 0-68z" fill="#828a9e"/><path d="m37 64.063a27.063 27.063 0 1 1 27.063-27.063 27.093 27.093 0 0 1 -27.063 27.063z" fill="#eeefee"/><g fill="#323c6b"><path d="m37 64.563a27.563 27.563 0 1 1 27.563-27.563 27.593 27.593 0 0 1 -27.563 27.563zm0-54.125a26.563 26.563 0 1 0 26.563 26.562 26.593 26.593 0 0 0 -26.563-26.562z"/><path d="m27.923 31.024a3.759 3.759 0 1 1 3.754-3.765 3.769 3.769 0 0 1 -3.754 3.765zm0-6.518a2.759 2.759 0 1 0 2.754 2.753 2.762 2.762 0 0 0 -2.754-2.753z"/><path d="m37 71.5a34.5 34.5 0 1 1 34.5-34.5 34.539 34.539 0 0 1 -34.5 34.5zm0-68a33.5 33.5 0 1 0 33.5 33.5 33.538 33.538 0 0 0 -33.5-33.5z"/><path d="m40.34 51.88c-5.326 0-9.66-5.051-9.66-11.26s4.334-11.24 9.66-11.24a8.751 8.751 0 0 1 6 2.433.5.5 0 1 1 -.678.734 7.771 7.771 0 0 0 -5.322-2.167c-4.775 0-8.66 4.594-8.66 10.24s3.885 10.26 8.66 10.26a7.773 7.773 0 0 0 5.321-2.167.5.5 0 1 1 .678.734 8.752 8.752 0 0 1 -5.999 2.433z"/></g><path d="m15.863 38.455c-.034 0-.068.011-.1.018a1.309 1.309 0 0 0 -.991 1.564 6.043 6.043 0 0 0 .357 1.268 1.309 1.309 0 1 0 2.477-.849 4.15 4.15 0 0 1 -.278-.993 1.31 1.31 0 0 0 -1.465-1.008z" fill="#dbd8dd"/><path d="m18.2 44.047a1.311 1.311 0 0 0 -1.07 1.871 24.406 24.406 0 0 0 12.17 11.502 1.31 1.31 0 0 0 1.147-2.355 21.973 21.973 0 0 1 -10.953-10.278 1.31 1.31 0 0 0 -1.294-.74z" fill="#dbd8dd"/></g></svg>