<?xml version="1.0"?>
<svg xmlns="http://www.w3.org/2000/svg" viewBox="0 0 74 74" width="512" height="512"><g id="line_color" data-name="line color"><path d="M61.289,44.5a.5.5,0,0,1-.07-1q.3-.042.588-.095a.5.5,0,0,1,.177.984c-.207.037-.416.071-.624.1A.5.5,0,0,1,61.289,44.5Z" fill="#323c6b"/><path d="M64.806,43.474a.5.5,0,0,1-.189-.963,17.063,17.063,0,0,0,7.513-5.978.5.5,0,1,1,.817.575A18.062,18.062,0,0,1,65,43.437.5.5,0,0,1,64.806,43.474Z" fill="#323c6b"/><path d="M71.79,31.86a14.469,14.469,0,0,1-13.56,9.41c-.43,0-.85-.02-1.27-.06a11.3,11.3,0,0,0-10.17-6.39,5.7,5.7,0,0,0-.59.03,14.478,14.478,0,0,1,9.88-22.36A12.475,12.475,0,1,0,71.79,31.86Z" fill="#eeefee"/><path d="M58.23,41.77c-.446,0-.882-.021-1.317-.062a.5.5,0,0,1-.4-.28,10.868,10.868,0,0,0-9.72-6.108,5.22,5.22,0,0,0-.538.027.5.5,0,0,1-.468-.219A14.978,14.978,0,0,1,56.006,12a.506.506,0,0,1,.534.3.5.5,0,0,1-.156.592A11.975,11.975,0,1,0,71.463,31.481a.5.5,0,0,1,.8.553A15.033,15.033,0,0,1,58.23,41.77Zm-.948-1.035c.313.023.628.035.948.035A14.042,14.042,0,0,0,70.547,33.4,12.977,12.977,0,0,1,54.323,13.387,14.067,14.067,0,0,0,44.26,26.8a13.922,13.922,0,0,0,2.2,7.529c.11-.006.222-.009.333-.009A11.876,11.876,0,0,1,57.282,40.735Z" fill="#323c6b"/><path d="M56.08,12.49a14.346,14.346,0,0,0-2.87.749A12.464,12.464,0,0,0,61.67,34.87c.355,0,.705-.019,1.053-.048A12.467,12.467,0,0,1,56.08,12.49Z" fill="#dbd8dd"/><path d="M68.949,33.695a14.461,14.461,0,0,1-11.626,7.532c.3.02.6.043.907.043a14.469,14.469,0,0,0,13.56-9.41A12.41,12.41,0,0,1,68.949,33.695Z" fill="#dbd8dd"/><path d="M16,72.99H12a12.555,12.555,0,0,1-10.065-5.1.5.5,0,0,1,.806-.593A11.55,11.55,0,0,0,12,71.99h4a.5.5,0,0,1,0,1Z" fill="#323c6b"/><path d="M20.063,72.99h-.687a.5.5,0,0,1,0-1h.688a.5.5,0,0,1,0,1Z" fill="#323c6b"/><path d="M71,58.85A10.623,10.623,0,0,1,60.39,69.49H12a9.02,9.02,0,0,1,0-18.04c.31,0,.63.02.93.05A15.689,15.689,0,0,1,27.61,30.49a15.579,15.579,0,0,1,12.61,6.43,11.148,11.148,0,0,1,5.98-2.07,5.7,5.7,0,0,1,.59-.03,11.32,11.32,0,0,1,11.3,11.33,10.894,10.894,0,0,1-.25,2.37A10.614,10.614,0,0,1,71,58.85Z" fill="#b6d2dd"/><path d="M60.39,69.99H12a9.52,9.52,0,1,1,.221-19.037A16.117,16.117,0,0,1,40.333,36.238a11.645,11.645,0,0,1,5.845-1.887,5.8,5.8,0,0,1,.612-.031A11.852,11.852,0,0,1,58.466,47.878,11.137,11.137,0,1,1,60.39,69.99ZM12,51.95a8.52,8.52,0,0,0,0,17.04H60.39a10.14,10.14,0,0,0,0-20.28,10.27,10.27,0,0,0-2.432.3.506.506,0,0,1-.469-.129.5.5,0,0,1-.138-.466,10.407,10.407,0,0,0,.238-2.261,10.82,10.82,0,0,0-10.8-10.83,5.22,5.22,0,0,0-.538.027,10.7,10.7,0,0,0-5.743,1.98.5.5,0,0,1-.694-.113A15.132,15.132,0,0,0,13.4,51.331.5.5,0,0,1,12.88,52C12.6,51.969,12.293,51.95,12,51.95Z" fill="#323c6b"/><path d="M10,53.45c.31,0,.63.02.93.05a15.818,15.818,0,0,1-.536-1.9A8.986,8.986,0,0,0,4.729,55.17,8.933,8.933,0,0,1,10,53.45Z" fill="#acc6cc"/><path d="M60.39,48.21a10.725,10.725,0,0,0-2.55.31,10.894,10.894,0,0,0,.25-2.37,11.32,11.32,0,0,0-11.3-11.33,5.7,5.7,0,0,0-.59.03,11.148,11.148,0,0,0-5.98,2.07,15.568,15.568,0,0,0-24.563-.829A15.57,15.57,0,0,1,38.22,38.92a11.148,11.148,0,0,1,5.98-2.07,5.7,5.7,0,0,1,.59-.03,11.32,11.32,0,0,1,11.3,11.33,10.894,10.894,0,0,1-.25,2.37A10.614,10.614,0,0,1,69,60.85a10.6,10.6,0,0,1-2.191,6.459,10.637,10.637,0,0,0-6.419-19.1Z" fill="#acc6cc"/><circle cx="59.9" cy="20.314" r="2.125" fill="#dbd8dd"/><path d="M59.9,22.938a2.625,2.625,0,1,1,2.625-2.625A2.628,2.628,0,0,1,59.9,22.938Zm0-4.25a1.625,1.625,0,1,0,1.625,1.625A1.627,1.627,0,0,0,59.9,18.688Z" fill="#323c6b"/><circle cx="64.478" cy="28.368" r="1.022" fill="#323c6b"/><circle cx="37" cy="22.439" r="2.125" fill="#dbd8dd"/><path d="M37,25.063a2.625,2.625,0,1,1,2.625-2.625A2.628,2.628,0,0,1,37,25.063Zm0-4.25a1.625,1.625,0,1,0,1.625,1.625A1.627,1.627,0,0,0,37,20.813Z" fill="#323c6b"/><path d="M60.39,69.99H12a9.52,9.52,0,1,1,.221-19.037A16.117,16.117,0,0,1,40.333,36.238a11.645,11.645,0,0,1,5.845-1.887,5.8,5.8,0,0,1,.612-.031A11.852,11.852,0,0,1,58.466,47.878,11.137,11.137,0,1,1,60.39,69.99ZM12,51.95a8.52,8.52,0,0,0,0,17.04H60.39a10.14,10.14,0,0,0,0-20.28,10.27,10.27,0,0,0-2.432.3.506.506,0,0,1-.469-.129.5.5,0,0,1-.138-.466,10.407,10.407,0,0,0,.238-2.261,10.82,10.82,0,0,0-10.8-10.83,5.22,5.22,0,0,0-.538.027,10.7,10.7,0,0,0-5.743,1.98.5.5,0,0,1-.694-.113A15.132,15.132,0,0,0,13.4,51.331.5.5,0,0,1,12.88,52C12.6,51.969,12.293,51.95,12,51.95Z" fill="#323c6b"/><path d="M58.23,41.77c-.446,0-.882-.021-1.317-.062a.5.5,0,0,1-.4-.28,10.868,10.868,0,0,0-9.72-6.108,5.22,5.22,0,0,0-.538.027.5.5,0,0,1-.468-.219A14.978,14.978,0,0,1,56.006,12a.506.506,0,0,1,.534.3.5.5,0,0,1-.156.592A11.975,11.975,0,1,0,71.463,31.481a.5.5,0,0,1,.8.553A15.033,15.033,0,0,1,58.23,41.77Zm-.948-1.035c.313.023.628.035.948.035A14.042,14.042,0,0,0,70.547,33.4,12.977,12.977,0,0,1,54.323,13.387,14.067,14.067,0,0,0,44.26,26.8a13.922,13.922,0,0,0,2.2,7.529c.11-.006.222-.009.333-.009A11.876,11.876,0,0,1,57.282,40.735Z" fill="#323c6b"/><path d="M22.182,34.671c-.013-.02-.026-.039-.041-.058a.9.9,0,0,0-1.262-.167,4.154,4.154,0,0,0-.688.589.9.9,0,0,0,1.245,1.3,2.853,2.853,0,0,1,.539-.46A.9.9,0,0,0,22.182,34.671Z" fill="#eeefee"/><path d="M19.368,37.745a.9.9,0,0,0-1.476-.127,13.591,13.591,0,0,0-2.663,10.912.9.9,0,0,0,1.8.036,11.9,11.9,0,0,1,2.25-9.8A.9.9,0,0,0,19.368,37.745Z" fill="#eeefee"/></g></svg>
