<svg height="512" viewBox="0 0 74 74" width="512" xmlns="http://www.w3.org/2000/svg"><g id="line_color" data-name="line color"><g fill="#323c6b"><path d="m8.986 13.354a.5.5 0 0 1 -.378-.827 37.737 37.737 0 0 1 15.168-10.62.5.5 0 1 1 .354.936 36.733 36.733 0 0 0 -14.766 10.338.5.5 0 0 1 -.378.173z"/><path d="m6.729 16.271a.5.5 0 0 1 -.417-.775q.184-.281.374-.556a.5.5 0 0 1 .824.566q-.184.267-.363.54a.5.5 0 0 1 -.418.225z"/><path d="m66.931 59.229a.5.5 0 0 1 -.4-.794l.271-.378a.5.5 0 0 1 .816.577l-.279.39a.5.5 0 0 1 -.408.205z"/><path d="m69.264 55.6a.493.493 0 0 1 -.245-.064.5.5 0 0 1 -.19-.681 36.092 36.092 0 0 0 4.411-13.486.5.5 0 0 1 .993.119 37.082 37.082 0 0 1 -4.533 13.855.5.5 0 0 1 -.436.257z"/></g><circle cx="37" cy="37" fill="#9a9eaf" r="34"/><path d="m37 71.5a34.5 34.5 0 1 1 34.5-34.5 34.539 34.539 0 0 1 -34.5 34.5zm0-68a33.5 33.5 0 1 0 33.5 33.5 33.538 33.538 0 0 0 -33.5-33.5z" fill="#323c6b"/><path d="m37 3c-.335 0-.667.016-1 .025a33.989 33.989 0 0 1 0 67.949c.333.01.665.025 1 .025a34 34 0 0 0 0-67.999z" fill="#828a9e"/><path d="m37 64.063a27.063 27.063 0 1 1 27.062-27.063 27.093 27.093 0 0 1 -27.062 27.063z" fill="#eeefee"/><g fill="#323c6b"><path d="m37 64.563a27.563 27.563 0 1 1 27.563-27.563 27.593 27.593 0 0 1 -27.563 27.563zm0-54.125a26.563 26.563 0 1 0 26.563 26.562 26.593 26.593 0 0 0 -26.563-26.562z"/><path d="m27.923 31.024a3.759 3.759 0 1 1 3.753-3.765 3.769 3.769 0 0 1 -3.753 3.765zm0-6.518a2.759 2.759 0 1 0 2.753 2.753 2.762 2.762 0 0 0 -2.753-2.753z"/><path d="m36.682 51.176a.5.5 0 0 1 -.5-.5v-21.767a.5.5 0 0 1 .5-.5h12.659a.5.5 0 0 1 0 1h-12.159v21.267a.5.5 0 0 1 -.5.5z"/><path d="m46.717 39.5h-10.035a.5.5 0 0 1 0-1h10.035a.5.5 0 1 1 0 1z"/><path d="m37 71.5a34.5 34.5 0 1 1 34.5-34.5 34.539 34.539 0 0 1 -34.5 34.5zm0-68a33.5 33.5 0 1 0 33.5 33.5 33.538 33.538 0 0 0 -33.5-33.5z"/></g><path d="m15.284 35.486c-.038 0-.077 0-.116 0a1.477 1.477 0 0 0 -1.368 1.582 6.818 6.818 0 0 0 .184 1.475 1.477 1.477 0 1 0 2.906-.529 4.682 4.682 0 0 1 -.143-1.154 1.477 1.477 0 0 0 -1.463-1.374z" fill="#dbd8dd"/><path d="m16.95 42.119a1.479 1.479 0 0 0 -1.509 1.906c3.044 9.965 12.207 13.287 12.536 13.514a1.477 1.477 0 0 0 1.677-2.433c-.073-.05-8.654-3-11.388-11.944a1.478 1.478 0 0 0 -1.316-1.043z" fill="#dbd8dd"/></g></svg>