<?xml version="1.0" encoding="iso-8859-1"?>
<!-- Generator: Adobe Illustrator 19.0.0, SVG Export Plug-In . SVG Version: 6.00 Build 0)  -->
<svg version="1.1" id="Capa_1" xmlns="http://www.w3.org/2000/svg" xmlns:xlink="http://www.w3.org/1999/xlink" x="0px" y="0px"
	 viewBox="0 0 511.926 511.926" style="enable-background:new 0 0 511.926 511.926;" xml:space="preserve">
<polygon style="fill:#656D78;" points="255.964,27.996 291.958,115.984 219.97,115.984 "/>
<g style="opacity:0.2;">
	<polygon style="fill:#FFFFFF;" points="255.964,27.996 219.97,115.984 227.968,115.984 259.964,37.772 	"/>
</g>
<g style="opacity:0.2;">
	<polygon points="259.952,37.749 291.958,115.984 283.96,115.984 255.984,47.599 	"/>
</g>
<polygon style="fill:#656D78;" points="291.958,139.98 219.97,139.98 171.976,195.972 339.952,195.972 "/>
<g style="opacity:0.2;">
	<polygon style="fill:#FFFFFF;" points="219.97,139.98 171.976,195.972 187.974,195.972 235.967,139.98 	"/>
</g>
<g style="opacity:0.2;">
	<polygon points="291.958,139.98 339.952,195.972 323.954,195.972 275.96,139.98 	"/>
</g>
<rect x="171.974" y="427.943" style="fill:#E9573F;" width="167.98" height="79.988"/>
<rect x="171.974" y="195.973" style="fill:#FC6E51;" width="167.98" height="31.995"/>
<g>
	<path style="fill:#3A3847;" d="M244.204,87.987c-2.207,0-4.039-1.789-4.039-3.999c0-2.211,1.75-4,3.961-4h0.078
		c2.211,0,4,1.789,4,4C248.204,86.198,246.415,87.987,244.204,87.987z"/>
	<path style="fill:#3A3847;" d="M256.202,95.986c-2.207,0-4.039-1.789-4.039-4s1.75-4,3.961-4h0.078c2.211,0,4,1.789,4,4
		S258.413,95.986,256.202,95.986z"/>
	<path style="fill:#3A3847;" d="M268.196,87.987c-2.203,0-4.031-1.789-4.031-3.999c0-2.211,1.75-4,3.953-4h0.078
		c2.219,0,4,1.789,4,4C272.196,86.198,270.415,87.987,268.196,87.987z"/>
	<path style="fill:#3A3847;" d="M268.196,103.985c-2.203,0-4.031-1.789-4.031-4c0-2.21,1.75-3.999,3.953-3.999h0.078
		c2.219,0,4,1.789,4,3.999C272.196,102.196,270.415,103.985,268.196,103.985z"/>
	<path style="fill:#3A3847;" d="M244.204,103.985c-2.207,0-4.039-1.789-4.039-4c0-2.21,1.75-3.999,3.961-3.999h0.078
		c2.211,0,4,1.789,4,3.999C248.204,102.196,246.415,103.985,244.204,103.985z"/>
</g>
<g>
	<rect x="219.974" y="115.983" style="fill:#FC6E51;" width="71.988" height="23.996"/>
	<path style="fill:#FC6E51;" d="M195.973,427.938h-39.994V227.967h39.994h23.997h23.996h23.996h23.996h23.996h39.994v199.971
		h-39.994h-23.996h-23.996h-23.996H219.97L195.973,427.938L195.973,427.938z M187.974,259.963v135.979h135.98V259.963H187.974z"/>
</g>
<path style="fill:#656D78;" d="M307.956,327.952c0-28.714-23.277-51.992-51.992-51.992s-51.992,23.278-51.992,51.992
	c0,28.715,23.277,51.993,51.992,51.993S307.956,356.667,307.956,327.952z M187.974,395.942V259.963h135.98v135.979H187.974z"/>
<circle style="fill:#E6E9ED;" cx="255.964" cy="327.953" r="51.993"/>
<path style="fill:#FFFFFF;" d="M219.97,327.952c0-25.988,19.086-47.462,43.992-51.313c-2.611-0.406-5.271-0.68-7.998-0.68
	c-28.715,0-51.992,23.278-51.992,51.992c0,28.715,23.277,51.993,51.992,51.993c2.727,0,5.387-0.273,7.998-0.68
	C239.056,375.414,219.97,353.941,219.97,327.952z"/>
<g style="opacity:0.2;">
	<path d="M291.958,327.952c0,25.988-19.09,47.462-43.992,51.313c2.611,0.406,5.271,0.68,7.998,0.68
		c28.715,0,51.992-23.278,51.992-51.993c0-28.714-23.277-51.992-51.992-51.992c-2.727,0-5.387,0.273-7.998,0.68
		C272.868,280.49,291.958,301.964,291.958,327.952z"/>
</g>
<g style="opacity:0.4;">
	<rect x="219.974" y="115.983" style="fill:#FFFFFF;" width="11.998" height="23.996"/>
</g>
<g style="opacity:0.2;">
	<rect x="279.964" y="115.983" width="11.998" height="23.996"/>
</g>
<g style="opacity:0.4;">
	<rect x="171.974" y="195.973" style="fill:#FFFFFF;" width="15.998" height="23.996"/>
</g>
<g style="opacity:0.4;">
	<rect x="155.974" y="227.963" style="fill:#FFFFFF;" width="15.997" height="199.97"/>
</g>
<g style="opacity:0.4;">
	<rect x="171.974" y="435.933" style="fill:#FFFFFF;" width="15.998" height="71.989"/>
</g>
<g style="opacity:0.2;">
	<rect x="323.954" y="435.933" width="15.998" height="71.989"/>
</g>
<g style="opacity:0.2;">
	<rect x="339.954" y="227.963" width="15.996" height="199.97"/>
</g>
<g style="opacity:0.2;">
	<rect x="323.954" y="195.973" width="15.998" height="23.996"/>
</g>
<g style="opacity:0.2;">
	<rect x="187.974" y="259.963" style="fill:#FFFFFF;" width="7.999" height="135.98"/>
</g>
<g style="opacity:0.2;">
	<rect x="315.954" y="259.963" width="8" height="135.98"/>
</g>
<g>
	<path style="fill:#3A3847;" d="M355.948,431.938h-199.97c-2.21,0-4-1.789-4-4V227.967c0-2.21,1.789-3.999,4-3.999h199.97
		c2.211,0,4,1.789,4,3.999v199.971C359.948,430.149,358.159,431.938,355.948,431.938z M159.978,423.939H351.95V231.966H159.978
		V423.939z"/>
	<path style="fill:#3A3847;" d="M323.954,399.942h-135.98c-2.211,0-4-1.788-4-3.999v-135.98c0-2.211,1.789-4,4-4h135.98
		c2.211,0,4,1.789,4,4v135.979C327.954,398.153,326.165,399.942,323.954,399.942z M191.974,391.943h127.98V263.962h-127.98V391.943z
		"/>
	<path style="fill:#3A3847;" d="M255.964,383.944c-30.875,0-55.992-25.122-55.992-55.992s25.117-55.991,55.992-55.991
		c30.871,0,55.992,25.121,55.992,55.991S286.835,383.944,255.964,383.944z M255.964,279.959c-26.465,0-47.992,21.528-47.992,47.993
		s21.527,47.993,47.992,47.993s47.992-21.528,47.992-47.993S282.429,279.959,255.964,279.959z"/>
	<path style="fill:#3A3847;" d="M195.973,431.938c-2.21,0-3.999-1.789-3.999-4v-7.998c0-2.211,1.789-4,3.999-4s3.999,1.789,3.999,4
		v7.998C199.972,430.149,198.183,431.938,195.973,431.938z"/>
	<path style="fill:#3A3847;" d="M219.97,431.938c-2.211,0-4-1.789-4-4v-7.998c0-2.211,1.789-4,4-4c2.21,0,3.998,1.789,3.998,4v7.998
		C223.968,430.149,222.18,431.938,219.97,431.938z"/>
	<path style="fill:#3A3847;" d="M243.966,431.938c-2.211,0-4-1.789-4-4v-7.998c0-2.211,1.789-4,4-4s4,1.789,4,4v7.998
		C247.966,430.149,246.177,431.938,243.966,431.938z"/>
	<path style="fill:#3A3847;" d="M267.962,431.938c-2.211,0-4-1.789-4-4v-7.998c0-2.211,1.789-4,4-4s4,1.789,4,4v7.998
		C271.962,430.149,270.173,431.938,267.962,431.938z"/>
	<path style="fill:#3A3847;" d="M291.958,431.938c-2.211,0-3.998-1.789-3.998-4v-7.998c0-2.211,1.787-4,3.998-4s4,1.789,4,4v7.998
		C295.958,430.149,294.169,431.938,291.958,431.938z"/>
	<path style="fill:#3A3847;" d="M315.954,431.938c-2.209,0-3.998-1.789-3.998-4v-7.998c0-2.211,1.789-4,3.998-4c2.211,0,4,1.789,4,4
		v7.998C319.954,430.149,318.165,431.938,315.954,431.938z"/>
	<path style="fill:#3A3847;" d="M339.952,415.94c-2.211,0-4-1.789-4-3.999V243.965c0-2.211,1.789-3.999,4-3.999
		c2.209,0,3.998,1.788,3.998,3.999v167.976C343.95,414.151,342.161,415.94,339.952,415.94z"/>
	<path style="fill:#3A3847;" d="M171.976,415.94c-2.21,0-3.999-1.789-3.999-3.999V243.965c0-2.211,1.789-3.999,3.999-3.999
		c2.211,0,4,1.788,4,3.999v167.976C175.976,414.151,174.187,415.94,171.976,415.94z"/>
	<path style="fill:#3A3847;" d="M171.976,223.968c-2.21,0-3.999-1.789-3.999-4v-47.993c0-2.21,1.789-4,3.999-4c2.211,0,4,1.789,4,4
		v47.993C175.976,222.179,174.187,223.968,171.976,223.968z"/>
	<path style="fill:#3A3847;" d="M339.952,199.971H171.976c-2.21,0-3.999-1.788-3.999-3.999s1.789-4,3.999-4h167.977
		c2.209,0,3.998,1.789,3.998,4S342.161,199.971,339.952,199.971z"/>
	<path style="fill:#3A3847;" d="M339.952,223.968c-2.211,0-4-1.789-4-4v-47.993c0-2.21,1.789-4,4-4c2.209,0,3.998,1.789,3.998,4
		v47.993C343.95,222.179,342.161,223.968,339.952,223.968z"/>
	<path style="fill:#3A3847;" d="M219.97,231.966c-2.211,0-4-1.789-4-4v-15.998c0-2.21,1.789-4,4-4c2.21,0,3.998,1.789,3.998,4
		v15.998C223.968,230.178,222.18,231.966,219.97,231.966z"/>
	<path style="fill:#3A3847;" d="M195.973,231.966c-2.21,0-3.999-1.789-3.999-4v-15.998c0-2.21,1.789-4,3.999-4s3.999,1.789,3.999,4
		v15.998C199.972,230.178,198.183,231.966,195.973,231.966z"/>
	<path style="fill:#3A3847;" d="M243.966,231.966c-2.211,0-4-1.789-4-4v-15.998c0-2.21,1.789-4,4-4s4,1.789,4,4v15.998
		C247.966,230.178,246.177,231.966,243.966,231.966z"/>
	<path style="fill:#3A3847;" d="M267.962,231.966c-2.211,0-4-1.789-4-4v-15.998c0-2.21,1.789-4,4-4s4,1.789,4,4v15.998
		C271.962,230.178,270.173,231.966,267.962,231.966z"/>
	<path style="fill:#3A3847;" d="M291.958,231.966c-2.211,0-3.998-1.789-3.998-4v-15.998c0-2.21,1.787-4,3.998-4s4,1.789,4,4v15.998
		C295.958,230.178,294.169,231.966,291.958,231.966z"/>
	<path style="fill:#3A3847;" d="M315.954,231.966c-2.209,0-3.998-1.789-3.998-4v-15.998c0-2.21,1.789-4,3.998-4c2.211,0,4,1.789,4,4
		v15.998C319.954,230.178,318.165,231.966,315.954,231.966z"/>
	<path style="fill:#3A3847;" d="M155.979,231.966c-2.21,0-4-1.789-4-4v-15.998c0-2.21,1.789-4,4-4s4,1.789,4,4v15.998
		C159.978,230.178,158.189,231.966,155.979,231.966z"/>
	<path style="fill:#3A3847;" d="M355.948,231.966c-2.209,0-3.998-1.789-3.998-4v-15.998c0-2.21,1.789-4,3.998-4c2.211,0,4,1.789,4,4
		v15.998C359.948,230.178,358.159,231.966,355.948,231.966z"/>
	<path style="fill:#3A3847;" d="M255.964,331.951c-2.211,0-4-1.788-4-3.999v-35.995c0-2.21,1.789-3.999,4-3.999
		c2.211,0,4,1.789,4,3.999v35.995C259.964,330.163,258.175,331.951,255.964,331.951z"/>
	<path style="fill:#3A3847;" d="M281.398,357.386c-1.016,0-2.047-0.391-2.828-1.172l-25.434-25.434
		c-1.563-1.563-1.563-4.093,0-5.655s4.094-1.563,5.656,0l25.434,25.434c1.563,1.563,1.563,4.093,0,5.655
		C283.444,356.995,282.429,357.386,281.398,357.386z"/>
	<path style="fill:#3A3847;" d="M179.972,191.972c-0.902,0-1.809-0.305-2.559-0.925c-1.695-1.414-1.926-3.938-0.512-5.636
		l39.994-47.993c1.414-1.699,3.934-1.922,5.636-0.512c1.694,1.414,1.925,3.937,0.512,5.636l-39.994,47.993
		C182.256,191.484,181.12,191.972,179.972,191.972z"/>
	<path style="fill:#3A3847;" d="M291.958,143.98H219.97c-2.211,0-4-1.789-4-4c0-2.21,1.789-3.999,4-3.999h71.988
		c2.211,0,4,1.789,4,3.999C295.958,142.191,294.169,143.98,291.958,143.98z"/>
	<path style="fill:#3A3847;" d="M331.952,191.972c-1.141,0-2.281-0.488-3.078-1.437l-39.994-47.993
		c-1.404-1.699-1.178-4.222,0.516-5.636c1.703-1.41,4.219-1.188,5.641,0.512l39.994,47.993c1.406,1.699,1.18,4.222-0.516,5.636
		C333.765,191.668,332.859,191.972,331.952,191.972z"/>
	<path style="fill:#3A3847;" d="M219.97,143.98c-2.211,0-4-1.789-4-4v-23.996c0-2.211,1.789-4,4-4c2.21,0,3.998,1.789,3.998,4
		v23.996C223.968,142.191,222.18,143.98,219.97,143.98z"/>
	<path style="fill:#3A3847;" d="M291.958,143.98c-2.211,0-3.998-1.789-3.998-4v-23.996c0-2.211,1.787-4,3.998-4s4,1.789,4,4v23.996
		C295.958,142.191,294.169,143.98,291.958,143.98z"/>
	<path style="fill:#3A3847;" d="M291.958,119.983H219.97c-2.211,0-4-1.789-4-3.999c0-2.211,1.789-4,4-4h71.988c2.211,0,4,1.789,4,4
		C295.958,118.194,294.169,119.983,291.958,119.983z"/>
	<path style="fill:#3A3847;" d="M219.97,119.983c-0.508,0-1.02-0.094-1.516-0.297c-2.043-0.835-3.023-3.171-2.188-5.218
		l35.994-87.987c0.836-2.042,3.188-3.015,5.219-2.187c2.043,0.835,3.023,3.171,2.188,5.218l-35.996,87.987
		C223.039,119.046,221.544,119.983,219.97,119.983z"/>
	<path style="fill:#3A3847;" d="M291.958,119.983c-1.578,0-3.07-0.937-3.701-2.483l-35.996-87.987
		c-0.836-2.047,0.145-4.382,2.188-5.218c2.031-0.852,4.379,0.14,5.219,2.187l35.994,87.987c0.836,2.047-0.141,4.382-2.188,5.218
		C292.974,119.889,292.458,119.983,291.958,119.983z"/>
	<path style="fill:#3A3847;" d="M255.964,31.996c-2.211,0-4-1.789-4-4V4c0-2.211,1.789-4,4-4c2.211,0,4,1.789,4,4v23.996
		C259.964,30.207,258.175,31.996,255.964,31.996z"/>
	<path style="fill:#3A3847;" d="M171.976,511.926c-2.21,0-3.999-1.789-3.999-4v-71.989c0-2.21,1.789-3.999,3.999-3.999
		c2.211,0,4,1.789,4,3.999v71.989C175.976,510.137,174.187,511.926,171.976,511.926z"/>
	<path style="fill:#3A3847;" d="M187.974,511.926c-2.211,0-4-1.789-4-4v-71.989c0-2.21,1.789-3.999,4-3.999s4,1.789,4,3.999v71.989
		C191.974,510.137,190.185,511.926,187.974,511.926z"/>
	<path style="fill:#3A3847;" d="M339.952,511.926c-2.211,0-4-1.789-4-4v-71.989c0-2.21,1.789-3.999,4-3.999
		c2.209,0,3.998,1.789,3.998,3.999v71.989C343.95,510.137,342.161,511.926,339.952,511.926z"/>
	<path style="fill:#3A3847;" d="M323.954,511.926c-2.211,0-4-1.789-4-4v-71.989c0-2.21,1.789-3.999,4-3.999s4,1.789,4,3.999v71.989
		C327.954,510.137,326.165,511.926,323.954,511.926z"/>
	<path style="fill:#3A3847;" d="M291.958,511.926c-2.211,0-3.998-1.789-3.998-4v-39.994c0-2.211,1.787-3.999,3.998-3.999
		s4,1.788,4,3.999v39.994C295.958,510.137,294.169,511.926,291.958,511.926z"/>
	<path style="fill:#3A3847;" d="M255.964,511.926c-2.211,0-4-1.789-4-4v-15.997c0-2.211,1.789-4,4-4c2.211,0,4,1.789,4,4v15.997
		C259.964,510.137,258.175,511.926,255.964,511.926z"/>
	<path style="fill:#3A3847;" d="M219.97,511.926c-2.211,0-4-1.789-4-4v-39.994c0-2.211,1.789-3.999,4-3.999
		c2.21,0,3.998,1.788,3.998,3.999v39.994C223.968,510.137,222.18,511.926,219.97,511.926z"/>
	<path style="fill:#3A3847;" d="M219.97,167.976c-1.023,0-2.047-0.391-2.828-1.172c-1.563-1.562-1.563-4.093,0-5.655l7.998-7.999
		c1.563-1.562,4.094-1.562,5.656,0c1.563,1.563,1.563,4.094,0,5.656l-7.999,7.999C222.016,167.585,220.993,167.976,219.97,167.976z"
		/>
	<path style="fill:#3A3847;" d="M235.967,167.976c-1.022,0-2.046-0.391-2.827-1.172l-8-7.999c-1.563-1.562-1.563-4.093,0-5.656
		c1.563-1.562,4.094-1.562,5.656,0l7.998,7.999c1.563,1.563,1.563,4.093,0,5.655C238.013,167.585,236.989,167.976,235.967,167.976z"
		/>
	<path style="fill:#3A3847;" d="M247.966,183.974c-1.023,0-2.047-0.391-2.828-1.172c-1.563-1.563-1.563-4.093,0-5.655l7.998-7.999
		c1.563-1.563,4.094-1.563,5.656,0s1.563,4.093,0,5.655l-8,7.999C250.011,183.583,248.988,183.974,247.966,183.974z"/>
	<path style="fill:#3A3847;" d="M263.962,183.974c-1.023,0-2.047-0.391-2.826-1.172l-8-7.999c-1.563-1.563-1.563-4.093,0-5.655
		s4.094-1.563,5.656,0l7.998,7.999c1.563,1.562,1.563,4.093,0,5.655C266.009,183.583,264.985,183.974,263.962,183.974z"/>
	<path style="fill:#3A3847;" d="M275.96,167.976c-1.021,0-2.045-0.391-2.826-1.172c-1.563-1.562-1.563-4.093,0-5.655l7.998-7.999
		c1.563-1.562,4.094-1.562,5.656,0c1.563,1.563,1.563,4.094,0,5.656l-8,7.999C278.007,167.585,276.984,167.976,275.96,167.976z"/>
	<path style="fill:#3A3847;" d="M291.958,167.976c-1.023,0-2.047-0.391-2.828-1.172l-7.998-7.999c-1.563-1.562-1.563-4.093,0-5.656
		c1.563-1.562,4.094-1.562,5.656,0l7.998,7.999c1.563,1.563,1.563,4.093,0,5.655C294.005,167.585,292.982,167.976,291.958,167.976z"
		/>
</g>
<g style="opacity:0.2;">
	<rect x="171.974" y="427.943" width="167.98" height="7.999"/>
</g>
<g style="opacity:0.2;">
	<rect x="171.974" y="219.963" width="167.98" height="7.999"/>
</g>
<g>
</g>
<g>
</g>
<g>
</g>
<g>
</g>
<g>
</g>
<g>
</g>
<g>
</g>
<g>
</g>
<g>
</g>
<g>
</g>
<g>
</g>
<g>
</g>
<g>
</g>
<g>
</g>
<g>
</g>
</svg>
