<svg height="512" viewBox="0 0 74 74" width="512" xmlns="http://www.w3.org/2000/svg"><g id="line_color" data-name="line color"><g fill="#323c6b"><path d="m71 37.667h-68a.5.5 0 0 1 0-1h68a.5.5 0 0 1 0 1z"/><path d="m52.009 45.527h-44.387a.5.5 0 0 1 0-1h44.387a.5.5 0 0 1 0 1z"/><path d="m66.378 45.527h-9.566a.5.5 0 0 1 0-1h9.566a.5.5 0 0 1 0 1z"/><path d="m25.36 53.393h-12.491a.5.5 0 1 1 0-1h12.491a.5.5 0 1 1 0 1z"/><path d="m61.131 53.393h-30.257a.5.5 0 1 1 0-1h30.257a.5.5 0 0 1 0 1z"/><path d="m33.282 61.25h-15.175a.5.5 0 0 1 0-1h15.175a.5.5 0 0 1 0 1z"/><path d="m55.893 61.25h-17.974a.5.5 0 0 1 0-1h17.974a.5.5 0 0 1 0 1z"/><path d="m3.6 21.078a.5.5 0 0 1 -.348-.859q.205-.2.424-.387a.5.5 0 1 1 .65.759q-.195.168-.379.346a.5.5 0 0 1 -.347.141z"/><path d="m1.74 30.675a.5.5 0 0 1 -.456-.3 9.007 9.007 0 0 1 .245-7.857.5.5 0 1 1 .885.465 8.013 8.013 0 0 0 -.214 6.988.5.5 0 0 1 -.252.661.5.5 0 0 1 -.208.043z"/></g><path d="m28.3 30.64a6.2 6.2 0 0 0 .21 1.62h-18.92a5.555 5.555 0 0 1 -.38-11.1 7.474 7.474 0 0 1 13.27-4.04 5.864 5.864 0 0 1 1.84-.3 5.776 5.776 0 0 1 5.79 5.77 5.16 5.16 0 0 1 3.01 1.76 6.507 6.507 0 0 0 -4.82 6.29z" fill="#b6d2dd"/><path d="m28.51 32.76h-18.92a6.055 6.055 0 0 1 -.834-12.06 7.977 7.977 0 0 1 13.9-4.158 6.38 6.38 0 0 1 1.668-.226 6.289 6.289 0 0 1 6.276 5.862 5.75 5.75 0 0 1 2.9 1.846.5.5 0 0 1 -.25.81 6.007 6.007 0 0 0 -4.45 5.806 5.741 5.741 0 0 0 .192 1.49.5.5 0 0 1 -.482.63zm-11.86-17.93a6.974 6.974 0 0 0 -6.942 6.37.5.5 0 0 1 -.466.46 5.055 5.055 0 0 0 .348 10.1h18.3a6.856 6.856 0 0 1 -.091-1.12 7.015 7.015 0 0 1 4.395-6.509 4.459 4.459 0 0 0 -2.159-1.047.5.5 0 0 1 -.425-.494 5.286 5.286 0 0 0 -5.29-5.27 5.377 5.377 0 0 0 -1.682.274.5.5 0 0 1 -.549-.162 6.926 6.926 0 0 0 -5.439-2.602z" fill="#323c6b"/><path d="m15.65 16.33a7.452 7.452 0 0 1 5.83 2.79 5.864 5.864 0 0 1 1.84-.3 5.776 5.776 0 0 1 5.79 5.77 4.674 4.674 0 0 1 1.89.785 6.432 6.432 0 0 1 2.12-1.025 5.16 5.16 0 0 0 -3.01-1.76 5.776 5.776 0 0 0 -5.79-5.77 5.864 5.864 0 0 0 -1.84.3 7.475 7.475 0 0 0 -12.932 2.368 7.465 7.465 0 0 1 6.102-3.158z" fill="#acc6cc"/><path d="m28.594 28.756a6.475 6.475 0 0 0 -1.262 3.5h1.178a6.2 6.2 0 0 1 -.21-1.62 6.487 6.487 0 0 1 .294-1.88z" fill="#acc6cc"/><path d="m65.935 17.3a.5.5 0 0 1 -.438-.26l-.143-.252a.5.5 0 1 1 .861-.508q.082.139.158.28a.5.5 0 0 1 -.438.74z" fill="#323c6b"/><path d="m64.256 14.932a.5.5 0 0 1 -.372-.166 12.079 12.079 0 0 0 -8.974-4.016.5.5 0 0 1 0-1 13.079 13.079 0 0 1 9.718 4.35.5.5 0 0 1 -.372.834z" fill="#323c6b"/><path d="m70 31.64a5.527 5.527 0 0 1 -5.52 5.53h-29.67a6.5 6.5 0 0 1 -6.3-4.91 6.2 6.2 0 0 1 -.21-1.62 6.507 6.507 0 0 1 4.82-6.29 6.407 6.407 0 0 1 3.25-.04 7.023 7.023 0 0 1 -.15-1.46 6.925 6.925 0 0 1 10.95-5.66 9.588 9.588 0 0 1 16.74 8.94 5.436 5.436 0 0 1 .57-.03 5.529 5.529 0 0 1 5.52 5.54z" fill="#b6d2dd"/><path d="m64.48 37.67h-29.67a6.989 6.989 0 0 1 -6.785-5.288 6.735 6.735 0 0 1 -.225-1.742 7.034 7.034 0 0 1 7.965-6.957 7.574 7.574 0 0 1 -.045-.833 7.449 7.449 0 0 1 7.43-7.45 7.351 7.351 0 0 1 3.907 1.114 10.09 10.09 0 0 1 17.543 9.086 6.035 6.035 0 0 1 -.12 12.07zm-29.67-13.05a5.737 5.737 0 0 0 -1.556.212 6.009 6.009 0 0 0 -4.454 5.808 5.741 5.741 0 0 0 .192 1.49 5.992 5.992 0 0 0 5.817 4.54h29.671a5.035 5.035 0 0 0 0-10.07 4.952 4.952 0 0 0 -.518.027.5.5 0 0 1 -.522-.667 9.081 9.081 0 0 0 -15.866-8.475.5.5 0 0 1 -.7.112 6.361 6.361 0 0 0 -3.729-1.2 6.469 6.469 0 0 0 -6.291 7.806.5.5 0 0 1 -.615.588 5.723 5.723 0 0 0 -1.429-.171z" fill="#323c6b"/><path d="m31.12 25.35a6.407 6.407 0 0 1 3.25-.04 6.953 6.953 0 0 1 -.134-1.151 6.3 6.3 0 0 0 -1.116.191 6.432 6.432 0 0 0 -2.16 1.057c.055-.016.105-.042.16-.057z" fill="#acc6cc"/><path d="m64.48 26.1a5.436 5.436 0 0 0 -.57.03 9.576 9.576 0 0 0 -14.246-11.308 9.6 9.6 0 0 1 12.246 12.308 5.436 5.436 0 0 1 .57-.03 5.535 5.535 0 0 1 3.413 9.88 5.534 5.534 0 0 0 -1.413-10.88z" fill="#acc6cc"/><path d="m64.48 37.67h-29.67a6.989 6.989 0 0 1 -6.785-5.288 6.735 6.735 0 0 1 -.225-1.742 7.034 7.034 0 0 1 7.965-6.957 7.574 7.574 0 0 1 -.045-.833 7.449 7.449 0 0 1 7.43-7.45 7.351 7.351 0 0 1 3.907 1.114 10.09 10.09 0 0 1 17.543 9.086 6.035 6.035 0 0 1 -.12 12.07zm-29.67-13.05a5.737 5.737 0 0 0 -1.556.212 6.009 6.009 0 0 0 -4.454 5.808 5.741 5.741 0 0 0 .192 1.49 5.992 5.992 0 0 0 5.817 4.54h29.671a5.035 5.035 0 0 0 0-10.07 4.952 4.952 0 0 0 -.518.027.5.5 0 0 1 -.522-.667 9.081 9.081 0 0 0 -15.866-8.475.5.5 0 0 1 -.7.112 6.361 6.361 0 0 0 -3.729-1.2 6.469 6.469 0 0 0 -6.291 7.806.5.5 0 0 1 -.615.588 5.723 5.723 0 0 0 -1.429-.171z" fill="#323c6b"/><path d="m28.51 32.76h-18.92a6.055 6.055 0 0 1 -.834-12.06 7.977 7.977 0 0 1 13.9-4.158 6.38 6.38 0 0 1 1.668-.226 6.289 6.289 0 0 1 6.276 5.862 5.75 5.75 0 0 1 2.9 1.846.5.5 0 0 1 -.25.81 6.007 6.007 0 0 0 -4.45 5.806 5.741 5.741 0 0 0 .192 1.49.5.5 0 0 1 -.482.63zm-11.86-17.93a6.974 6.974 0 0 0 -6.942 6.37.5.5 0 0 1 -.466.46 5.055 5.055 0 0 0 .348 10.1h18.3a6.856 6.856 0 0 1 -.091-1.12 7.015 7.015 0 0 1 4.395-6.509 4.459 4.459 0 0 0 -2.159-1.047.5.5 0 0 1 -.425-.494 5.286 5.286 0 0 0 -5.29-5.27 5.377 5.377 0 0 0 -1.682.274.5.5 0 0 1 -.549-.162 6.926 6.926 0 0 0 -5.439-2.602z" fill="#323c6b"/><g fill="#eeefee"><path d="m45.068 18.379c0-.011 0-.022 0-.034a.43.43 0 0 0 -.438-.423 1.985 1.985 0 0 0 -.432.031.43.43 0 1 0 .109.853 1.363 1.363 0 0 1 .338-.024.43.43 0 0 0 .423-.403z"/><path d="m43.114 18.761a.431.431 0 0 0 -.531-.468 6.5 6.5 0 0 0 -4.123 3.437.43.43 0 0 0 .682.525 5.687 5.687 0 0 1 3.648-3.127.43.43 0 0 0 .324-.367z"/></g></g></svg>