<?xml version="1.0" encoding="iso-8859-1"?>
<!-- Generator: Adobe Illustrator 19.0.0, SVG Export Plug-In . SVG Version: 6.00 Build 0)  -->
<svg version="1.1" id="Capa_1" xmlns="http://www.w3.org/2000/svg" xmlns:xlink="http://www.w3.org/1999/xlink" x="0px" y="0px"
	 viewBox="0 0 511.926 511.926" style="enable-background:new 0 0 511.926 511.926;" xml:space="preserve">
<path style="fill:#4FC1E9;" d="M459.935,339.951h-31.996c8.834,0,15.998-7.164,15.998-15.998c0-8.835-7.164-15.998-15.998-15.998
	h-31.996c8.836,0,15.998-7.163,15.998-15.998c0-8.834-7.162-15.997-15.998-15.997h-47.992c8.834,0,15.998-7.163,15.998-15.997
	c0-8.835-7.164-15.998-15.998-15.998h87.986c8.836,0,15.998-7.163,15.998-15.998c0-8.834-7.162-15.998-15.998-15.998h-39.994
	c8.836,0,15.998-7.163,15.998-15.998s-7.162-15.998-15.998-15.998h-15.996c8.834,0,15.996-7.163,15.996-15.997
	c0-8.835-7.162-15.998-15.996-15.998h79.988c8.834,0,15.996-7.163,15.996-15.998s-7.162-15.998-15.996-15.998h-31.996
	c8.834,0,15.998-7.163,15.998-15.998c0-8.834-7.164-15.997-15.998-15.997h-31.996c8.836,0,15.998-7.163,15.998-15.998
	c0-8.834-7.162-15.998-15.998-15.998h-23.996c8.836,0,15.998-7.163,15.998-15.998s-7.162-15.998-15.998-15.998H179.975
	c-8.836,0-15.998,7.163-15.998,15.998c0,8.834,7.162,15.998,15.998,15.998h-55.992c-8.835,0-15.998,7.163-15.998,15.998
	s7.163,15.998,15.998,15.998h-15.998c-8.834,0-15.997,7.163-15.997,15.997c0,8.835,7.163,15.998,15.997,15.998h47.993
	c-8.834,0-15.997,7.163-15.997,15.998s7.163,15.998,15.997,15.998H67.991c-8.834,0-15.997,7.163-15.997,15.998
	c0,8.834,7.163,15.997,15.997,15.997h39.994c-8.834,0-15.997,7.163-15.997,15.998s7.163,15.998,15.997,15.998H67.991
	c-8.834,0-15.997,7.163-15.997,15.998s7.163,15.998,15.997,15.998H51.993c-8.835,0-15.998,7.163-15.998,15.998
	c0,8.834,7.163,15.997,15.998,15.997h39.994c-8.835,0-15.998,7.163-15.998,15.997c0,8.835,7.163,15.998,15.998,15.998H75.99
	c-8.834,0-15.997,7.163-15.997,15.998c0,8.834,7.163,15.998,15.997,15.998h79.988c-8.834,0-15.997,7.162-15.997,15.997
	s7.163,15.998,15.997,15.998h-31.994c-8.835,0-15.998,7.163-15.998,15.997c0,8.835,7.163,15.998,15.998,15.998h223.967
	c8.834,0,15.998-7.163,15.998-15.998c0-8.834-7.164-15.997-15.998-15.997h111.984c8.834,0,15.996-7.163,15.996-15.998
	S468.768,339.951,459.935,339.951z"/>
<path style="fill:#E6E9ED;" d="M135.982,27.996c13.279,0,23.997,10.717,23.997,23.997S149.26,75.99,135.982,75.99h-63.99
	c-4.397,0-7.999-3.601-7.999-7.999c0-4.397,3.602-7.999,7.999-7.999h15.997c-4.397,0-7.998-3.601-7.998-7.999
	s3.601-7.999,7.998-7.999h25.517C116.785,34.714,125.585,27.996,135.982,27.996z"/>
<path style="fill:#CCD1D9;" d="M263.961,140.058c-2.557-0.078-5.197-0.078-7.998-0.078s-5.441,0-7.998,0.078
	c-34.156,0.961-47.994,7.921-47.994,7.921v15.998v39.994h111.984v-39.994v-15.998C311.956,147.979,298.113,141.019,263.961,140.058z
	"/>
<path style="fill:#FFFFFF;" d="M207.971,147.979c0,0,13.837-6.96,47.992-7.921c1.277-0.039,2.668-0.031,4-0.039
	c-1.332-0.008-2.598-0.039-4-0.039c-2.801,0-5.441,0-7.998,0.078c-34.156,0.961-47.994,7.921-47.994,7.921v15.998v31.995h8v-31.995
	V147.979z"/>
<g style="opacity:0.2;">
	<path d="M303.956,147.979c0,0-13.842-6.96-47.992-7.921c-1.277-0.039-2.668-0.031-4-0.039c1.332-0.008,2.598-0.039,4-0.039
		c2.801,0,5.441,0,7.998,0.078c34.152,0.961,47.994,7.921,47.994,7.921v15.998v31.995h-8v-31.995L303.956,147.979L303.956,147.979z"
		/>
</g>
<g>
	<rect x="183.973" y="203.973" style="fill:#CCD1D9;" width="31.996" height="71.989"/>
	<rect x="295.953" y="203.973" style="fill:#CCD1D9;" width="31.996" height="71.989"/>
</g>
<polygon style="fill:#AAB2BD;" points="295.957,203.971 287.96,203.971 223.967,203.971 215.969,203.971 215.969,275.96 
	223.967,275.96 223.967,507.926 287.96,507.926 287.96,275.96 295.957,275.96 "/>
<path style="fill:#E6E9ED;" d="M447.936,67.99c13.279,0,23.996,10.717,23.996,23.997s-10.717,23.997-23.996,23.997h-71.99
	c-4.398,0-7.998-3.601-7.998-7.999c0-4.397,3.6-7.999,7.998-7.999h15.998c-4.398,0-8-3.601-8-7.999s3.602-7.999,8-7.999h33.51
	C428.734,74.708,437.538,67.99,447.936,67.99z"/>
<g style="opacity:0.2;">
	<path d="M447.936,67.99c-1.422,0-2.797,0.148-4.141,0.387c11.42,1.848,20.137,11.65,20.137,23.61
		c0,13.279-10.717,23.997-23.996,23.997h8c13.279,0,23.996-10.717,23.996-23.997S461.216,67.99,447.936,67.99z"/>
</g>
<g style="opacity:0.2;">
	<path d="M135.982,27.996c-1.417,0-2.796,0.148-4.144,0.387c11.428,1.848,20.142,11.65,20.142,23.61
		c0,13.279-10.717,23.997-23.997,23.997h7.999c13.279,0,23.997-10.717,23.997-23.997S149.26,27.996,135.982,27.996z"/>
</g>
<path style="fill:#656D78;" d="M259.964,51.993l3.998,88.065c-2.557-0.078-5.197-0.078-7.998-0.078s-5.441,0-7.998,0.078
	l3.998-88.065h4H259.964z"/>
<g style="opacity:0.3;">
	<path style="fill:#FFFFFF;" d="M255.967,139.98l3.996-87.987h-4h-4l-3.998,88.065c2.557-0.078,5.197-0.078,7.998-0.078H255.967z"/>
	<path style="fill:#FFFFFF;" d="M259.964,140.019c1.332,0.008,2.721,0,3.998,0.039l-0.004-0.078
		C262.56,139.98,261.292,140.011,259.964,140.019z"/>
</g>
<g>
	<path style="fill:#FFFFFF;" d="M139.837,28.383c-1.262-0.203-2.535-0.387-3.855-0.387c-10.396,0-19.196,10.717-22.477,19.997h7.998
		C124.339,39.979,131.294,29.899,139.837,28.383z"/>
	<path style="fill:#FFFFFF;" d="M87.988,59.991c0,0,0-3.601,0-7.999s3.602-7.999,7.999-7.999h-7.999
		c-4.397,0-7.998,3.601-7.998,7.999S83.59,59.991,87.988,59.991z"/>
	<path style="fill:#FFFFFF;" d="M71.991,67.99c0-4.397,3.601-7.999,7.999-7.999h-7.999c-4.397,0-7.999,3.602-7.999,7.999
		c0,4.398,3.602,7.999,7.999,7.999h7.999C75.591,75.989,71.991,72.388,71.991,67.99z"/>
	<path style="fill:#FFFFFF;" d="M451.793,68.377c-1.266-0.203-2.539-0.387-3.857-0.387c-10.398,0-19.201,10.717-22.482,19.997h8
		C436.296,79.973,443.249,69.893,451.793,68.377z"/>
	<path style="fill:#FFFFFF;" d="M391.944,99.985c0,0,0-3.601,0-7.999s3.6-7.999,7.998-7.999h-7.998c-4.398,0-8,3.601-8,7.999
		S387.546,99.985,391.944,99.985z"/>
	<path style="fill:#FFFFFF;" d="M375.945,107.984c0-4.397,3.602-7.999,7.998-7.999h-7.998c-4.398,0-7.998,3.602-7.998,7.999
		c0,4.398,3.6,7.999,7.998,7.999h7.998C379.548,115.984,375.945,112.382,375.945,107.984z"/>
</g>
<g>
	<rect x="175.973" y="275.963" style="fill:#CCD1D9;" width="47.992" height="231.97"/>
	<rect x="287.964" y="275.963" style="fill:#CCD1D9;" width="47.992" height="231.97"/>
</g>
<g>
	<rect x="175.973" y="275.963" style="fill:#FFFFFF;" width="7.998" height="231.97"/>
	<rect x="287.964" y="275.963" style="fill:#FFFFFF;" width="7.998" height="231.97"/>
	<rect x="183.973" y="203.973" style="fill:#FFFFFF;" width="8" height="63.99"/>
</g>
<g style="opacity:0.2;">
	<rect x="327.953" y="275.963" width="7.998" height="231.97"/>
</g>
<g style="opacity:0.2;">
	<rect x="215.973" y="275.963" width="7.998" height="231.97"/>
</g>
<g style="opacity:0.2;">
	<rect x="319.953" y="203.973" width="8" height="63.99"/>
</g>
<g style="opacity:0.2;">
	<rect x="207.973" y="203.973" width="7.998" height="63.99"/>
</g>
<rect x="295.953" y="203.973" style="fill:#FFFFFF;" width="7.998" height="63.99"/>
<g style="opacity:0.2;">
	<rect x="183.973" y="267.963" width="31.996" height="7.999"/>
</g>
<g style="opacity:0.2;">
	<rect x="295.953" y="267.963" width="31.996" height="7.999"/>
</g>
<g style="opacity:0.2;">
	<rect x="199.973" y="195.973" width="111.98" height="7.999"/>
</g>
<g>
	<path style="fill:#3A3847;" d="M223.967,511.926c-2.21,0-3.998-1.789-3.998-4V279.959h-39.994v227.967c0,2.211-1.789,4-4,4
		s-4-1.789-4-4V275.96c0-2.211,1.789-3.999,4-3.999h47.992c2.211,0,4,1.788,4,3.999v231.966
		C227.967,510.137,226.178,511.926,223.967,511.926z"/>
	<path style="fill:#3A3847;" d="M335.952,511.926c-2.211,0-4-1.789-4-4V279.959h-39.994v227.967c0,2.211-1.789,4-3.998,4
		c-2.211,0-4-1.789-4-4V275.96c0-2.211,1.789-3.999,4-3.999h47.992c2.211,0,4,1.788,4,3.999v231.966
		C339.952,510.137,338.163,511.926,335.952,511.926z"/>
	<path style="fill:#3A3847;" d="M183.973,271.961c-2.21,0-3.998-1.789-3.998-4v-63.99c0-2.211,1.788-4,3.998-4c2.211,0,4,1.789,4,4
		v63.99C187.973,270.172,186.184,271.961,183.973,271.961z"/>
	<path style="fill:#3A3847;" d="M215.969,207.97h-31.996c-2.21,0-3.998-1.789-3.998-3.999c0-2.211,1.788-4,3.998-4h31.996
		c2.211,0,4,1.789,4,4C219.969,206.181,218.18,207.97,215.969,207.97z"/>
	<path style="fill:#3A3847;" d="M215.969,271.961c-2.211,0-4-1.789-4-4v-63.99c0-2.211,1.789-4,4-4s4,1.789,4,4v63.99
		C219.969,270.172,218.18,271.961,215.969,271.961z"/>
	<path style="fill:#3A3847;" d="M295.957,271.961c-2.211,0-4-1.789-4-4v-63.99c0-2.211,1.789-4,4-4s4,1.789,4,4v63.99
		C299.957,270.172,298.168,271.961,295.957,271.961z"/>
	<path style="fill:#3A3847;" d="M327.953,207.97h-31.996c-2.211,0-4-1.789-4-3.999c0-2.211,1.789-4,4-4h31.996
		c2.209,0,3.998,1.789,3.998,4C331.952,206.181,330.163,207.97,327.953,207.97z"/>
	<path style="fill:#3A3847;" d="M327.953,271.961c-2.211,0-4-1.789-4-4v-63.99c0-2.211,1.789-4,4-4c2.209,0,3.998,1.789,3.998,4
		v63.99C331.952,270.172,330.163,271.961,327.953,271.961z"/>
	<path style="fill:#3A3847;" d="M191.973,511.926c-2.211,0-4-1.789-4-4V291.957c0-2.21,1.789-3.999,4-3.999s3.999,1.789,3.999,3.999
		v215.969C195.973,510.137,194.184,511.926,191.973,511.926z"/>
	<path style="fill:#3A3847;" d="M207.971,511.926c-2.211,0-4-1.789-4-4V291.957c0-2.21,1.789-3.999,4-3.999
		c2.209,0,3.998,1.789,3.998,3.999v215.969C211.969,510.137,210.18,511.926,207.971,511.926z"/>
	<path style="fill:#3A3847;" d="M303.956,511.926c-2.209,0-3.998-1.789-3.998-4V291.957c0-2.21,1.789-3.999,3.998-3.999
		c2.211,0,4,1.789,4,3.999v215.969C307.956,510.137,306.167,511.926,303.956,511.926z"/>
	<path style="fill:#3A3847;" d="M319.953,511.926c-2.211,0-4-1.789-4-4V291.957c0-2.21,1.789-3.999,4-3.999s4,1.789,4,3.999v215.969
		C323.953,510.137,322.164,511.926,319.953,511.926z"/>
	<path style="fill:#3A3847;" d="M247.965,511.926c-2.211,0-4-1.789-4-4V203.971c0-2.211,1.789-4,4-4c2.209,0,3.998,1.789,3.998,4
		v303.955C251.964,510.137,250.174,511.926,247.965,511.926z"/>
	<path style="fill:#3A3847;" d="M263.961,511.926c-2.211,0-3.998-1.789-3.998-4V203.971c0-2.211,1.787-4,3.998-4s4,1.789,4,4
		v303.955C267.961,510.137,266.173,511.926,263.961,511.926z"/>
	<path style="fill:#3A3847;" d="M199.971,271.961c-2.211,0-3.999-1.789-3.999-4v-47.993c0-2.21,1.788-3.999,3.999-3.999
		s4,1.789,4,3.999v47.993C203.971,270.172,202.182,271.961,199.971,271.961z"/>
	<path style="fill:#3A3847;" d="M311.956,271.961c-2.211,0-4-1.789-4-4v-47.993c0-2.21,1.789-3.999,4-3.999s3.998,1.789,3.998,3.999
		v47.993C315.953,270.172,314.167,271.961,311.956,271.961z"/>
	<path style="fill:#3A3847;" d="M287.96,207.97h-63.992c-2.21,0-3.998-1.789-3.998-3.999c0-2.211,1.788-4,3.998-4h63.992
		c2.209,0,3.998,1.789,3.998,4C291.957,206.181,290.168,207.97,287.96,207.97z"/>
	<path style="fill:#3A3847;" d="M199.971,199.971c-2.211,0-3.999-1.788-3.999-3.999v-47.993c0-2.21,1.788-3.999,3.999-3.999
		s4,1.789,4,3.999v47.993C203.971,198.183,202.182,199.971,199.971,199.971z"/>
	<path style="fill:#3A3847;" d="M311.956,199.971c-2.211,0-4-1.788-4-3.999v-47.993c0-2.21,1.789-3.999,4-3.999
		s3.998,1.789,3.998,3.999v47.993C315.953,198.183,314.167,199.971,311.956,199.971z"/>
	<path style="fill:#3A3847;" d="M311.956,151.978c-0.609,0-1.219-0.137-1.797-0.426c-0.117-0.059-13.748-6.581-46.311-7.495
		c-2.572-0.082-5.268-0.195-8.021-0.078c-2.707,0-5.262,0-7.74,0.078c-32.566,0.914-46.201,7.436-46.334,7.502
		c-1.996,0.961-4.379,0.156-5.354-1.804c-0.98-1.973-0.191-4.363,1.776-5.351c0.598-0.301,15.029-7.37,49.678-8.347
		c5.178-0.156,11.037-0.156,16.234,0c34.637,0.977,49.072,8.046,49.666,8.347c1.967,0.992,2.764,3.397,1.779,5.37
		C314.831,151.174,313.417,151.978,311.956,151.978z"/>
	<path style="fill:#3A3847;" d="M295.957,167.976h-79.988c-2.211,0-4-1.789-4-3.999c0-2.211,1.789-4,4-4h79.988c2.211,0,4,1.789,4,4
		C299.957,166.187,298.168,167.976,295.957,167.976z"/>
	<path style="fill:#3A3847;" d="M231.967,167.976c-2.211,0-4-1.789-4-3.999v-7.999c0-2.211,1.789-4,4-4s3.999,1.789,3.999,4v7.999
		C235.967,166.187,234.178,167.976,231.967,167.976z"/>
	<path style="fill:#3A3847;" d="M247.965,167.976c-2.211,0-4-1.789-4-3.999v-7.999c0-2.211,1.789-4,4-4c2.209,0,3.998,1.789,3.998,4
		v7.999C251.964,166.187,250.174,167.976,247.965,167.976z"/>
	<path style="fill:#3A3847;" d="M263.961,167.976c-2.211,0-3.998-1.789-3.998-3.999v-7.999c0-2.211,1.787-4,3.998-4s4,1.789,4,4
		v7.999C267.961,166.187,266.173,167.976,263.961,167.976z"/>
	<path style="fill:#3A3847;" d="M279.96,167.976c-2.211,0-4-1.789-4-3.999v-7.999c0-2.211,1.789-4,4-4s4,1.789,4,4v7.999
		C283.96,166.187,282.171,167.976,279.96,167.976z"/>
	<path style="fill:#3A3847;" d="M239.965,199.971c-2.211,0-3.999-1.788-3.999-3.999v-15.998c0-2.21,1.788-3.999,3.999-3.999
		s4,1.789,4,3.999v15.998C243.965,198.183,242.176,199.971,239.965,199.971z"/>
	<path style="fill:#3A3847;" d="M215.969,199.971c-2.211,0-4-1.788-4-3.999v-15.998c0-2.21,1.789-3.999,4-3.999s4,1.789,4,3.999
		v15.998C219.969,198.183,218.18,199.971,215.969,199.971z"/>
	<path style="fill:#3A3847;" d="M271.961,199.971c-2.211,0-4-1.788-4-3.999v-15.998c0-2.21,1.789-3.999,4-3.999
		s3.998,1.789,3.998,3.999v15.998C275.96,198.183,274.173,199.971,271.961,199.971z"/>
	<path style="fill:#3A3847;" d="M295.957,199.971c-2.211,0-4-1.788-4-3.999v-15.998c0-2.21,1.789-3.999,4-3.999s4,1.789,4,3.999
		v15.998C299.957,198.183,298.168,199.971,295.957,199.971z"/>
	<path style="fill:#3A3847;" d="M255.964,199.971c-2.211,0-4-1.788-4-3.999v-15.998c0-2.21,1.789-3.999,4-3.999s4,1.789,4,3.999
		v15.998C259.964,198.183,258.174,199.971,255.964,199.971z"/>
	<path style="fill:#3A3847;" d="M247.969,144.058c-0.063,0-0.125,0-0.184-0.004c-2.207-0.102-3.918-1.969-3.816-4.176l4-88.065
		c0.098-2.21,2.104-3.976,4.174-3.816c2.207,0.102,3.918,1.969,3.816,4.175l-4,88.065
		C251.861,142.386,250.092,144.058,247.969,144.058z"/>
	<path style="fill:#3A3847;" d="M259.964,55.992h-8c-2.21,0-3.998-1.789-3.998-4s1.788-4,3.998-4h8c2.209,0,3.998,1.789,3.998,4
		S262.173,55.992,259.964,55.992z"/>
	<path style="fill:#3A3847;" d="M263.957,144.058c-2.125,0-3.893-1.672-3.99-3.82l-4-88.065c-0.102-2.207,1.609-4.074,3.816-4.175
		c2.021-0.184,4.072,1.605,4.174,3.816l4.004,88.065c0.094,2.207-1.609,4.074-3.82,4.176
		C264.086,144.058,264.025,144.058,263.957,144.058z"/>
	<path style="fill:#3A3847;" d="M255.964,55.992c-2.211,0-4-1.789-4-4V4c0-2.211,1.789-4,4-4s4,1.789,4,4v47.993
		C259.964,54.203,258.174,55.992,255.964,55.992z"/>
	<path style="fill:#3A3847;" d="M135.982,79.988h-63.99c-6.616,0-11.998-5.382-11.998-11.998s5.382-11.998,11.998-11.998h4.683
		c-0.441-1.25-0.684-2.598-0.684-4c0-6.616,5.382-11.999,11.998-11.999h22.845c4.581-9.674,14.357-15.997,25.148-15.997
		c15.436,0,27.996,12.561,27.996,27.996S151.417,79.988,135.982,79.988z M71.991,63.991c-2.207,0-4,1.792-4,3.999s1.793,4,4,4h63.99
		c11.026,0,19.997-8.971,19.997-19.997s-8.971-19.997-19.997-19.997c-8.369,0-15.888,5.359-18.708,13.33
		c-0.563,1.597-2.074,2.667-3.769,2.667H87.988c-2.206,0-3.999,1.793-3.999,4s1.793,4,3.999,4c2.211,0,4,1.789,4,3.999
		c0,2.211-1.789,4-4,4L71.991,63.991L71.991,63.991z"/>
	<path style="fill:#3A3847;" d="M447.936,119.983h-71.99c-6.617,0-11.998-5.382-11.998-11.998s5.381-11.998,11.998-11.998h4.688
		c-0.445-1.25-0.688-2.598-0.688-4c0-6.616,5.381-11.999,11.998-11.999h30.838c4.586-9.674,14.357-15.997,25.154-15.997
		c15.434,0,27.994,12.561,27.994,27.996S463.37,119.983,447.936,119.983z M375.945,103.985c-2.203,0-4,1.792-4,3.999s1.797,4,4,4
		h71.99c11.029,0,19.996-8.971,19.996-19.997s-8.967-19.997-19.996-19.997c-8.375,0-15.889,5.359-18.709,13.33
		c-0.563,1.597-2.07,2.667-3.773,2.667h-33.51c-2.203,0-4,1.793-4,4s1.797,4,4,4c2.211,0,3.998,1.789,3.998,3.999
		c0,2.211-1.787,4-3.998,4L375.945,103.985L375.945,103.985z"/>
</g>
<g>
</g>
<g>
</g>
<g>
</g>
<g>
</g>
<g>
</g>
<g>
</g>
<g>
</g>
<g>
</g>
<g>
</g>
<g>
</g>
<g>
</g>
<g>
</g>
<g>
</g>
<g>
</g>
<g>
</g>
</svg>
