<?xml version="1.0" encoding="iso-8859-1"?>
<!-- Generator: Adobe Illustrator 19.0.0, SVG Export Plug-In . SVG Version: 6.00 Build 0)  -->
<svg version="1.1" id="Capa_1" xmlns="http://www.w3.org/2000/svg" xmlns:xlink="http://www.w3.org/1999/xlink" x="0px" y="0px"
	 viewBox="0 0 511.926 511.926" style="enable-background:new 0 0 511.926 511.926;" xml:space="preserve">
<path style="fill:#FC6E51;" d="M268.602,154.778l-4.641-70.79h-15.996l-4.641,70.79c-3.84,37.995-10.717,89.745-22.957,145.179
	h71.191C279.318,244.524,272.445,192.773,268.602,154.778z"/>
<g style="opacity:0.5;">
	<path style="fill:#FFFFFF;" d="M247.965,91.987l-4.641,62.792c-3.84,37.995-10.717,89.745-22.957,145.179h7.998
		c12.24-55.434,19.119-107.184,22.957-145.179l4.117-62.792C255.439,91.987,247.965,91.987,247.965,91.987z"/>
</g>
<g>
	<path style="fill:#FC6E51;" d="M295.16,315.954h-31.199h-2.125c5.438,21.278,21.498,74.708,28.621,95.986h32.934
		C311.877,380.266,302.674,347.629,295.16,315.954z"/>
	<path style="fill:#FC6E51;" d="M247.965,315.954H216.77c-7.519,31.675-16.721,64.312-28.238,95.986h32.77
		c7.119-21.278,23.43-74.708,28.787-95.986H247.965z"/>
</g>
<g style="opacity:0.5;">
	<path style="fill:#FFFFFF;" d="M214.832,323.984c-7.146,29.137-15.752,58.944-26.301,87.956h7.998
		c10.551-29.012,19.158-58.835,26.31-87.987L214.832,323.984z"/>
</g>
<g>
	<path style="fill:#3A3847;" d="M223.967,407.941c-0.422,0-0.847-0.063-1.269-0.203c-2.093-0.702-3.226-2.968-2.522-5.062
		c7.459-22.293,18.723-59.108,23.91-79.699c0.535-2.148,2.703-3.453,4.854-2.898c2.14,0.531,3.44,2.711,2.901,4.852
		c-5.229,20.77-16.575,57.843-24.082,80.277C227.201,406.879,225.639,407.941,223.967,407.941z"/>
	<path style="fill:#3A3847;" d="M287.959,407.941c-1.672,0-3.234-1.062-3.797-2.733c-7.273-21.731-18.686-59.172-24.074-80.262
		c-0.547-2.141,0.742-4.32,2.881-4.867c2.141-0.555,4.32,0.742,4.867,2.883c5.352,20.927,16.686,58.108,23.918,79.715
		c0.703,2.094-0.438,4.359-2.531,5.062C288.801,407.878,288.381,407.941,287.959,407.941z"/>
</g>
<path style="fill:#FC6E51;" d="M367.947,507.926h-39.994c0,0-20.959-47.992-71.99-47.992s-71.99,47.992-71.99,47.992h-39.994
	c14.877-24.793,27.597-51.836,38.553-79.988h17.438h15.998h15.998h15.998h15.996h15.998h15.998h15.998h17.434
	C340.35,456.09,353.074,483.133,367.947,507.926z"/>
<g style="opacity:0.5;">
	<path style="fill:#FFFFFF;" d="M179.365,435.921c-10.222,25.277-21.923,49.563-35.386,72.005h7.999
		c13.463-22.434,25.161-46.712,35.377-71.989L179.365,435.921z"/>
</g>
<path style="fill:#656D78;" d="M216.77,315.954c1.277-5.358,2.48-10.718,3.598-15.997h71.191c1.117,5.279,2.32,10.639,3.602,15.997
	h-23.199h-15.999h-15.998H216.77z"/>
<g style="opacity:0.2;">
	<path style="fill:#FFFFFF;" d="M220.367,299.957c-1.117,5.279-2.32,10.639-3.598,15.997h7.998
		c1.277-5.358,2.48-10.718,3.598-15.997H220.367z"/>
</g>
<path style="fill:#656D78;" d="M188.531,411.941H323.39c1.922,5.358,3.922,10.717,5.998,15.997h-17.434h-15.998h-15.998H263.96
	h-15.996h-15.998h-15.998H199.97h-17.438C184.613,422.657,186.613,417.299,188.531,411.941z"/>
<g style="opacity:0.2;">
	<path style="fill:#FFFFFF;" d="M188.531,411.941c-1.918,5.358-3.918,10.717-5.999,15.997h7.999
		c2.082-5.28,4.082-10.639,5.998-15.997H188.531z"/>
</g>
<g style="opacity:0.2;">
	<path d="M265.125,91.995l4.117,62.784c3.844,37.995,10.717,89.745,22.957,145.179h-7.998
		c-12.24-55.434-19.115-107.184-22.957-145.179l-4.117-62.792L265.125,91.995z"/>
</g>
<g style="opacity:0.2;">
	<path d="M297.77,324.086c7.139,29.113,15.732,58.882,26.262,87.854h-8c-10.545-29.012-19.152-58.835-26.309-87.987L297.77,324.086z
		"/>
</g>
<g style="opacity:0.2;">
	<path d="M333.233,435.984c10.217,25.262,21.904,49.524,35.355,71.942h-8c-13.467-22.449-25.168-46.728-35.393-72.021
		L333.233,435.984z"/>
</g>
<g style="opacity:0.2;">
	<path d="M292.199,299.957c1.117,5.279,2.32,10.639,3.602,15.997h-7.998c-1.281-5.358-2.484-10.718-3.602-15.997H292.199z"/>
</g>
<g style="opacity:0.2;">
	<path d="M324.031,411.941c1.922,5.358,3.922,10.717,5.998,15.997h-7.998c-2.078-5.28-4.078-10.639-6-15.997H324.031z"/>
</g>
<path style="fill:#656D78;" d="M263.961,51.993h-7.998h-7.998c-4.398,0-8,3.601-8,7.999v7.999v7.999c0,4.397,3.602,7.999,8,7.999
	h15.996c4.398,0,8-3.602,8-7.999v-7.999v-7.999C271.961,55.594,268.359,51.993,263.961,51.993z"/>
<g style="opacity:0.2;">
	<path style="fill:#FFFFFF;" d="M247.965,75.989V67.99v-7.999c0-4.397,3.6-7.999,7.998-7.999h-7.998c-4.398,0-8,3.601-8,7.999v7.999
		v7.999c0,4.397,3.602,7.999,8,7.999h7.998C251.565,83.988,247.965,80.387,247.965,75.989z"/>
</g>
<g style="opacity:0.2;">
	<path d="M263.961,59.991v7.999v7.999c0,4.397-3.6,7.999-7.998,7.999h7.998c4.398,0,8-3.602,8-7.999V67.99v-7.999
		c0-4.397-3.602-7.999-8-7.999h-7.998C260.361,51.993,263.961,55.594,263.961,59.991z"/>
</g>
<path style="fill:#A0D468;" d="M79.989,476.259c-11.163,0-15.998-4.647-15.998-4.647c-9.518-5.523-15.998-15.834-15.998-27.676
	c0-17.678,14.318-115.187,31.996-115.187c17.677,0,31.995,97.509,31.995,115.187c0,11.842-6.397,22.152-15.998,27.676
	C95.986,471.611,91.151,476.259,79.989,476.259z"/>
<g style="opacity:0.5;">
	<path style="fill:#FFFFFF;" d="M71.99,471.611c-9.518-5.523-15.998-15.834-15.998-27.676c0-16.326,12.209-100.642,27.996-113.483
		c-1.312-1.063-2.644-1.703-3.999-1.703c-17.677,0-31.996,97.509-31.996,115.187c0,11.842,6.479,22.152,15.998,27.676
		c0,0,4.835,4.647,15.998,4.647c1.441,0,2.765-0.078,3.999-0.211C75.669,475.134,71.99,471.611,71.99,471.611z"/>
</g>
<g style="opacity:0.2;">
	<path d="M87.987,471.611c9.518-5.523,15.998-15.834,15.998-27.676c0-16.326-12.209-100.642-27.996-113.483
		c1.312-1.063,2.644-1.703,4-1.703c17.677,0,31.995,97.509,31.995,115.187c0,11.842-6.479,22.152-15.998,27.676
		c0,0-4.835,4.647-15.998,4.647c-1.441,0-2.766-0.078-4-0.211C84.308,475.134,87.987,471.611,87.987,471.611z"/>
</g>
<path style="fill:#A0D468;" d="M431.938,476.259c-11.162,0-15.998-4.647-15.998-4.647c-9.514-5.523-15.998-15.834-15.998-27.676
	c0-17.678,14.318-115.187,31.996-115.187c17.676,0,31.994,97.509,31.994,115.187c0,11.842-6.396,22.152-15.996,27.676
	C447.936,471.611,443.1,476.259,431.938,476.259z"/>
<g style="opacity:0.5;">
	<path style="fill:#FFFFFF;" d="M423.938,471.611c-9.514-5.523-15.996-15.834-15.996-27.676c0-16.326,12.209-100.642,27.994-113.483
		c-1.311-1.063-2.639-1.703-3.998-1.703c-17.678,0-31.996,97.509-31.996,115.187c0,11.842,6.484,22.152,15.998,27.676
		c0,0,4.836,4.647,15.998,4.647c1.438,0,2.766-0.078,3.998-0.211C427.617,475.134,423.938,471.611,423.938,471.611z"/>
</g>
<g style="opacity:0.2;">
	<path d="M439.936,471.611c9.514-5.523,15.998-15.834,15.998-27.676c0-16.326-12.209-100.642-27.996-113.483
		c1.313-1.063,2.641-1.703,4-1.703c17.676,0,31.994,97.509,31.994,115.187c0,11.842-6.482,22.152-15.996,27.676
		c0,0-4.836,4.647-15.998,4.647c-1.438,0-2.766-0.078-4-0.211C436.256,475.134,439.936,471.611,439.936,471.611z"/>
</g>
<g style="opacity:0.2;">
	<path d="M333.201,435.937c-1.078-2.671-2.117-5.304-3.172-7.999h-18.074h-15.998h-15.998h-15.998h-15.996h-15.998h-15.998h-15.998
		h-17.438l-3.112,7.999H333.201z"/>
</g>
<g style="opacity:0.2;">
	<path d="M297.77,323.953c-0.656-2.664-1.344-5.352-1.969-7.999h-31.84h-2.125c0.586,2.297,1.32,5.03,2.125,7.999H297.77z"/>
</g>
<g style="opacity:0.2;">
	<path d="M247.973,323.953c0.812-2.969,1.538-5.702,2.115-7.999h-2.123H216.77c-0.629,2.647-1.344,5.335-1.996,7.999H247.973z"/>
</g>
<g>
	<path style="fill:#3A3847;" d="M143.975,511.926c-0.699,0-1.41-0.188-2.054-0.57c-1.894-1.133-2.507-3.594-1.371-5.492
		c13.912-23.184,26.781-49.891,38.256-79.379c2.07-5.249,4.058-10.576,5.959-15.888c10.522-28.949,19.717-60.194,28.113-95.564
		c1.27-5.327,2.465-10.654,3.574-15.903c10.115-45.802,17.814-94.49,22.891-144.753c3.781-37.795,4.617-62.276,4.625-62.522
		c0.074-2.207,2.059-4.003,4.129-3.863c2.205,0.07,3.936,1.918,3.861,4.128c-0.008,0.242-0.848,24.969-4.654,63.057
		c-5.113,50.575-12.861,99.575-23.033,145.639c-1.116,5.28-2.327,10.671-3.611,16.061c-8.469,35.667-17.748,67.209-28.371,96.431
		c-1.926,5.383-3.938,10.772-6.035,16.1c-11.631,29.887-24.703,57-38.845,80.582C146.659,511.238,145.335,511.926,143.975,511.926z"
		/>
	<path style="fill:#3A3847;" d="M367.947,511.926c-1.359,0-2.68-0.688-3.43-1.938c-14.146-23.582-27.215-50.695-38.846-80.598
		c-2.094-5.312-4.109-10.701-6.047-16.107c-10.607-29.198-19.887-60.74-28.355-96.407c-1.289-5.39-2.5-10.78-3.623-16.092
		c-10.164-46.032-17.912-95.033-23.029-145.604c-3.803-38.092-4.643-62.819-4.65-63.061c-0.074-2.21,1.656-4.058,3.861-4.128
		c2.172-0.289,4.055,1.652,4.133,3.863c0,0.246,0.844,24.727,4.625,62.526c5.076,50.259,12.771,98.947,22.879,144.718
		c1.117,5.28,2.313,10.607,3.586,15.935c8.389,35.37,17.59,66.615,28.105,95.541c1.904,5.335,3.889,10.662,5.959,15.896
		c11.475,29.504,24.348,56.211,38.26,79.395c1.133,1.898,0.523,4.359-1.367,5.492C369.359,511.738,368.651,511.926,367.947,511.926z
		"/>
	<path style="fill:#3A3847;" d="M255.963,295.957c-2.211,0-4-1.789-4-4V155.978c0-2.211,1.789-4,4-4s4,1.789,4,4v135.979
		C259.963,294.168,258.174,295.957,255.963,295.957z"/>
	<path style="fill:#3A3847;" d="M183.969,511.926c-0.531,0-1.073-0.109-1.597-0.336c-2.022-0.883-2.948-3.242-2.062-5.266
		c0.219-0.508,22.617-50.391,75.652-50.391c53.039,0,75.434,49.883,75.652,50.391c0.883,2.023-0.039,4.375-2.055,5.258
		c-2.029,0.891-4.381-0.031-5.271-2.047c-0.82-1.867-20.6-45.603-68.326-45.603c-47.859,0-68.127,45.134-68.326,45.595
		C186.981,511.035,185.512,511.926,183.969,511.926z"/>
	<path style="fill:#3A3847;" d="M199.971,511.926h-71.989c-2.21,0-4-1.789-4-4c0-2.21,1.789-3.999,4-3.999h71.989
		c2.211,0,4,1.789,4,3.999C203.971,510.137,202.182,511.926,199.971,511.926z"/>
	<path style="fill:#3A3847;" d="M383.943,511.926h-71.988c-2.211,0-4-1.789-4-4c0-2.21,1.789-3.999,4-3.999h71.988
		c2.211,0,4,1.789,4,3.999C387.943,510.137,386.154,511.926,383.943,511.926z"/>
	<path style="fill:#3A3847;" d="M303.955,303.956h-95.984c-2.211,0-4-1.789-4-3.999c0-2.211,1.789-4,4-4h95.984c2.211,0,4,1.789,4,4
		C307.955,302.167,306.166,303.956,303.955,303.956z"/>
	<path style="fill:#3A3847;" d="M327.953,415.94h-143.98c-2.21,0-3.998-1.789-3.998-3.999c0-2.211,1.788-4,3.998-4h143.98
		c2.209,0,3.998,1.789,3.998,4C331.951,414.151,330.162,415.94,327.953,415.94z"/>
	<path style="fill:#3A3847;" d="M295.16,319.953h-78.391c-2.211,0-4-1.788-4-3.999s1.789-3.999,4-3.999h78.391
		c2.203,0,4,1.788,4,3.999S297.363,319.953,295.16,319.953z"/>
	<path style="fill:#3A3847;" d="M263.961,87.987h-15.996c-6.617,0-11.999-5.382-11.999-11.998V59.991
		c0-6.616,5.382-11.998,11.999-11.998h15.996c6.617,0,11.998,5.382,11.998,11.998v15.998
		C275.959,82.606,270.578,87.987,263.961,87.987z M247.965,55.992c-2.207,0-4,1.792-4,3.999v15.998c0,2.207,1.793,3.999,4,3.999
		h15.996c2.203,0,4-1.792,4-3.999V59.991c0-2.207-1.797-3.999-4-3.999H247.965z"/>
	<path style="fill:#3A3847;" d="M329.389,431.938H182.532c-2.21,0-3.999-1.789-3.999-4s1.789-3.999,3.999-3.999h146.856
		c2.219,0,4,1.788,4,3.999S331.608,431.938,329.389,431.938z"/>
	<path style="fill:#3A3847;" d="M255.963,55.992c-2.211,0-4-1.789-4-4V4c0-2.211,1.789-4,4-4s4,1.789,4,4v47.993
		C259.963,54.203,258.174,55.992,255.963,55.992z"/>
	<path style="fill:#3A3847;" d="M199.971,431.938c-2.211,0-3.999-1.789-3.999-4v-3.999c0-2.211,1.788-3.999,3.999-3.999
		s4,1.788,4,3.999v3.999C203.971,430.149,202.182,431.938,199.971,431.938z"/>
	<path style="fill:#3A3847;" d="M215.969,431.938c-2.211,0-4-1.789-4-4v-3.999c0-2.211,1.789-3.999,4-3.999s4,1.788,4,3.999v3.999
		C219.969,430.149,218.18,431.938,215.969,431.938z"/>
	<path style="fill:#3A3847;" d="M231.967,431.938c-2.211,0-4-1.789-4-4v-3.999c0-2.211,1.789-3.999,4-3.999s3.999,1.788,3.999,3.999
		v3.999C235.966,430.149,234.178,431.938,231.967,431.938z"/>
	<path style="fill:#3A3847;" d="M247.965,431.938c-2.211,0-4-1.789-4-4v-3.999c0-2.211,1.789-3.999,4-3.999
		c2.209,0,3.998,1.788,3.998,3.999v3.999C251.963,430.149,250.174,431.938,247.965,431.938z"/>
	<path style="fill:#3A3847;" d="M263.961,431.938c-2.211,0-3.998-1.789-3.998-4v-3.999c0-2.211,1.787-3.999,3.998-3.999
		s4,1.788,4,3.999v3.999C267.961,430.149,266.172,431.938,263.961,431.938z"/>
	<path style="fill:#3A3847;" d="M279.959,431.938c-2.211,0-4-1.789-4-4v-3.999c0-2.211,1.789-3.999,4-3.999s4,1.788,4,3.999v3.999
		C283.959,430.149,282.17,431.938,279.959,431.938z"/>
	<path style="fill:#3A3847;" d="M295.957,431.938c-2.211,0-4-1.789-4-4v-3.999c0-2.211,1.789-3.999,4-3.999s4,1.788,4,3.999v3.999
		C299.957,430.149,298.168,431.938,295.957,431.938z"/>
	<path style="fill:#3A3847;" d="M311.955,431.938c-2.211,0-4-1.789-4-4v-3.999c0-2.211,1.789-3.999,4-3.999s3.998,1.788,3.998,3.999
		v3.999C315.953,430.149,314.166,431.938,311.955,431.938z"/>
	<path style="fill:#3A3847;" d="M239.965,319.953c-2.211,0-3.999-1.788-3.999-3.999v-3.999c0-2.211,1.788-4,3.999-4s4,1.789,4,4
		v3.999C243.965,318.165,242.176,319.953,239.965,319.953z"/>
	<path style="fill:#3A3847;" d="M255.963,319.953c-2.211,0-4-1.788-4-3.999v-3.999c0-2.211,1.789-4,4-4s4,1.789,4,4v3.999
		C259.963,318.165,258.174,319.953,255.963,319.953z"/>
	<path style="fill:#3A3847;" d="M271.961,319.953c-2.211,0-4-1.788-4-3.999v-3.999c0-2.211,1.789-4,4-4s3.998,1.789,3.998,4v3.999
		C275.959,318.165,274.172,319.953,271.961,319.953z"/>
	<path style="fill:#3A3847;" d="M279.959,71.99h-47.992c-2.211,0-4-1.789-4-4c0-2.21,1.789-3.999,4-3.999h47.992
		c2.211,0,4,1.789,4,3.999C283.959,70.201,282.17,71.99,279.959,71.99z"/>
	<path style="fill:#3A3847;" d="M431.938,511.926c-2.211,0-4-1.789-4-4v-71.989c0-2.21,1.789-3.999,4-3.999s3.998,1.789,3.998,3.999
		v71.989C435.936,510.137,434.149,511.926,431.938,511.926z"/>
	<path style="fill:#3A3847;" d="M447.936,475.61c-1.383,0-2.727-0.719-3.469-2.007c-1.102-1.914-0.438-4.359,1.477-5.461
		c8.631-4.96,13.99-14.24,13.99-24.207c0-26.59-16.67-111.188-27.996-111.188s-27.996,84.598-27.996,111.188
		c0,9.928,5.365,19.208,14.006,24.215c1.914,1.109,2.563,3.555,1.453,5.469c-1.109,1.905-3.555,2.562-5.469,1.452
		c-11.1-6.437-17.99-18.364-17.99-31.136c0-7.187,11.57-119.186,35.996-119.186s35.994,111.999,35.994,119.186
		c0,12.826-6.896,24.762-18.006,31.144C449.301,475.439,448.615,475.61,447.936,475.61z"/>
	<path style="fill:#3A3847;" d="M79.989,511.926c-2.211,0-4-1.789-4-4v-71.989c0-2.21,1.789-3.999,4-3.999
		c2.21,0,3.999,1.789,3.999,3.999v71.989C83.988,510.137,82.199,511.926,79.989,511.926z"/>
	<path style="fill:#3A3847;" d="M95.99,475.61c-1.387,0-2.73-0.719-3.472-2.007c-1.102-1.914-0.441-4.359,1.477-5.461
		c8.627-4.96,13.99-14.24,13.99-24.207c0-26.59-16.666-111.188-27.996-111.188c-11.331,0-27.996,84.598-27.996,111.188
		c0,9.928,5.366,19.208,14.006,24.215c1.91,1.109,2.562,3.555,1.453,5.469c-1.109,1.905-3.563,2.562-5.468,1.452
		c-11.096-6.437-17.99-18.364-17.99-31.136c0-7.187,11.569-119.186,35.995-119.186s35.995,111.999,35.995,119.186
		c0,12.826-6.897,24.762-18.005,31.144C97.353,475.439,96.666,475.61,95.99,475.61z"/>
</g>
<g style="opacity:0.2;">
	<polygon points="264.484,91.987 263.961,83.988 247.965,83.988 247.442,91.987 	"/>
</g>
<g>
</g>
<g>
</g>
<g>
</g>
<g>
</g>
<g>
</g>
<g>
</g>
<g>
</g>
<g>
</g>
<g>
</g>
<g>
</g>
<g>
</g>
<g>
</g>
<g>
</g>
<g>
</g>
<g>
</g>
</svg>
