<?xml version="1.0" encoding="iso-8859-1"?>
<!-- Generator: Adobe Illustrator 19.0.0, SVG Export Plug-In . SVG Version: 6.00 Build 0)  -->
<svg version="1.1" id="Capa_1" xmlns="http://www.w3.org/2000/svg" xmlns:xlink="http://www.w3.org/1999/xlink" x="0px" y="0px"
	 viewBox="0 0 511.999 511.999" style="enable-background:new 0 0 511.999 511.999;" xml:space="preserve">
<polygon style="fill:#E6E9ED;" points="329.984,507.992 169.687,507.992 196.703,66.161 356.407,75.934 "/>
<path style="fill:#CCD1D9;" d="M313.882,508.96l3.086-49.758c0.477-8.797-6.164-16.406-15.047-16.961
	c-8.672-0.555-16.156,5.984-16.891,14.602c0.234-8.609-6.297-15.969-15.031-16.523c-8.672-0.555-16.148,5.977-16.891,14.594
	c0.25-8.617-6.289-16.008-15.031-16.555c-8.672-0.555-16.148,5.984-16.891,14.594c0.25-8.625-6.289-16-15.031-16.547
	c-8.797-0.563-16.398,6.156-16.953,14.953l-3.523,57.602h32.039L313.882,508.96L313.882,508.96z"/>
<g style="opacity:0.2;">
	<path d="M209.312,436.921c-1.016-0.281-2.07-0.453-3.156-0.516c-8.797-0.563-16.398,6.156-16.953,14.953l-3.523,57.602h8
		l3.523-57.602C197.648,444.249,202.734,438.562,209.312,436.921z"/>
</g>
<g style="opacity:0.2;">
	<path d="M290.046,508.96l3.156-51.602c0.445-7.109,5.531-12.797,12.109-14.438c-1.016-0.281-2.07-0.453-3.156-0.516
		c-8.797-0.563-16.398,6.156-16.953,14.953l-3.156,51.602L290.046,508.96L290.046,508.96z"/>
</g>
<g style="opacity:0.2;">
	<path d="M257.921,508.96l3.281-53.602c0.445-7.109,5.531-12.797,12.109-14.438c-1.016-0.281-2.07-0.453-3.156-0.516
		c-8.797-0.563-16.398,6.156-16.953,14.953l-3.281,53.602L257.921,508.96L257.921,508.96z"/>
</g>
<g style="opacity:0.2;">
	<path d="M225.804,508.96l3.398-55.602c0.445-7.109,5.531-12.797,12.109-14.438c-1.016-0.281-2.07-0.453-3.156-0.516
		c-8.797-0.563-16.398,6.156-16.953,14.953l-3.398,55.602L225.804,508.96L225.804,508.96z"/>
</g>
<g>
	<path style="fill:#CCD1D9;" d="M323.515,89.966c-6.641-0.406-12.32,4.633-12.727,11.273l-2.719,43.923l24,1.438l2.641-43.915
		C335.109,96.122,330.07,90.356,323.515,89.966z"/>
	<path style="fill:#CCD1D9;" d="M227.672,84.122c-6.641-0.406-12.32,4.641-12.719,11.281l-2.719,43.923l24,1.438l2.641-43.923
		C239.351,90.2,234.312,84.52,227.672,84.122z"/>
	<path style="fill:#CCD1D9;" d="M251.593,85.638c-6.562-0.477-12.242,4.563-12.718,11.203l-2.641,43.923l23.914,1.438l2.727-43.923
		C263.273,91.716,258.234,86.044,251.593,85.638z"/>
	<path style="fill:#CCD1D9;" d="M275.593,87.075c-6.641-0.391-12.32,4.641-12.719,11.203l-2.727,43.923l24,1.516l2.641-43.915
		C287.195,93.161,282.234,87.481,275.593,87.075z"/>
	<path style="fill:#CCD1D9;" d="M299.515,88.52c-6.563-0.398-12.32,4.641-12.727,11.281l-2.641,43.915l23.922,1.445l2.719-43.923
		C311.195,94.598,306.148,88.919,299.515,88.52z"/>
</g>
<g style="opacity:0.2;">
	<path d="M220.398,139.81l2.555-44.407c0.297-4.961,3.539-9.016,7.922-10.594c-1.016-0.359-2.07-0.625-3.203-0.688
		c-6.641-0.406-12.32,4.641-12.719,11.281l-2.719,43.923L220.398,139.81z"/>
</g>
<g style="opacity:0.2;">
	<path d="M244.39,141.287l2.554-44.415c0.297-4.953,3.539-9.016,7.922-10.586c-1.016-0.352-2.07-0.617-3.203-0.695
		c-6.64-0.391-12.32,4.641-12.718,11.281l-2.719,43.923L244.39,141.287z"/>
</g>
<g style="opacity:0.2;">
	<path d="M268.382,142.763l2.555-44.407c0.297-4.961,3.539-9.016,7.922-10.594c-1.016-0.359-2.07-0.625-3.203-0.688
		c-6.641-0.406-12.32,4.641-12.719,11.281l-2.719,43.923L268.382,142.763z"/>
</g>
<g style="opacity:0.2;">
	<path d="M292.374,144.24l2.555-44.415c0.297-4.953,3.539-9.016,7.922-10.586c-1.016-0.352-2.07-0.617-3.203-0.695
		c-6.641-0.391-12.32,4.641-12.719,11.281l-2.719,43.923L292.374,144.24z"/>
</g>
<g style="opacity:0.2;">
	<path d="M316.366,145.717l2.555-44.407c0.297-4.961,3.539-9.016,7.922-10.594c-1.016-0.359-2.07-0.625-3.203-0.688
		c-6.641-0.406-12.32,4.641-12.719,11.281l-2.719,43.923L316.366,145.717z"/>
</g>
<g>
	<path style="fill:#CCD1D9;" d="M318.156,177.803c-6.641-0.398-12.32,4.633-12.727,11.273l-2.719,43.922l24,1.438l2.641-43.914
		C329.749,183.959,324.71,178.201,318.156,177.803z"/>
	<path style="fill:#CCD1D9;" d="M222.312,171.959c-6.641-0.398-12.32,4.641-12.719,11.281l-2.719,43.922l24,1.438l2.641-43.914
		C233.992,178.045,228.953,172.357,222.312,171.959z"/>
	<path style="fill:#CCD1D9;" d="M246.234,173.482c-6.562-0.484-12.242,4.563-12.718,11.203l-2.641,43.914l23.914,1.445l2.727-43.922
		C257.913,179.56,252.874,173.881,246.234,173.482z"/>
	<path style="fill:#CCD1D9;" d="M270.234,174.92c-6.641-0.398-12.32,4.641-12.719,11.203l-2.727,43.922l24,1.516l2.641-43.923
		C281.835,180.998,276.874,175.326,270.234,174.92z"/>
	<path style="fill:#CCD1D9;" d="M294.156,176.357c-6.563-0.398-12.32,4.641-12.727,11.281l-2.641,43.922l23.922,1.438l2.719-43.922
		C305.835,182.435,300.788,176.763,294.156,176.357z"/>
</g>
<g style="opacity:0.2;">
	<path d="M215.039,227.654l2.555-44.414c0.297-4.961,3.539-9.016,7.922-10.586c-1.016-0.359-2.07-0.625-3.203-0.695
		c-6.641-0.398-12.32,4.641-12.719,11.281l-2.719,43.922L215.039,227.654z"/>
</g>
<g style="opacity:0.2;">
	<path d="M239.031,229.123l2.555-44.406c0.297-4.953,3.539-9.016,7.921-10.594c-1.016-0.352-2.07-0.617-3.203-0.688
		c-6.64-0.398-12.32,4.641-12.718,11.281l-2.719,43.922L239.031,229.123z"/>
</g>
<g style="opacity:0.2;">
	<path d="M263.023,230.607l2.555-44.414c0.297-4.961,3.539-9.016,7.922-10.586c-1.016-0.359-2.07-0.625-3.203-0.695
		c-6.641-0.398-12.32,4.641-12.719,11.281l-2.719,43.922L263.023,230.607z"/>
</g>
<g style="opacity:0.2;">
	<path d="M287.015,232.076l2.555-44.406c0.297-4.953,3.539-9.016,7.922-10.594c-1.016-0.352-2.07-0.617-3.203-0.688
		c-6.641-0.398-12.32,4.641-12.719,11.281l-2.719,43.922L287.015,232.076z"/>
</g>
<g style="opacity:0.2;">
	<path d="M311.007,233.56l2.555-44.414c0.297-4.961,3.539-9.016,7.922-10.586c-1.016-0.359-2.07-0.625-3.203-0.695
		c-6.641-0.398-12.32,4.641-12.719,11.281l-2.719,43.922L311.007,233.56z"/>
</g>
<g>
	<path style="fill:#CCD1D9;" d="M312.796,265.169c-6.641-0.406-12.32,4.641-12.727,11.281l-2.719,43.924l24,1.438l2.641-43.924
		C324.39,271.326,319.351,265.568,312.796,265.169z"/>
	<path style="fill:#CCD1D9;" d="M216.953,259.326c-6.641-0.398-12.32,4.641-12.719,11.281l-2.719,43.924l24,1.438l2.641-43.924
		C228.633,265.404,223.594,259.732,216.953,259.326z"/>
	<path style="fill:#CCD1D9;" d="M240.875,260.849c-6.563-0.477-12.242,4.555-12.719,11.195l-2.641,43.924l23.914,1.438l2.727-43.924
		C252.554,266.927,247.515,261.247,240.875,260.849z"/>
	<path style="fill:#CCD1D9;" d="M264.874,262.286c-6.641-0.398-12.32,4.641-12.719,11.195l-2.727,43.924l24,1.523l2.641-43.916
		C276.476,268.372,271.515,262.685,264.874,262.286z"/>
	<path style="fill:#CCD1D9;" d="M288.796,263.732c-6.563-0.406-12.32,4.641-12.727,11.281l-2.641,43.916l23.922,1.445l2.719-43.924
		C300.476,269.81,295.429,264.122,288.796,263.732z"/>
</g>
<g style="opacity:0.2;">
	<path d="M209.679,315.015l2.555-44.408c0.297-4.953,3.539-9.016,7.922-10.594c-1.016-0.352-2.07-0.617-3.203-0.688
		c-6.641-0.398-12.32,4.641-12.719,11.281l-2.719,43.924L209.679,315.015z"/>
</g>
<g style="opacity:0.2;">
	<path d="M233.672,316.499l2.555-44.416c0.297-4.961,3.539-9.016,7.922-10.586c-1.016-0.359-2.07-0.625-3.203-0.695
		c-6.641-0.398-12.32,4.641-12.719,11.281l-2.719,43.924L233.672,316.499z"/>
</g>
<g style="opacity:0.2;">
	<path d="M257.663,317.968l2.555-44.408c0.297-4.953,3.539-9.016,7.922-10.594c-1.016-0.352-2.07-0.617-3.203-0.688
		c-6.641-0.398-12.32,4.641-12.719,11.281l-2.719,43.924L257.663,317.968z"/>
</g>
<g style="opacity:0.2;">
	<path d="M281.656,319.452l2.555-44.416c0.297-4.961,3.539-9.016,7.922-10.586c-1.016-0.359-2.07-0.625-3.203-0.695
		c-6.641-0.398-12.32,4.641-12.719,11.281l-2.719,43.924L281.656,319.452z"/>
</g>
<g style="opacity:0.2;">
	<path d="M305.648,320.921l2.555-44.408c0.297-4.953,3.539-9.016,7.922-10.594c-1.016-0.352-2.07-0.617-3.203-0.688
		c-6.641-0.398-12.32,4.641-12.719,11.281l-2.719,43.924L305.648,320.921z"/>
</g>
<g>
	<path style="fill:#CCD1D9;" d="M307.437,352.781c-6.641-0.406-12.32,4.633-12.727,11.273l-2.719,43.922l24,1.438l2.641-43.914
		C319.031,358.937,313.991,353.171,307.437,352.781z"/>
	<path style="fill:#CCD1D9;" d="M211.594,346.937c-6.641-0.406-12.32,4.641-12.719,11.281l-2.719,43.922l24,1.438l2.641-43.922
		C223.273,353.015,218.234,347.335,211.594,346.937z"/>
	<path style="fill:#CCD1D9;" d="M235.515,348.452c-6.563-0.477-12.242,4.563-12.719,11.203l-2.641,43.922l23.914,1.438l2.726-43.922
		C247.195,354.531,242.156,348.859,235.515,348.452z"/>
	<path style="fill:#CCD1D9;" d="M259.515,349.89c-6.641-0.391-12.32,4.641-12.719,11.203l-2.726,43.922l24,1.516l2.641-43.914
		C271.116,355.976,266.156,350.296,259.515,349.89z"/>
	<path style="fill:#CCD1D9;" d="M283.437,351.335c-6.563-0.398-12.32,4.641-12.727,11.281l-2.641,43.914l23.922,1.445l2.719-43.922
		C295.116,357.413,290.07,351.734,283.437,351.335z"/>
</g>
<g style="opacity:0.2;">
	<path d="M204.32,402.624l2.555-44.406c0.297-4.961,3.539-9.016,7.922-10.594c-1.016-0.359-2.07-0.625-3.203-0.688
		c-6.641-0.406-12.32,4.641-12.719,11.281l-2.719,43.922L204.32,402.624z"/>
</g>
<g style="opacity:0.2;">
	<path d="M228.312,404.101l2.555-44.414c0.297-4.953,3.539-9.016,7.922-10.586c-1.016-0.352-2.07-0.617-3.203-0.695
		c-6.641-0.391-12.32,4.641-12.719,11.281l-2.719,43.922L228.312,404.101z"/>
</g>
<g style="opacity:0.2;">
	<path d="M252.304,405.577l2.555-44.406c0.297-4.961,3.539-9.016,7.922-10.594c-1.016-0.359-2.07-0.625-3.203-0.688
		c-6.641-0.406-12.32,4.641-12.719,11.281l-2.718,43.922L252.304,405.577z"/>
</g>
<g style="opacity:0.2;">
	<path d="M276.296,407.054l2.555-44.414c0.297-4.953,3.539-9.016,7.922-10.586c-1.016-0.352-2.07-0.617-3.203-0.695
		c-6.641-0.391-12.32,4.641-12.719,11.281l-2.719,43.922L276.296,407.054z"/>
</g>
<g style="opacity:0.2;">
	<path d="M300.288,408.531l2.555-44.406c0.297-4.961,3.539-9.016,7.922-10.594c-1.016-0.359-2.07-0.625-3.203-0.688
		c-6.641-0.406-12.32,4.641-12.719,11.281l-2.719,43.922L300.288,408.531z"/>
</g>
<path style="fill:#A0D468;" d="M115.999,459.999c0,13.25-10.742,24-24,24s-24-10.75-24-24s10.742-72,24-72
	S115.999,446.749,115.999,459.999z"/>
<g style="opacity:0.5;">
	<path style="fill:#FFFFFF;" d="M75.999,459.999c0-11.891,8.648-60.25,20-70.109c-1.305-1.141-2.633-1.891-4-1.891
		c-13.258,0-24,58.75-24,72s10.742,24,24,24c1.367,0,2.695-0.188,4-0.406C84.655,481.687,75.999,471.882,75.999,459.999z"/>
</g>
<g style="opacity:0.2;">
	<path d="M107.999,459.999c0-11.891-8.648-60.25-20-70.109c1.305-1.141,2.633-1.891,4-1.891c13.258,0,24,58.75,24,72
		s-10.742,24-24,24c-1.367,0-2.695-0.188-4-0.406C99.343,481.687,107.999,471.882,107.999,459.999z"/>
</g>
<path style="fill:#A0D468;" d="M443.47,459.999c0,13.25-10.742,24-24,24s-24-10.75-24-24s10.742-72,24-72
	S443.47,446.749,443.47,459.999z"/>
<g style="opacity:0.5;">
	<path style="fill:#FFFFFF;" d="M403.47,459.999c0-11.891,8.648-60.25,20-70.109c-1.305-1.141-2.633-1.891-4-1.891
		c-13.258,0-24,58.75-24,72s10.742,24,24,24c1.367,0,2.695-0.188,4-0.406C412.126,481.687,403.47,471.882,403.47,459.999z"/>
</g>
<g style="opacity:0.2;">
	<path d="M436.001,459.999c0-11.891-8.648-60.25-20-70.109c1.305-1.141,2.633-1.891,4-1.891c13.258,0,24,58.75,24,72
		s-10.742,24-24,24c-1.367,0-2.695-0.188-4-0.406C427.345,481.687,436.001,471.882,436.001,459.999z"/>
</g>
<polygon style="fill:#CCD1D9;" points="324.491,73.966 228.734,68.122 232.562,4.231 328.398,10.075 "/>
<g style="opacity:0.3;">
	<polygon points="229.242,59.7 228.734,68.122 324.491,73.966 325.007,65.544 	"/>
</g>
<g style="opacity:0.3;">
	<polygon points="317.038,65.059 325.007,65.544 328.398,10.075 232.562,4.231 232.531,4.715 320.398,10.075 	"/>
</g>
<g style="opacity:0.7;">
	<polygon style="fill:#FFFFFF;" points="237.211,60.184 240.531,4.715 232.562,4.231 228.734,68.122 229.242,59.7 	"/>
	<polygon style="fill:#FFFFFF;" points="324.491,73.966 324.523,73.481 324.523,73.481 	"/>
</g>
<g style="opacity:0.2;">
	<polygon points="348.407,75.934 321.984,507.992 329.984,507.992 356.407,75.934 	"/>
</g>
<polygon style="fill:#FFFFFF;" points="196.703,66.161 169.687,507.992 177.687,507.992 204.672,66.653 "/>
<g>
	<path style="fill:#3A3847;" d="M301.273,461.265c-2.211,0-4.039-1.789-4.039-4s1.75-4,3.953-4h0.086c2.203,0,4,1.789,4,4
		S303.476,461.265,301.273,461.265z"/>
	<path style="fill:#3A3847;" d="M269.327,459.312c-2.211,0-4.039-1.789-4.039-4s1.75-4,3.953-4h0.086c2.203,0,4,1.789,4,4
		S271.531,459.312,269.327,459.312z"/>
	<path style="fill:#3A3847;" d="M237.383,457.359c-2.211,0-4.039-1.789-4.039-4s1.75-4,3.953-4h0.086c2.203,0,4,1.789,4,4
		S239.586,457.359,237.383,457.359z"/>
	<path style="fill:#3A3847;" d="M205.445,455.406c-2.211,0-4.039-1.789-4.039-4s1.75-4,3.953-4h0.086c2.203,0,4,1.789,4,4
		S207.648,455.406,205.445,455.406z"/>
	<path style="fill:#3A3847;" d="M420.001,511.999c-2.211,0-4-1.789-4-4v-56c0-2.211,1.789-4,4-4s4,1.789,4,4v56
		C424.001,510.21,422.212,511.999,420.001,511.999z"/>
	<path style="fill:#3A3847;" d="M436.001,481.89c-1.094,0-2.188-0.453-2.977-1.328c-1.477-1.648-1.336-4.172,0.305-5.648
		c4.242-3.805,6.672-9.242,6.672-14.914c0-18.328-12.398-68-20-68s-20,49.672-20,68c0,5.688,2.422,11.125,6.656,14.914
		c1.641,1.477,1.781,4,0.305,5.648s-4,1.781-5.648,0.305c-5.914-5.305-9.313-12.914-9.313-20.867c0-8.813,8.977-76,28-76
		c18.656,0,28,67.539,28,76c0,7.945-3.398,15.555-9.328,20.867C437.907,481.554,436.954,481.89,436.001,481.89z"/>
	<path style="fill:#3A3847;" d="M91.999,511.999c-2.211,0-4-1.789-4-4v-56c0-2.211,1.789-4,4-4s4,1.789,4,4v56
		C95.999,510.21,94.21,511.999,91.999,511.999z"/>
	<path style="fill:#3A3847;" d="M107.999,481.89c-1.094,0-2.188-0.453-2.977-1.328c-1.477-1.648-1.336-4.172,0.305-5.648
		c4.242-3.805,6.672-9.242,6.672-14.914c0-18.328-12.398-68-20-68s-20,49.672-20,68c0,5.688,2.422,11.125,6.656,14.914
		c1.641,1.477,1.781,4,0.305,5.648s-4,1.781-5.648,0.305c-5.914-5.305-9.313-12.914-9.313-20.867c0-8.813,8.977-76,28-76
		c18.656,0,28,67.539,28,76c0,7.945-3.398,15.555-9.328,20.867C109.905,481.554,108.952,481.89,107.999,481.89z"/>
</g>
<g>
	<path style="fill:#656D78;" d="M255.562,21.45c-4.406-0.242-8.164,3.117-8.484,7.516l-0.96,15.922l16,1.039l0.961-16
		C263.32,25.528,259.96,21.684,255.562,21.45z"/>
	<path style="fill:#656D78;" d="M303.476,24.403c-4.398-0.313-8.234,3.047-8.477,7.438l-0.961,16l16,0.969l0.961-16
		C311.241,28.403,307.882,24.645,303.476,24.403z"/>
</g>
<g>
	<path style="fill:#3A3847;" d="M169.679,511.999c-0.078,0-0.164,0-0.242-0.008c-2.203-0.133-3.883-2.031-3.75-4.234l27.039-441.838
		c0.141-2.211,2.039-3.898,4.234-3.75c2.203,0.125,3.883,2.031,3.75,4.234l-27.039,441.838
		C173.539,510.367,171.781,511.999,169.679,511.999z"/>
	<path style="fill:#3A3847;" d="M329.999,511.999c-0.078,0-0.164,0-0.242-0.008c-2.211-0.133-3.883-2.031-3.75-4.242l26.4-432.073
		c0.141-2.203,2.023-3.852,4.234-3.75c2.203,0.133,3.883,2.031,3.75,4.234l-26.4,432.088
		C333.859,510.367,332.101,511.999,329.999,511.999z"/>
	<path style="fill:#3A3847;" d="M338.96,431.515c-0.078,0-0.156,0-0.234,0l-167.757-10.242c-2.211-0.133-3.891-2.023-3.758-4.227
		c0.133-2.211,2.055-3.875,4.227-3.758l167.757,10.242c2.211,0.125,3.891,2.016,3.758,4.227
		C342.827,429.882,341.062,431.515,338.96,431.515z"/>
	<path style="fill:#3A3847;" d="M344.32,343.679c-0.078,0-0.156-0.008-0.234-0.008l-167.758-10.234
		c-2.211-0.133-3.891-2.031-3.758-4.234s2.031-3.875,4.227-3.75l167.757,10.234c2.213,0.125,3.893,2.023,3.76,4.234
		C348.189,342.046,346.423,343.679,344.32,343.679z"/>
	<path style="fill:#3A3847;" d="M185.679,511.999c-0.078,0-0.164,0-0.242-0.008c-2.211-0.133-3.883-2.031-3.75-4.242l3.523-57.594
		c0.336-5.328,2.727-10.203,6.734-13.75c4.008-3.531,9.094-5.281,14.469-4.953c10.945,0.688,19.375,10.18,18.781,21.156
		l-3.445,55.641c-0.141,2.195-1.813,3.875-4.242,3.742c-2.203-0.133-3.883-2.039-3.742-4.242l3.445-55.594
		c0.359-6.594-4.711-12.313-11.305-12.719c-3.203-0.219-6.266,0.852-8.672,2.969c-2.406,2.125-3.836,5.047-4.039,8.242
		l-3.523,57.602C189.539,510.367,187.781,511.999,185.679,511.999z"/>
	<path style="fill:#3A3847;" d="M249.843,511.999c-0.078,0-0.164,0-0.242-0.008c-2.211-0.133-3.882-2.031-3.75-4.242l3.273-53.672
		c0.203-3.203-0.852-6.281-2.976-8.68c-2.117-2.406-5.047-3.844-8.25-4.047c-6.539-0.336-12.344,4.695-12.703,11.258
		c-0.125,2.203-1.781,3.922-4.211,3.781c-2.203-0.117-3.898-2-3.773-4.203c0.594-10.984,10.016-19.484,21.164-18.82
		c5.359,0.336,10.242,2.734,13.773,6.734c3.539,4.008,5.305,9.148,4.961,14.477l-3.273,53.672
		C253.702,510.367,251.945,511.999,249.843,511.999z"/>
	<path style="fill:#3A3847;" d="M281.921,511.999c-0.078,0-0.156,0-0.242-0.008c-2.203-0.133-3.883-2.023-3.75-4.234l3.117-51.68
		c0.414-6.602-4.617-12.305-11.227-12.727c-6.547-0.461-12.289,4.617-12.711,11.227c-0.141,2.203-2.047,3.828-4.25,3.734
		c-2.203-0.141-3.875-2.047-3.734-4.25c0.711-11,10.336-19.422,21.203-18.695c11.008,0.703,19.398,10.211,18.703,21.211
		l-3.117,51.664C285.788,510.359,284.023,511.999,281.921,511.999z"/>
	<path style="fill:#3A3847;" d="M313.921,511.999c-0.078,0-0.164,0-0.242-0.008c-2.211-0.133-3.883-2.031-3.75-4.242l3.039-49.75
		c0.203-3.203-0.852-6.281-2.977-8.688c-2.125-2.398-5.055-3.836-8.242-4.039c-3.273-0.227-6.266,0.852-8.664,2.977
		c-2.414,2.141-3.852,5.094-4.055,8.328c-0.133,2.195-1.852,3.859-4.242,3.734c-2.211-0.141-3.883-2.039-3.742-4.25
		c0.336-5.344,2.727-10.25,6.734-13.797s9.086-5.313,14.477-4.977c5.32,0.336,10.195,2.727,13.734,6.734s5.305,9.148,4.961,14.469
		l-3.039,49.758C317.781,510.367,316.023,511.999,313.921,511.999z"/>
	<path style="fill:#3A3847;" d="M192.719,462.64c-0.078,0-0.156,0-0.242-0.008l-7.992-0.477c-2.211-0.133-3.891-2.031-3.758-4.234
		s2.055-3.883,4.227-3.75l8.008,0.477c2.203,0.133,3.883,2.023,3.75,4.234C196.586,460.999,194.82,462.64,192.719,462.64z"/>
	<path style="fill:#3A3847;" d="M224.64,464.64c-0.078,0-0.164,0-0.25-0.008l-7.906-0.477c-2.211-0.133-3.891-2.031-3.758-4.234
		c0.125-2.203,1.984-3.922,4.227-3.75l7.938,0.477c2.203,0.133,3.875,2.039,3.742,4.242C228.5,463.007,226.742,464.64,224.64,464.64
		z"/>
	<path style="fill:#3A3847;" d="M256.64,466.562c-0.078,0-0.156-0.008-0.234-0.016l-8.008-0.477
		c-2.203-0.133-3.882-2.023-3.75-4.234c0.125-2.203,1.773-3.875,4.234-3.75l7.992,0.477c2.211,0.133,3.891,2.031,3.758,4.234
		C260.507,464.921,258.741,466.562,256.64,466.562z"/>
	<path style="fill:#3A3847;" d="M288.562,468.484c-0.078,0-0.156-0.008-0.242-0.016l-7.992-0.477
		c-2.211-0.133-3.891-2.023-3.758-4.227c0.125-2.203,2.008-3.844,4.227-3.758l8.008,0.477c2.203,0.141,3.883,2.031,3.75,4.234
		C292.429,466.843,290.663,468.484,288.562,468.484z"/>
	<path style="fill:#3A3847;" d="M320.476,470.484c-0.078,0-0.156-0.008-0.242-0.016l-7.992-0.477
		c-2.211-0.133-3.891-2.023-3.758-4.227c0.133-2.211,2.023-3.875,4.227-3.758l8.008,0.477c2.203,0.141,3.883,2.031,3.75,4.234
		C324.343,468.843,322.577,470.484,320.476,470.484z"/>
	<path style="fill:#3A3847;" d="M196.156,406.718c-0.078,0-0.164,0-0.25-0.008c-2.203-0.133-3.883-2.039-3.742-4.242l2.727-43.828
		c0.258-4.289,2.164-8.219,5.375-11.063c3.188-2.82,7.281-4.25,11.5-3.969c4.281,0.258,8.195,2.164,11.031,5.367
		c2.836,3.195,4.258,7.313,3.992,11.586c-0.141,2.203-2.055,3.891-4.234,3.75c-2.211-0.133-3.883-2.031-3.75-4.234
		c0.133-2.141-0.578-4.203-1.992-5.797c-1.422-1.609-3.383-2.563-5.531-2.688c-2.18-0.141-4.133,0.578-5.711,1.977
		c-1.609,1.43-2.563,3.398-2.695,5.547l-2.727,43.852C200.015,405.093,198.258,406.718,196.156,406.718z"/>
	<path style="fill:#3A3847;" d="M220.078,408.234c-0.078,0-0.164,0-0.25,0c-2.203-0.141-3.883-2.047-3.742-4.25l2.719-43.906
		c0.539-8.813,8.063-15.523,16.961-15.031c4.273,0.258,8.18,2.18,11,5.406c2.805,3.203,4.203,7.313,3.945,11.547
		c-0.125,2.203-1.891,3.875-4.234,3.75c-2.203-0.125-3.882-2.031-3.75-4.234c0.125-2.125-0.578-4.188-1.977-5.797
		c-1.406-1.602-3.352-2.563-5.469-2.688c-4.406-0.234-8.227,3.109-8.492,7.531l-2.719,43.922
		C223.937,406.609,222.179,408.234,220.078,408.234z"/>
	<path style="fill:#3A3847;" d="M244.078,409.679c-0.078,0-0.156-0.008-0.242-0.008c-2.203-0.133-3.883-2.031-3.75-4.234
		l2.641-43.914c0.258-4.242,2.18-8.148,5.406-10.977c3.211-2.828,7.328-4.266,11.547-3.984c8.82,0.539,15.563,8.141,15.031,16.953
		c-0.133,2.211-1.805,3.875-4.234,3.758c-2.203-0.133-3.883-2.023-3.75-4.227c0.266-4.422-3.117-8.227-7.531-8.5
		c-2.172-0.094-4.172,0.594-5.789,2.008c-1.609,1.414-2.57,3.352-2.695,5.445l-2.641,43.922
		C247.945,408.046,246.179,409.679,244.078,409.679z"/>
	<path style="fill:#3A3847;" d="M267.999,411.124c-0.078,0-0.164-0.008-0.25-0.016c-2.203-0.133-3.883-2.031-3.742-4.234
		l2.719-43.836c0.258-4.273,2.156-8.195,5.359-11.031c3.188-2.836,7.25-4.258,11.594-4c8.773,0.531,15.484,8.133,14.953,16.945
		c-0.133,2.203-1.859,3.859-4.234,3.758c-2.203-0.133-3.883-2.023-3.75-4.227c0.266-4.422-3.078-8.227-7.453-8.492
		c-2.148-0.086-4.203,0.586-5.805,2c-1.602,1.422-2.547,3.383-2.68,5.523l-2.719,43.859
		C271.859,409.492,270.101,411.124,267.999,411.124z"/>
	<path style="fill:#3A3847;" d="M315.921,414.077c-0.078,0-0.164,0-0.25-0.008c-2.203-0.133-3.883-2.039-3.742-4.242l2.719-43.906
		c0.125-2.125-0.586-4.172-2.008-5.781c-1.43-1.617-3.391-2.578-5.523-2.703c-2.078-0.094-4.18,0.578-5.789,2.008
		s-2.57,3.383-2.695,5.508l-2.641,43.93c-0.133,2.195-1.836,3.852-4.234,3.75c-2.203-0.133-3.883-2.023-3.75-4.234l2.641-43.914
		c0.258-4.266,2.164-8.188,5.375-11.031c3.219-2.844,7.461-4.25,11.578-4c4.273,0.25,8.188,2.172,11.039,5.391
		c2.828,3.203,4.25,7.313,3.992,11.563l-2.719,43.922C319.781,412.452,318.023,414.077,315.921,414.077z"/>
	<path style="fill:#3A3847;" d="M202.078,375.038c-0.078,0-0.156-0.008-0.242-0.008l-7.992-0.484
		c-2.211-0.125-3.891-2.016-3.758-4.227s2.063-3.906,4.227-3.758l8.008,0.484c2.203,0.133,3.883,2.031,3.75,4.234
		C205.945,373.406,204.179,375.038,202.078,375.038z"/>
	<path style="fill:#3A3847;" d="M226.078,376.562c-0.078,0-0.156-0.008-0.234-0.016l-8.008-0.477
		c-2.203-0.133-3.883-2.023-3.75-4.234c0.133-2.203,1.82-3.898,4.234-3.75l7.992,0.477c2.211,0.133,3.891,2.031,3.758,4.234
		C229.945,374.921,228.179,376.562,226.078,376.562z"/>
	<path style="fill:#3A3847;" d="M249.999,377.999c-0.078,0-0.156,0-0.234-0.008l-8.007-0.477c-2.203-0.141-3.883-2.031-3.75-4.234
		c0.125-2.203,1.766-3.922,4.234-3.75l7.992,0.477c2.211,0.133,3.891,2.023,3.758,4.227
		C253.866,376.359,252.101,377.999,249.999,377.999z"/>
	<path style="fill:#3A3847;" d="M273.999,379.437c-0.078,0-0.156,0-0.242,0l-7.992-0.484c-2.211-0.125-3.891-2.023-3.758-4.234
		c0.133-2.203,2.07-3.836,4.227-3.75l8.008,0.484c2.203,0.125,3.883,2.023,3.75,4.234
		C277.866,377.804,276.101,379.437,273.999,379.437z"/>
	<path style="fill:#3A3847;" d="M297.921,380.96c-0.078,0-0.156-0.008-0.242-0.008l-8.078-0.563
		c-2.203-0.18-3.844-2.109-3.664-4.313c0.172-2.203,2.125-3.828,4.305-3.672l7.922,0.563c2.203,0.133,3.883,2.031,3.75,4.234
		C301.788,379.327,300.023,380.96,297.921,380.96z"/>
	<path style="fill:#3A3847;" d="M321.921,382.398c-0.078,0-0.156-0.008-0.234-0.008l-8-0.477c-2.211-0.133-3.891-2.023-3.758-4.227
		c0.125-2.203,1.992-3.859,4.227-3.758l8,0.477c2.211,0.125,3.891,2.023,3.758,4.234
		C325.788,380.765,324.023,382.398,321.921,382.398z"/>
	<path style="fill:#3A3847;" d="M349.681,255.842c-0.078,0-0.156-0.008-0.234-0.016l-167.681-10.234
		c-2.211-0.125-3.891-2.023-3.758-4.234c0.133-2.203,2.047-3.875,4.227-3.75l167.681,10.234c2.211,0.133,3.891,2.031,3.758,4.234
		C353.548,254.201,351.782,255.842,349.681,255.842z"/>
	<path style="fill:#3A3847;" d="M201.523,318.96c-0.078,0-0.164-0.008-0.25-0.008c-2.203-0.141-3.883-2.031-3.742-4.242
		l2.719-43.916c0.258-4.281,2.156-8.195,5.359-11.031c3.195-2.836,7.242-4.257,11.594-4c4.25,0.266,8.141,2.171,10.969,5.367
		c2.828,3.203,4.234,7.32,3.977,11.594c-0.141,2.195-2.07,3.883-4.234,3.742c-2.211-0.125-3.883-2.031-3.75-4.234
		c0.133-2.141-0.578-4.203-1.992-5.813c-1.406-1.594-3.344-2.539-5.453-2.672c-2.086-0.094-4.203,0.594-5.805,2
		c-1.602,1.422-2.547,3.383-2.68,5.531l-2.719,43.932C205.383,317.327,203.625,318.96,201.523,318.96z"/>
	<path style="fill:#3A3847;" d="M225.523,320.398c-0.078,0-0.156-0.008-0.242-0.008c-2.203-0.133-3.883-2.031-3.75-4.234
		l2.633-43.916c0.531-8.82,8.016-15.617,16.961-15.039c4.266,0.266,8.179,2.172,11.023,5.391c2.844,3.211,4.266,7.32,4,11.578
		c-0.141,2.203-2.078,3.82-4.242,3.742c-2.203-0.133-3.875-2.039-3.742-4.242c0.133-2.117-0.578-4.172-2.007-5.781
		c-1.422-1.609-3.383-2.57-5.516-2.703c-4.359-0.258-8.227,3.109-8.492,7.539l-2.633,43.916
		C229.39,318.765,227.625,320.398,225.523,320.398z"/>
	<path style="fill:#3A3847;" d="M249.437,321.843c-0.078,0-0.164-0.008-0.25-0.016c-2.203-0.133-3.882-2.031-3.742-4.234
		l2.718-43.908c0.539-8.797,8.172-15.492,16.875-14.961c8.82,0.539,15.563,8.141,15.031,16.953c-0.133,2.211-1.82,3.875-4.234,3.758
		c-2.203-0.141-3.883-2.031-3.75-4.234c0.266-4.414-3.117-8.219-7.531-8.492c-4.406-0.211-8.141,3.07-8.406,7.461l-2.719,43.924
		C253.296,320.21,251.538,321.843,249.437,321.843z"/>
	<path style="fill:#3A3847;" d="M273.359,323.359c-0.078,0-0.164,0-0.25-0.008c-2.203-0.133-3.883-2.039-3.742-4.242l2.719-43.908
		c0.258-4.281,2.156-8.203,5.359-11.031c3.188-2.844,7.359-4.266,11.594-4c4.281,0.25,8.188,2.156,11.008,5.367
		c2.797,3.195,4.203,7.305,3.945,11.578c-0.133,2.203-1.875,3.852-4.234,3.758c-2.203-0.141-3.883-2.031-3.75-4.234
		c0.125-2.156-0.57-4.227-1.977-5.82c-1.398-1.594-3.344-2.539-5.477-2.664c-2.125-0.109-4.203,0.578-5.805,2
		s-2.547,3.375-2.68,5.523l-2.719,43.932C277.218,321.734,275.46,323.359,273.359,323.359z"/>
	<path style="fill:#3A3847;" d="M321.281,326.234c-0.078,0-0.164,0-0.25,0c-2.203-0.141-3.883-2.047-3.742-4.25l2.719-43.908
		c0.125-2.141-0.586-4.203-2-5.805c-1.422-1.602-3.383-2.555-5.531-2.68c-2.063-0.094-4.18,0.586-5.789,2.016
		c-1.609,1.422-2.57,3.375-2.695,5.508l-2.641,43.932c-0.133,2.195-1.852,3.844-4.234,3.75c-2.203-0.141-3.883-2.031-3.75-4.234
		l2.639-43.925c0.258-4.266,2.164-8.18,5.375-11.023c3.219-2.852,7.469-4.25,11.578-4.008c4.273,0.258,8.195,2.156,11.031,5.359
		c2.836,3.195,4.258,7.313,4,11.594l-2.719,43.924C325.14,324.609,323.382,326.234,321.281,326.234z"/>
	<path style="fill:#3A3847;" d="M207.437,287.201c-0.078,0-0.164-0.008-0.242-0.016l-7.914-0.477
		c-2.203-0.133-3.883-2.023-3.75-4.234c0.133-2.203,1.852-3.898,4.234-3.75l7.914,0.477c2.203,0.141,3.883,2.031,3.75,4.234
		C211.304,285.56,209.539,287.201,207.437,287.201z"/>
	<path style="fill:#3A3847;" d="M231.437,288.716c-0.078,0-0.156,0-0.234-0.008l-8.008-0.477c-2.203-0.141-3.883-2.031-3.75-4.234
		s1.805-3.906,4.234-3.75l7.992,0.477c2.211,0.133,3.891,2.023,3.758,4.227C235.304,287.076,233.539,288.716,231.437,288.716z"/>
	<path style="fill:#3A3847;" d="M255.359,290.154c-0.078,0-0.156,0-0.242,0l-7.992-0.484c-2.21-0.125-3.89-2.023-3.757-4.234
		c0.133-2.203,2.078-3.922,4.226-3.75l8.008,0.484c2.203,0.125,3.883,2.031,3.75,4.234
		C259.226,288.521,257.46,290.154,255.359,290.154z"/>
	<path style="fill:#3A3847;" d="M279.359,291.599c-0.078,0-0.156-0.008-0.242-0.008l-7.992-0.484
		c-2.211-0.125-3.891-2.016-3.758-4.227c0.133-2.203,2.055-3.836,4.227-3.758l8.008,0.484c2.203,0.133,3.883,2.031,3.75,4.234
		C283.226,289.966,281.46,291.599,279.359,291.599z"/>
	<path style="fill:#3A3847;" d="M303.281,293.122c-0.078,0-0.156-0.008-0.242-0.016l-7.992-0.477
		c-2.211-0.133-3.891-2.023-3.758-4.227c0.125-2.203,2-3.844,4.227-3.758l8.008,0.477c2.203,0.141,3.883,2.031,3.75,4.234
		C307.148,291.482,305.382,293.122,303.281,293.122z"/>
	<path style="fill:#3A3847;" d="M327.281,294.56c-0.078,0-0.156-0.008-0.234-0.016l-8.008-0.477
		c-2.203-0.133-3.883-2.023-3.75-4.234c0.125-2.195,1.867-3.852,4.234-3.75l7.992,0.477c2.211,0.133,3.891,2.031,3.758,4.234
		C331.148,292.919,329.382,294.56,327.281,294.56z"/>
	<path style="fill:#3A3847;" d="M355.04,167.998c-0.078,0-0.156,0-0.234-0.008l-167.681-10.242
		c-2.211-0.125-3.891-2.016-3.758-4.227s2.023-3.883,4.227-3.758l167.681,10.242c2.211,0.133,3.891,2.023,3.758,4.227
		C358.907,166.357,357.142,167.998,355.04,167.998z"/>
	<path style="fill:#3A3847;" d="M206.883,231.123c-0.078,0-0.164-0.008-0.25-0.016c-2.203-0.133-3.883-2.031-3.742-4.234
		l2.719-43.922c0.258-4.273,2.156-8.188,5.359-11.031c3.188-2.828,7.25-4.25,11.594-3.992c8.773,0.531,15.484,8.133,14.953,16.945
		c-0.133,2.203-1.883,3.891-4.234,3.758c-2.203-0.133-3.883-2.023-3.75-4.227c0.266-4.422-3.078-8.227-7.453-8.492
		c-2.133-0.086-4.203,0.586-5.805,2s-2.547,3.383-2.68,5.523l-2.719,43.938C210.742,229.49,208.984,231.123,206.883,231.123z"/>
	<path style="fill:#3A3847;" d="M230.883,232.56c-0.078,0-0.156-0.008-0.242-0.016c-2.203-0.125-3.883-2.023-3.75-4.227
		l2.641-43.922c0.258-4.273,2.172-8.195,5.391-11.039c3.211-2.836,7.344-4.25,11.562-3.992c4.273,0.258,8.195,2.18,11.039,5.398
		c2.828,3.203,4.25,7.313,3.992,11.555c-0.125,2.203-1.906,3.867-4.234,3.75c-2.203-0.133-3.883-2.031-3.75-4.234
		c0.125-2.117-0.586-4.164-2.008-5.773c-1.43-1.625-3.391-2.578-5.523-2.711c-2.164-0.055-4.172,0.594-5.781,2.008
		c-1.617,1.422-2.578,3.391-2.703,5.516l-2.641,43.922C234.75,230.92,232.984,232.56,230.883,232.56z"/>
	<path style="fill:#3A3847;" d="M254.796,233.998c-0.078,0-0.164,0-0.25-0.008c-2.203-0.133-3.883-2.039-3.742-4.242l2.727-43.914
		c0.539-8.773,8.055-15.492,16.953-14.945c8.781,0.531,15.484,8.141,14.945,16.953c-0.141,2.203-2.063,3.875-4.234,3.75
		c-2.211-0.133-3.883-2.031-3.75-4.234c0.266-4.414-3.07-8.219-7.445-8.484c-4.313-0.188-8.219,3.07-8.484,7.445l-2.727,43.93
		C258.656,232.373,256.898,233.998,254.796,233.998z"/>
	<path style="fill:#3A3847;" d="M278.796,235.513c-0.078,0-0.156,0-0.242,0c-2.203-0.141-3.883-2.031-3.75-4.234l2.641-43.922
		c0.539-8.813,8.039-15.531,16.953-15.031c4.281,0.258,8.203,2.164,11.047,5.367c2.828,3.195,4.25,7.313,3.984,11.586
		c-0.141,2.203-2.086,3.844-4.234,3.75c-2.211-0.133-3.883-2.031-3.75-4.234c0.133-2.141-0.578-4.203-1.992-5.797
		c-1.422-1.609-3.383-2.563-5.539-2.688c-4.141-0.172-8.211,3.109-8.484,7.531l-2.641,43.914
		C282.663,233.881,280.898,235.513,278.796,235.513z"/>
	<path style="fill:#3A3847;" d="M326.718,238.396c-0.078,0-0.156-0.008-0.242-0.008c-2.203-0.133-3.883-2.031-3.75-4.234
		l2.641-43.914c0.125-2.117-0.586-4.18-2-5.789c-1.422-1.609-3.359-2.57-5.453-2.703c-4.273-0.156-8.211,3.109-8.484,7.531
		l-2.719,43.93c-0.141,2.195-1.867,3.836-4.242,3.742c-2.203-0.141-3.883-2.039-3.742-4.242l2.719-43.914
		c0.539-8.813,8.055-15.586,16.953-15.031c4.242,0.266,8.141,2.18,10.977,5.406c2.82,3.211,4.234,7.313,3.977,11.547l-2.643,43.921
		C330.585,236.763,328.82,238.396,326.718,238.396z"/>
	<path style="fill:#3A3847;" d="M212.883,199.357c-0.078,0-0.156,0-0.234-0.008l-8.008-0.477c-2.203-0.141-3.883-2.031-3.75-4.234
		s1.828-3.906,4.234-3.75l7.992,0.477c2.211,0.133,3.891,2.023,3.758,4.227C216.75,197.717,214.984,199.357,212.883,199.357z"/>
	<path style="fill:#3A3847;" d="M236.797,200.873c-0.078,0-0.156,0-0.234,0l-8.008-0.484c-2.203-0.133-3.883-2.031-3.75-4.234
		c0.125-2.203,1.781-3.898,4.234-3.75l7.992,0.484c2.211,0.125,3.891,2.016,3.758,4.227
		C240.664,199.24,238.898,200.873,236.797,200.873z"/>
	<path style="fill:#3A3847;" d="M260.718,202.318c-0.078,0-0.164-0.008-0.25-0.008l-7.906-0.484
		c-2.211-0.125-3.891-2.016-3.758-4.227c0.125-2.203,1.977-3.93,4.227-3.758l7.938,0.484c2.203,0.141,3.875,2.031,3.742,4.234
		C264.577,200.685,262.82,202.318,260.718,202.318z"/>
	<path style="fill:#3A3847;" d="M284.718,203.763c-0.078,0-0.156-0.008-0.242-0.016l-7.992-0.477
		c-2.211-0.133-3.891-2.023-3.758-4.227s2.031-3.844,4.227-3.758l8.008,0.477c2.203,0.141,3.883,2.031,3.75,4.234
		C288.585,202.123,286.82,203.763,284.718,203.763z"/>
	<path style="fill:#3A3847;" d="M308.64,205.279c-0.078,0-0.164,0-0.25-0.008l-7.906-0.477c-2.211-0.133-3.891-2.031-3.758-4.234
		c0.125-2.203,2.008-3.836,4.227-3.75l7.938,0.477c2.203,0.133,3.875,2.039,3.742,4.242
		C312.499,203.646,310.741,205.279,308.64,205.279z"/>
	<path style="fill:#3A3847;" d="M332.64,206.717c-0.078,0-0.156,0-0.234-0.008l-8.008-0.477c-2.203-0.141-3.883-2.031-3.75-4.234
		s1.844-3.859,4.234-3.75l7.992,0.477c2.211,0.133,3.891,2.023,3.758,4.227C336.507,205.076,334.741,206.717,332.64,206.717z"/>
	<path style="fill:#3A3847;" d="M360.4,80.153c-0.078,0-0.156,0-0.234,0l-43.932-2.641c-2.203-0.141-3.883-2.031-3.75-4.234
		s1.836-3.844,4.234-3.75l43.916,2.641c2.211,0.125,3.891,2.016,3.758,4.227C364.267,78.52,362.501,80.153,360.4,80.153z"/>
	<path style="fill:#3A3847;" d="M316.476,77.434c-0.078,0-0.156,0-0.242,0l-123.75-7.523c-2.211-0.133-3.891-2.023-3.758-4.227
		c0.125-2.211,2.008-3.883,4.227-3.758l123.765,7.523c2.203,0.125,3.883,2.023,3.75,4.227
		C320.343,75.802,318.577,77.434,316.476,77.434z"/>
	<path style="fill:#3A3847;" d="M212.242,143.279c-0.078,0-0.164,0-0.25-0.008c-2.203-0.133-3.883-2.039-3.742-4.242l2.719-43.915
		c0.523-8.82,8.031-15.523,16.953-15.031c4.305,0.258,8.242,2.18,11.07,5.414c2.805,3.203,4.188,7.328,3.883,11.586
		c-0.164,2.211-2.078,3.914-4.281,3.703c-2.203-0.156-3.859-2.07-3.703-4.273c0.156-2.117-0.531-4.156-1.922-5.75
		c-1.406-1.609-3.375-2.563-5.531-2.695c-2.148-0.086-4.203,0.586-5.805,2c-1.602,1.422-2.547,3.383-2.68,5.523l-2.719,43.938
		C216.101,141.654,214.344,143.279,212.242,143.279z"/>
	<path style="fill:#3A3847;" d="M236.242,144.717c-0.078,0-0.156,0-0.242-0.008c-2.203-0.133-3.883-2.023-3.75-4.227l2.641-43.923
		c0.313-4.375,2.281-8.313,5.547-11.141c3.203-2.766,7.32-4.109,11.453-3.813c4.219,0.25,8.141,2.156,10.977,5.344
		c2.844,3.188,4.266,7.281,4.008,11.531c-0.133,2.195-1.813,3.859-4.234,3.75c-2.203-0.141-3.883-2.031-3.75-4.234
		c0.125-2.109-0.578-4.141-1.992-5.734c-1.43-1.594-3.391-2.547-5.539-2.672c-2.016-0.156-4.109,0.508-5.695,1.883
		c-1.641,1.422-2.633,3.414-2.789,5.609l-2.641,43.868C240.109,143.076,238.344,144.717,236.242,144.717z"/>
	<path style="fill:#3A3847;" d="M260.156,146.154c-0.078,0-0.164,0-0.25,0c-2.203-0.141-3.883-2.047-3.742-4.25l2.727-43.907
		c0.531-8.781,8.008-15.508,16.953-14.953c4.281,0.258,8.188,2.172,11.008,5.375c2.797,3.195,4.203,7.313,3.938,11.586
		c-0.141,2.195-2.078,3.867-4.234,3.742c-2.211-0.125-3.883-2.031-3.75-4.234c0.133-2.156-0.57-4.219-1.969-5.813
		s-3.344-2.547-5.477-2.672c-4.273-0.156-8.211,3.078-8.484,7.453l-2.727,43.923C264.015,144.529,262.257,146.154,260.156,146.154z"
		/>
	<path style="fill:#3A3847;" d="M284.156,147.678c-0.078,0-0.156-0.008-0.242-0.008c-2.203-0.133-3.883-2.031-3.75-4.234
		l2.641-43.923c0.258-4.266,2.18-8.188,5.398-11.031c3.211-2.844,7.305-4.25,11.563-4c4.281,0.266,8.195,2.172,11.031,5.375
		c2.836,3.195,4.258,7.313,3.992,11.586c-0.141,2.195-2.102,3.844-4.234,3.742c-2.211-0.125-3.883-2.031-3.75-4.234
		c0.133-2.141-0.578-4.195-1.992-5.797c-1.422-1.602-3.383-2.555-5.531-2.688c-2.078-0.063-4.172,0.586-5.781,2.008
		c-1.617,1.43-2.578,3.398-2.711,5.531l-2.641,43.915C288.023,146.045,286.257,147.678,284.156,147.678z"/>
	<path style="fill:#3A3847;" d="M332.077,150.56c-0.078,0-0.156-0.008-0.242-0.016c-2.203-0.125-3.883-2.023-3.75-4.234
		l2.641-43.907c0.266-4.344-3.148-8.234-7.445-8.492c-4.344-0.133-8.219,3.109-8.492,7.531l-2.719,43.931
		c-0.141,2.195-1.891,3.836-4.242,3.734c-2.203-0.133-3.883-2.031-3.742-4.234l2.719-43.915c0.531-8.82,8-15.602,16.961-15.031
		c8.773,0.531,15.484,8.133,14.945,16.953l-2.641,43.915C335.945,148.92,334.179,150.56,332.077,150.56z"/>
	<path style="fill:#3A3847;" d="M218.25,111.598c-0.109,0-0.219-0.008-0.328-0.008L210,111.027c-2.203-0.133-3.883-2.031-3.75-4.234
		s1.813-3.906,4.234-3.75l8.078,0.563c2.203,0.18,3.844,2.109,3.664,4.313C222.062,110.013,220.312,111.598,218.25,111.598z"/>
	<path style="fill:#3A3847;" d="M242.156,113.036c-0.078,0-0.156-0.008-0.234-0.008l-8.008-0.484
		c-2.203-0.125-3.883-2.023-3.75-4.234c0.125-2.203,1.875-3.891,4.234-3.75l7.992,0.484c2.211,0.125,3.89,2.023,3.758,4.234
		C246.023,111.403,244.258,113.036,242.156,113.036z"/>
	<path style="fill:#3A3847;" d="M266.156,114.481c-0.078,0-0.156-0.008-0.242-0.016l-7.992-0.477
		c-2.211-0.133-3.891-2.023-3.758-4.227s2.07-3.938,4.227-3.758l8.008,0.477c2.203,0.141,3.883,2.031,3.75,4.234
		C270.023,112.841,268.257,114.481,266.156,114.481z"/>
	<path style="fill:#3A3847;" d="M290.077,115.919c-0.078,0-0.156,0-0.242-0.008l-7.992-0.477c-2.211-0.133-3.891-2.031-3.758-4.234
		s2.016-3.844,4.227-3.75l8.008,0.477c2.203,0.133,3.883,2.023,3.75,4.234C293.945,114.278,292.179,115.919,290.077,115.919z"/>
	<path style="fill:#3A3847;" d="M314.077,117.434c-0.078,0-0.156,0-0.242,0l-7.992-0.484c-2.211-0.125-3.891-2.023-3.758-4.234
		c0.125-2.203,1.992-3.828,4.227-3.75l8.008,0.484c2.203,0.125,3.883,2.023,3.75,4.234
		C317.945,115.802,316.179,117.434,314.077,117.434z"/>
	<path style="fill:#3A3847;" d="M337.999,118.872c-0.078,0-0.156,0-0.234,0l-8.008-0.484c-2.203-0.133-3.883-2.031-3.75-4.234
		s1.828-3.859,4.234-3.75l7.992,0.484c2.211,0.125,3.891,2.016,3.758,4.227C341.866,117.239,340.101,118.872,337.999,118.872z"/>
	<path style="fill:#3A3847;" d="M204.719,70.638c-0.078,0-0.156,0-0.242-0.008c-2.203-0.133-3.883-2.023-3.75-4.234l0.484-8
		c0.133-2.203,1.836-3.898,4.234-3.75c2.203,0.133,3.883,2.023,3.75,4.234l-0.484,8C208.586,68.997,206.82,70.638,204.719,70.638z"
		/>
	<path style="fill:#3A3847;" d="M229.601,56.153c-0.078,0-0.164,0-0.25,0c-2.203-0.141-3.875-2.039-3.742-4.242l2.961-47.922
		c0.141-2.203,1.836-3.875,4.242-3.742c2.203,0.133,3.875,2.031,3.742,4.234l-2.961,47.922
		C233.461,54.528,231.703,56.153,229.601,56.153z"/>
	<path style="fill:#3A3847;" d="M220.64,71.598c-0.078,0-0.156-0.008-0.242-0.008c-2.203-0.133-3.883-2.031-3.75-4.234l0.477-7.922
		c0.133-2.203,1.836-3.844,4.234-3.75c2.203,0.133,3.883,2.031,3.75,4.234l-0.477,7.922
		C224.508,69.966,222.742,71.598,220.64,71.598z"/>
	<path style="fill:#3A3847;" d="M236.64,72.638c-0.078,0-0.156,0-0.234-0.008c-2.211-0.133-3.891-2.023-3.758-4.227l0.477-8
		c0.133-2.203,2.07-3.828,4.227-3.758c2.211,0.133,3.891,2.023,3.758,4.227l-0.477,8C240.508,70.997,238.742,72.638,236.64,72.638z"
		/>
	<path style="fill:#3A3847;" d="M252.64,73.598c-0.078,0-0.156-0.008-0.234-0.008c-2.211-0.125-3.891-2.023-3.758-4.234l0.477-8
		c0.125-2.203,1.984-3.914,4.227-3.75c2.211,0.125,3.891,2.023,3.758,4.234l-0.477,8C256.507,71.966,254.741,73.598,252.64,73.598z"
		/>
	<path style="fill:#3A3847;" d="M268.562,74.559c-0.078,0-0.156-0.008-0.234-0.016c-2.211-0.125-3.891-2.016-3.758-4.227l0.477-8
		c0.125-2.211,2.086-3.898,4.227-3.758c2.211,0.133,3.891,2.031,3.758,4.234l-0.477,8C272.429,72.919,270.663,74.559,268.562,74.559
		z"/>
	<path style="fill:#3A3847;" d="M284.562,75.513c-0.078,0-0.156,0-0.234,0c-2.211-0.133-3.891-2.031-3.758-4.234l0.477-8
		c0.125-2.203,2-3.875,4.227-3.75c2.211,0.125,3.891,2.016,3.758,4.227l-0.477,8C288.429,73.88,286.663,75.513,284.562,75.513z"/>
	<path style="fill:#3A3847;" d="M300.476,76.481c-0.078,0-0.164-0.008-0.242-0.016c-2.203-0.125-3.883-2.031-3.75-4.234l0.484-7.922
		c0.133-2.203,2.094-3.813,4.234-3.75c2.203,0.141,3.883,2.031,3.75,4.234l-0.484,7.922
		C304.335,74.841,302.577,76.481,300.476,76.481z"/>
	<path style="fill:#3A3847;" d="M316.476,77.481c-0.039,0-0.078,0-0.125,0c-2.156-0.07-3.875-1.805-3.875-3.969v-0.078l0.492-8.164
		c0.133-2.195,2.008-3.906,4.234-3.742c2.203,0.125,3.883,2.031,3.75,4.234l-0.484,7.922
		C320.335,75.794,318.585,77.481,316.476,77.481z"/>
	<path style="fill:#3A3847;" d="M332.476,78.481c-0.078,0-0.156-0.008-0.242-0.016c-2.203-0.125-3.883-2.023-3.75-4.234l0.484-8
		c0.133-2.203,1.813-3.891,4.234-3.75c2.203,0.141,3.883,2.031,3.75,4.234l-0.484,8C336.343,76.841,334.577,78.481,332.476,78.481z"
		/>
	<path style="fill:#3A3847;" d="M325.437,61.997c-0.078,0-0.164,0-0.25-0.008c-2.203-0.133-3.875-2.039-3.742-4.242l2.961-47.922
		c0.133-2.195,1.797-3.828,4.242-3.742c2.203,0.133,3.875,2.039,3.742,4.242l-2.961,47.922
		C329.296,60.364,327.538,61.997,325.437,61.997z"/>
	<path style="fill:#3A3847;" d="M348.407,79.434c-0.102,0-0.195,0-0.289-0.008c-2.203-0.148-3.869-2.07-3.713-4.273l0.564-8
		c0.156-2.203,2.297-3.883,4.273-3.703c2.203,0.156,3.867,2.063,3.711,4.266l-0.563,8C352.243,77.825,350.486,79.434,348.407,79.434
		z"/>
	<path style="fill:#3A3847;" d="M332.398,14.317c-0.078,0-0.156-0.008-0.242-0.008l-103.828-6.32
		c-2.211-0.133-3.891-2.023-3.758-4.227c0.125-2.203,2.016-3.859,4.227-3.758l103.843,6.32c2.203,0.133,3.883,2.031,3.75,4.234
		C336.265,12.684,334.499,14.317,332.398,14.317z"/>
	<path style="fill:#3A3847;" d="M262.077,50.153c-0.086,0-0.172,0-0.258,0l-16-1.047c-2.195-0.141-3.867-2.031-3.734-4.234
		l0.961-15.922c0.461-6.344,5.75-11.282,12.039-11.282c3.859,0.188,6.797,1.625,8.938,4.047c2.117,2.391,3.188,5.469,3.008,8.657
		l-0.961,16.023c-0.063,1.063-0.547,2.055-1.344,2.758C263.991,49.802,263.046,50.153,262.077,50.153z M250.312,41.388l8.016,0.516
		l0.719-11.984c0.055-1.063-0.305-2.094-1.023-2.915c-0.711-0.805-1.672-1.273-2.719-1.336c-0.008,0-0.008,0-0.016,0
		c-2.328,0-4.102,1.68-4.258,3.813L250.312,41.388z"/>
	<path style="fill:#3A3847;" d="M309.999,53.036c-0.078,0-0.156-0.008-0.242-0.008l-16-0.961c-2.203-0.133-3.883-2.023-3.75-4.227
		l0.961-16c0.344-6.29,5.57-11.219,11.891-11.219c0.094,0,0.773,0.016,0.867,0.031c3.125,0.164,6.055,1.57,8.188,3.953
		c2.141,2.375,3.219,5.454,3.039,8.649l-0.961,16.023C313.866,51.403,312.101,53.036,309.999,53.036z M298.234,44.325l8.016,0.477
		l0.719-12.008c0.055-1.047-0.305-2.063-1.008-2.852c-0.711-0.789-1.68-1.258-2.742-1.305c-0.008-0.008-0.023-0.008-0.031-0.008
		c-2.422,0-4.117,1.617-4.234,3.664L298.234,44.325z"/>
	<path style="fill:#3A3847;" d="M277.999,51.122c-0.078,0-0.164-0.008-0.25-0.016c-2.211-0.141-3.883-2.031-3.742-4.242l1.523-24
		c0.141-2.195,1.875-3.867,4.242-3.742c2.211,0.141,3.883,2.047,3.742,4.25l-1.523,24C281.859,49.489,280.093,51.122,277.999,51.122
		z"/>
	<path style="fill:#3A3847;" d="M396.189,511.999H117.061c-2.211,0-4-1.789-4-4s1.789-4,4-4h279.127c2.211,0,4,1.789,4,4
		S398.4,511.999,396.189,511.999z"/>
</g>
<g>
</g>
<g>
</g>
<g>
</g>
<g>
</g>
<g>
</g>
<g>
</g>
<g>
</g>
<g>
</g>
<g>
</g>
<g>
</g>
<g>
</g>
<g>
</g>
<g>
</g>
<g>
</g>
<g>
</g>
</svg>
