<svg height="512" viewBox="0 0 74 74" width="512" xmlns="http://www.w3.org/2000/svg"><g id="line_color" data-name="line color"><g fill="#323c6b"><path d="m22.935 7.333a.54.54 0 0 1 -.092-.008l-.3-.052a.5.5 0 0 1 .157-.987l.327.056a.5.5 0 0 1 -.091.992z"/><path d="m10.445 12.187a.5.5 0 0 1 -.4-.8 12.992 12.992 0 0 1 10-5.259.493.493 0 0 1 .52.479.5.5 0 0 1 -.479.52 12 12 0 0 0 -9.233 4.853.5.5 0 0 1 -.408.207z"/><path d="m73.2 29.336a.5.5 0 0 1 -.48-.361c-.045-.155-.093-.31-.142-.463a.5.5 0 0 1 .951-.308q.08.245.152.493a.5.5 0 0 1 -.341.62.509.509 0 0 1 -.14.019z"/><path d="m72.1 26.576a.5.5 0 0 1 -.444-.27 15.554 15.554 0 0 0 -6.685-6.634.5.5 0 0 1 .463-.887 16.549 16.549 0 0 1 7.11 7.061.5.5 0 0 1 -.443.73z"/></g><path d="m70.79 33.01c0 7.04-6.08 12.74-13.55 12.74h-39.16a15.312 15.312 0 0 1 -10.52-4.09 13.48 13.48 0 0 1 -4.35-9.87 13.867 13.867 0 0 1 8-12.35c-.02-.27-.05-.55-.05-.84a9.227 9.227 0 0 1 9.44-8.98 9.691 9.691 0 0 1 5.24 1.52 16.983 16.983 0 0 1 14.94-8.14c10.04 0 19.19 7.03 19.19 15.71a13 13 0 0 1 -.12 1.88 11.728 11.728 0 0 1 2.66.7 12.767 12.767 0 0 1 8.28 11.72z" fill="#eeefee"/><path d="m57.24 46.25h-39.16a15.762 15.762 0 0 1 -10.863-4.226 13.926 13.926 0 0 1 -4.507-10.234 14.271 14.271 0 0 1 7.975-12.646c-.014-.177-.025-.359-.025-.544a9.729 9.729 0 0 1 9.94-9.48 10.216 10.216 0 0 1 5.085 1.342 17.387 17.387 0 0 1 15.095-7.962c10.673 0 19.69 7.423 19.69 16.21 0 .538-.021 1.021-.065 1.463a12.171 12.171 0 0 1 2.289.652 13.235 13.235 0 0 1 8.6 12.185c-.004 7.301-6.307 13.24-14.054 13.24zm-36.64-36.13a8.729 8.729 0 0 0 -8.94 8.48c0 .21.017.415.034.614l.015.188a.5.5 0 0 1 -.279.486 13.309 13.309 0 0 0 -7.72 11.902 12.937 12.937 0 0 0 4.19 9.51 14.768 14.768 0 0 0 10.18 3.95h39.16c7.2 0 13.05-5.491 13.05-12.24a12.24 12.24 0 0 0 -7.966-11.255 11.252 11.252 0 0 0 -2.545-.669.5.5 0 0 1 -.424-.568 12.468 12.468 0 0 0 .114-1.807c0-8.1-8.733-15.21-18.689-15.21a16.471 16.471 0 0 0 -14.519 7.909.5.5 0 0 1 -.691.153 9.2 9.2 0 0 0 -4.97-1.443z" fill="#323c6b"/><path d="m9.21 21.44c-.019-.251-.043-.513-.047-.781a14.534 14.534 0 0 0 -2.872 2.664 14.9 14.9 0 0 1 2.919-1.883z" fill="#bbbbcd"/><path d="m62.51 21.29a11.728 11.728 0 0 0 -2.66-.7 13 13 0 0 0 .12-1.88c0-8.68-9.15-15.71-19.19-15.71a16.882 16.882 0 0 0 -13.326 5.965 17.055 17.055 0 0 1 11.326-3.965c10.04 0 19.19 7.03 19.19 15.71a13 13 0 0 1 -.12 1.88 11.728 11.728 0 0 1 2.66.7 12.767 12.767 0 0 1 8.28 11.72 12.179 12.179 0 0 1 -2.763 7.684 12.408 12.408 0 0 0 4.763-9.684 12.767 12.767 0 0 0 -8.28-11.72z" fill="#dbd8dd"/><g fill="#323c6b"><path d="m30 19.1a.5.5 0 0 1 -.5-.5 8.37 8.37 0 0 0 -3.93-7.039.5.5 0 1 1 .54-.842 9.366 9.366 0 0 1 4.39 7.881.5.5 0 0 1 -.5.5z"/><path d="m53.97 21.35a.5.5 0 0 1 -.08-.994l.98-.16a15.936 15.936 0 0 1 5.054-.1.5.5 0 0 1 -.147.989 14.938 14.938 0 0 0 -4.741.1l-.984.161a.508.508 0 0 1 -.082.004z"/><path d="m57.24 46.25h-39.16a15.762 15.762 0 0 1 -10.863-4.226 13.926 13.926 0 0 1 -4.507-10.234 14.271 14.271 0 0 1 7.975-12.646c-.014-.177-.025-.359-.025-.544a9.729 9.729 0 0 1 9.94-9.48 10.216 10.216 0 0 1 5.085 1.342 17.387 17.387 0 0 1 15.095-7.962c10.673 0 19.69 7.423 19.69 16.21 0 .538-.021 1.021-.065 1.463a12.171 12.171 0 0 1 2.289.652 13.235 13.235 0 0 1 8.6 12.185c-.004 7.301-6.307 13.24-14.054 13.24zm-36.64-36.13a8.729 8.729 0 0 0 -8.94 8.48c0 .21.017.415.034.614l.015.188a.5.5 0 0 1 -.279.486 13.309 13.309 0 0 0 -7.72 11.902 12.937 12.937 0 0 0 4.19 9.51 14.768 14.768 0 0 0 10.18 3.95h39.16c7.2 0 13.05-5.491 13.05-12.24a12.24 12.24 0 0 0 -7.966-11.255 11.252 11.252 0 0 0 -2.545-.669.5.5 0 0 1 -.424-.568 12.468 12.468 0 0 0 .114-1.807c0-8.1-8.733-15.21-18.689-15.21a16.471 16.471 0 0 0 -14.519 7.909.5.5 0 0 1 -.691.153 9.2 9.2 0 0 0 -4.97-1.443z"/><path d="m61.088 54.583a.5.5 0 0 1 -.366-.841l2.25-2.417a.5.5 0 1 1 .732.682l-2.25 2.417a.5.5 0 0 1 -.366.159z"/><path d="m49.079 54.583a.5.5 0 0 1 -.366-.841l2.25-2.417a.5.5 0 1 1 .732.682l-2.25 2.417a.5.5 0 0 1 -.366.159z"/><path d="m37.071 54.583a.5.5 0 0 1 -.366-.841l2.25-2.417a.5.5 0 0 1 .732.682l-2.25 2.417a.5.5 0 0 1 -.366.159z"/><path d="m25.062 54.583a.5.5 0 0 1 -.366-.841l2.25-2.417a.5.5 0 0 1 .732.682l-2.25 2.417a.5.5 0 0 1 -.366.159z"/><path d="m13.054 54.583a.5.5 0 0 1 -.366-.841l2.25-2.417a.5.5 0 0 1 .732.682l-2.25 2.417a.5.5 0 0 1 -.366.159z"/><path d="m65.662 62.042a.5.5 0 0 1 -.362-.842l2.25-2.417a.5.5 0 1 1 .731.682l-2.25 2.417a.5.5 0 0 1 -.369.16z"/><path d="m53.654 62.042a.5.5 0 0 1 -.366-.841l2.25-2.417a.5.5 0 1 1 .731.682l-2.25 2.417a.5.5 0 0 1 -.365.159z"/><path d="m41.645 62.042a.5.5 0 0 1 -.366-.841l2.25-2.417a.5.5 0 1 1 .731.682l-2.25 2.417a.5.5 0 0 1 -.365.159z"/><path d="m29.637 62.042a.5.5 0 0 1 -.366-.841l2.25-2.417a.5.5 0 0 1 .731.682l-2.252 2.416a.5.5 0 0 1 -.363.16z"/><path d="m17.628 62.042a.5.5 0 0 1 -.366-.841l2.25-2.417a.5.5 0 1 1 .731.682l-2.25 2.417a.5.5 0 0 1 -.365.159z"/><path d="m58.122 69.5a.5.5 0 0 1 -.366-.841l2.25-2.417a.5.5 0 0 1 .731.682l-2.25 2.417a.5.5 0 0 1 -.365.159z"/><path d="m46.113 69.5a.5.5 0 0 1 -.366-.841l2.253-2.416a.5.5 0 0 1 .731.682l-2.25 2.417a.5.5 0 0 1 -.368.158z"/><path d="m34.1 69.5a.5.5 0 0 1 -.366-.841l2.25-2.417a.5.5 0 0 1 .731.682l-2.25 2.417a.5.5 0 0 1 -.365.159z"/><path d="m22.1 69.5a.5.5 0 0 1 -.366-.841l2.25-2.417a.5.5 0 1 1 .731.682l-2.25 2.417a.5.5 0 0 1 -.365.159z"/><path d="m10.088 69.5a.5.5 0 0 1 -.366-.841l2.25-2.417a.5.5 0 1 1 .731.682l-2.25 2.417a.5.5 0 0 1 -.365.159z"/></g><path d="m10.155 23.555c-.018-.014-.038-.028-.058-.041a.9.9 0 0 0 -1.247.257 4.154 4.154 0 0 0 -.457.782.9.9 0 1 0 1.6.82 2.853 2.853 0 0 1 .358-.612.9.9 0 0 0 -.196-1.206z" fill="#dbd8dd"/><path d="m8.507 27.382a.9.9 0 0 0 -1.436.364 13.591 13.591 0 0 0 1.066 11.181.9.9 0 0 0 1.712-.557 11.9 11.9 0 0 1 -1.092-10 .9.9 0 0 0 -.25-.988z" fill="#dbd8dd"/></g></svg>