<svg height="512" viewBox="0 0 74 74" width="512" xmlns="http://www.w3.org/2000/svg"><g id="line_color" data-name="line color"><g fill="#323c6b"><path d="m73.7 39.571a.5.5 0 0 1 -.488-.4 12.528 12.528 0 0 0 -5.592-8.048.5.5 0 1 1 .525-.851 13.53 13.53 0 0 1 6.045 8.691.5.5 0 0 1 -.385.593.516.516 0 0 1 -.105.015z"/><path d="m65.587 30.1a.5.5 0 0 1 -.167-.029l-.175-.061a.5.5 0 1 1 .32-.947l.188.066a.5.5 0 0 1 -.167.971z"/><path d="m9.752 26.94a.5.5 0 0 1 -.225-.946c.122-.062.247-.122.372-.18a.5.5 0 0 1 .418.909c-.115.052-.229.107-.341.164a.491.491 0 0 1 -.224.053z"/><path d="m2.89 36.663a.486.486 0 0 1 -.07 0 .5.5 0 0 1 -.426-.564 13.428 13.428 0 0 1 4.711-8.519.5.5 0 0 1 .639.77 12.432 12.432 0 0 0 -4.36 7.882.5.5 0 0 1 -.494.431z"/></g><path d="m71 41.97a9.84 9.84 0 0 1 -9.56 10.1h-53.33a5.255 5.255 0 0 1 -5.11-5.39 5.357 5.357 0 0 1 3.4-5.07 10.344 10.344 0 0 1 -.64-3.59 9.6 9.6 0 0 1 9.34-9.85h.06a8.907 8.907 0 0 1 5.48 1.93 7.422 7.422 0 0 1 7.41-2.35 12.935 12.935 0 0 1 2.25-6.52 11.736 11.736 0 0 1 9.69-5.22 12.031 12.031 0 0 1 11.2 8.14 7.353 7.353 0 0 1 2.69-.51 8.028 8.028 0 0 1 7.8 8.24 9.856 9.856 0 0 1 9.32 10.09z" fill="#b6d2dd"/><path d="m61.439 52.57h-53.329a5.761 5.761 0 0 1 -5.61-5.89 5.911 5.911 0 0 1 3.275-5.348 10.847 10.847 0 0 1 -.515-3.312 10.116 10.116 0 0 1 9.84-10.35 9.512 9.512 0 0 1 5.482 1.762 7.912 7.912 0 0 1 7.018-2.286 13.41 13.41 0 0 1 2.288-6.2 12.294 12.294 0 0 1 10.1-5.436 12.559 12.559 0 0 1 11.491 8.005 7.826 7.826 0 0 1 2.4-.375 8.512 8.512 0 0 1 8.289 8.26 10.324 10.324 0 0 1 9.332 10.57 10.352 10.352 0 0 1 -10.061 10.6zm-46.282-23.9a9.126 9.126 0 0 0 -8.9 9.35 9.83 9.83 0 0 0 .609 3.417.5.5 0 0 1 -.295.642 4.872 4.872 0 0 0 -3.071 4.601 4.762 4.762 0 0 0 4.61 4.89h53.329a9.353 9.353 0 0 0 9.061-9.6 9.3 9.3 0 0 0 -8.834-9.59.5.5 0 0 1 -.486-.5 7.538 7.538 0 0 0 -7.3-7.74 6.837 6.837 0 0 0 -2.508.475.5.5 0 0 1 -.653-.3 11.586 11.586 0 0 0 -10.729-7.805 11.3 11.3 0 0 0 -9.278 5 12.45 12.45 0 0 0 -2.163 6.271.5.5 0 0 1 -.618.453 6.955 6.955 0 0 0 -6.918 2.2.5.5 0 0 1 -.683.06 8.459 8.459 0 0 0 -5.173-1.824z" fill="#323c6b"/><path d="m4.4 43.61c-.054-.145-.1-.3-.143-.446a5.35 5.35 0 0 0 -.519.754 4.951 4.951 0 0 1 .662-.308z" fill="#acc6cc"/><path d="m13.1 30.17h.06a11.983 11.983 0 0 1 6.309 2.455c.907-1.176 2.422-4.109 4.281-4.292.617-.06 2.072-.935 2.642-.8 1.463-9.435-.027-.168 0 0-.044 0-.087-.008-.132-.008a7.509 7.509 0 0 0 -5.62 2.57 8.907 8.907 0 0 0 -5.48-1.93h-.06a9.152 9.152 0 0 0 -7.346 3.779 8.963 8.963 0 0 1 5.346-1.774z" fill="#acc6cc"/><path d="m61.68 31.88a8.028 8.028 0 0 0 -7.8-8.24 7.353 7.353 0 0 0 -2.69.51 12.031 12.031 0 0 0 -11.2-8.14 11.659 11.659 0 0 0 -9.153 4.525 11.481 11.481 0 0 1 7.153-2.525 12.031 12.031 0 0 1 11.2 8.14 7.353 7.353 0 0 1 2.69-.51 8.028 8.028 0 0 1 7.8 8.24 9.856 9.856 0 0 1 9.32 10.09 10.41 10.41 0 0 1 -2.063 6.255 10.257 10.257 0 0 0 4.063-8.255 9.856 9.856 0 0 0 -9.32-10.09z" fill="#acc6cc"/><path d="m30.3 21.23a12.935 12.935 0 0 0 -2.25 6.52 7.422 7.422 0 0 0 -7.41 2.35 8.907 8.907 0 0 0 -5.48-1.93 8.453 8.453 0 1 1 15.14-6.94z" fill="#fed19a"/><path d="m20.64 30.6a.5.5 0 0 1 -.31-.107 8.459 8.459 0 0 0 -5.173-1.823.5.5 0 0 1 -.41-.218 8.952 8.952 0 1 1 16.036-7.352.5.5 0 0 1 -.072.411 12.442 12.442 0 0 0 -2.162 6.268.5.5 0 0 1 -.618.453 6.955 6.955 0 0 0 -6.918 2.2.5.5 0 0 1 -.373.168zm-5.207-2.925a9.466 9.466 0 0 1 5.149 1.756 7.912 7.912 0 0 1 7.018-2.285 13.42 13.42 0 0 1 2.155-6 7.953 7.953 0 1 0 -14.323 6.535z" fill="#323c6b"/><path d="m21.12 17.93a8.448 8.448 0 0 1 7.942 5.55 12.655 12.655 0 0 1 1.238-2.25 8.449 8.449 0 0 0 -16.545 1.023 8.448 8.448 0 0 1 7.365-4.323z" fill="#f4bb87"/><path d="m27.63 27.672c.14.026.283.044.42.078a13.262 13.262 0 0 1 .232-1.744 12.854 12.854 0 0 0 -.652 1.666z" fill="#f4bb87"/><g fill="#323c6b"><path d="m22.126 10.3a.5.5 0 0 1 -.5-.5v-2.632a.5.5 0 1 1 1 0v2.632a.5.5 0 0 1 -.5.5z"/><path d="m12.52 14.28a.5.5 0 0 1 -.354-.146l-1.566-1.569a.5.5 0 0 1 .707-.707l1.568 1.569a.5.5 0 0 1 -.354.854z"/><path d="m8.54 23.887h-2.632a.5.5 0 0 1 0-1h2.632a.5.5 0 1 1 0 1z"/><path d="m31.733 14.28a.5.5 0 0 1 -.354-.854l1.568-1.569a.5.5 0 0 1 .707.707l-1.568 1.569a.5.5 0 0 1 -.353.147z"/><path d="m20.64 30.6a.5.5 0 0 1 -.31-.107 8.459 8.459 0 0 0 -5.173-1.823.5.5 0 0 1 -.41-.218 8.952 8.952 0 1 1 16.036-7.352.5.5 0 0 1 -.072.411 12.442 12.442 0 0 0 -2.162 6.268.5.5 0 0 1 -.618.453 6.955 6.955 0 0 0 -6.918 2.2.5.5 0 0 1 -.373.168zm-5.207-2.925a9.466 9.466 0 0 1 5.149 1.756 7.912 7.912 0 0 1 7.018-2.285 13.42 13.42 0 0 1 2.155-6 7.953 7.953 0 1 0 -14.323 6.535z"/><path d="m61.439 52.57h-53.329a5.761 5.761 0 0 1 -5.61-5.89 5.911 5.911 0 0 1 3.275-5.348 10.847 10.847 0 0 1 -.515-3.312 10.116 10.116 0 0 1 9.84-10.35 9.512 9.512 0 0 1 5.482 1.762 7.912 7.912 0 0 1 7.018-2.286 13.41 13.41 0 0 1 2.288-6.2 12.294 12.294 0 0 1 10.1-5.436 12.559 12.559 0 0 1 11.491 8.005 7.826 7.826 0 0 1 2.4-.375 8.512 8.512 0 0 1 8.289 8.26 10.324 10.324 0 0 1 9.332 10.57 10.352 10.352 0 0 1 -10.061 10.6zm-46.282-23.9a9.126 9.126 0 0 0 -8.9 9.35 9.83 9.83 0 0 0 .609 3.417.5.5 0 0 1 -.295.642 4.872 4.872 0 0 0 -3.071 4.601 4.762 4.762 0 0 0 4.61 4.89h53.329a9.353 9.353 0 0 0 9.061-9.6 9.3 9.3 0 0 0 -8.834-9.59.5.5 0 0 1 -.486-.5 7.538 7.538 0 0 0 -7.3-7.74 6.837 6.837 0 0 0 -2.508.475.5.5 0 0 1 -.653-.3 11.586 11.586 0 0 0 -10.729-7.805 11.3 11.3 0 0 0 -9.278 5 12.45 12.45 0 0 0 -2.163 6.271.5.5 0 0 1 -.618.453 6.955 6.955 0 0 0 -6.918 2.2.5.5 0 0 1 -.683.06 8.459 8.459 0 0 0 -5.173-1.824z"/><path d="m60.4 59.873a.5.5 0 0 1 -.366-.841l2.25-2.417a.5.5 0 0 1 .732.682l-2.25 2.417a.5.5 0 0 1 -.366.159z"/><path d="m48.387 59.873a.5.5 0 0 1 -.366-.841l2.25-2.417a.5.5 0 0 1 .729.685l-2.25 2.417a.5.5 0 0 1 -.363.156z"/><path d="m36.379 59.873a.5.5 0 0 1 -.366-.841l2.25-2.417a.5.5 0 0 1 .737.685l-2.25 2.417a.5.5 0 0 1 -.371.156z"/><path d="m24.37 59.873a.5.5 0 0 1 -.37-.841l2.25-2.417a.5.5 0 0 1 .732.682l-2.25 2.417a.5.5 0 0 1 -.362.159z"/><path d="m12.361 59.873a.5.5 0 0 1 -.361-.841l2.25-2.417a.5.5 0 0 1 .732.682l-2.25 2.417a.5.5 0 0 1 -.371.159z"/><path d="m52.855 67.332a.5.5 0 0 1 -.366-.841l2.25-2.417a.5.5 0 0 1 .732.682l-2.25 2.417a.5.5 0 0 1 -.366.159z"/><path d="m40.847 67.332a.5.5 0 0 1 -.366-.841l2.25-2.417a.5.5 0 0 1 .732.682l-2.25 2.417a.5.5 0 0 1 -.366.159z"/><path d="m28.838 67.332a.5.5 0 0 1 -.366-.841l2.25-2.417a.5.5 0 0 1 .732.682l-2.254 2.416a.5.5 0 0 1 -.362.16z"/><path d="m16.83 67.332a.5.5 0 0 1 -.366-.841l2.25-2.417a.5.5 0 0 1 .732.682l-2.246 2.416a.5.5 0 0 1 -.37.16z"/><path d="m4.821 67.332a.5.5 0 0 1 -.366-.841l2.25-2.417a.5.5 0 0 1 .732.682l-2.25 2.417a.5.5 0 0 1 -.366.159z"/></g><path d="m37.035 19.547c-.007-.014-.014-.028-.022-.042a.6.6 0 0 0 -.825-.218 2.784 2.784 0 0 0 -.507.333.6.6 0 0 0 .717.97 1.912 1.912 0 0 1 .4-.26.6.6 0 0 0 .237-.783z" fill="#eeefee"/><path d="m34.9 21.352a.6.6 0 0 0 -.97-.21 9.109 9.109 0 0 0 -2.695 7.029.6.6 0 0 0 1.194.176 7.976 7.976 0 0 1 2.326-6.325.6.6 0 0 0 .145-.67z" fill="#eeefee"/></g></svg>