<?xml version="1.0" encoding="iso-8859-1"?>
<!-- Generator: Adobe Illustrator 19.0.0, SVG Export Plug-In . SVG Version: 6.00 Build 0)  -->
<svg version="1.1" id="Capa_1" xmlns="http://www.w3.org/2000/svg" xmlns:xlink="http://www.w3.org/1999/xlink" x="0px" y="0px"
	 viewBox="0 0 511.925 511.925" style="enable-background:new 0 0 511.925 511.925;" xml:space="preserve">
<g>
	<rect x="4.002" y="237.965" style="fill:#656D78;" width="503.93" height="15.997"/>
	<rect x="27.992" y="357.955" style="fill:#656D78;" width="95.99" height="25.652"/>
	<rect x="387.942" y="357.955" style="fill:#656D78;" width="95.99" height="25.652"/>
</g>
<g>
	<rect x="59.992" y="29.995" style="fill:#ED5564;" width="31.995" height="311.95"/>
	<rect x="419.942" y="29.995" style="fill:#ED5564;" width="31.994" height="311.95"/>
</g>
<rect x="4.002" y="377.945" style="fill:#5D9CEC;" width="503.93" height="115.98"/>
<g style="opacity:0.4;">
	<path style="fill:#FFFFFF;" d="M510.753,375.119c-1.563-1.563-4.094-1.563-5.656,0l-5.17,5.172l-5.172-5.172
		c-1.563-1.563-4.094-1.563-5.656,0l-5.17,5.172l-5.172-5.172c-1.563-1.563-4.092-1.563-5.654,0l-5.172,5.172l-5.172-5.172
		c-1.561-1.563-4.092-1.563-5.654,0l-5.172,5.172l-5.17-5.172c-1.563-1.563-4.094-1.563-5.656,0l-5.172,5.172l-5.17-5.172
		c-1.563-1.563-4.094-1.563-5.656,0l-5.17,5.172l-5.172-5.172c-1.563-1.563-4.094-1.563-5.656,0l-5.17,5.172l-5.172-5.172
		c-1.563-1.563-4.092-1.563-5.654,0l-5.172,5.172l-5.172-5.172c-1.561-1.563-4.092-1.563-5.654,0l-5.172,5.172l-5.17-5.172
		c-1.563-1.563-4.094-1.563-5.656,0l-5.172,5.172l-5.17-5.172c-1.563-1.563-4.094-1.563-5.656,0l-5.17,5.172l-5.172-5.172
		c-1.563-1.563-4.094-1.563-5.656,0l-5.17,5.172l-5.172-5.172c-1.563-1.563-4.092-1.563-5.654,0l-5.172,5.172l-5.172-5.172
		c-1.561-1.563-4.092-1.563-5.654,0l-5.172,5.172l-5.17-5.172c-1.563-1.563-4.094-1.563-5.656,0l-5.172,5.172l-5.17-5.172
		c-1.563-1.563-4.094-1.563-5.656,0l-5.17,5.172l-5.18-5.172c-1.563-1.563-4.094-1.563-5.655,0l-5.171,5.172l-5.172-5.172
		c-1.504-1.5-4.158-1.5-5.654,0l-5.164,5.172l-5.171-5.172c-1.562-1.563-4.093-1.563-5.655,0l-5.172,5.172l-5.178-5.172
		c-1.563-1.563-4.094-1.563-5.656,0l-5.171,5.172l-5.171-5.172c-1.563-1.563-4.094-1.563-5.656,0l-5.17,5.172l-5.164-5.172
		c-0.75-0.75-1.766-1.172-2.828-1.172c-1.059,0-2.078,0.422-2.827,1.172l-5.179,5.172l-5.171-5.172
		c-1.563-1.563-4.093-1.563-5.655,0l-5.171,5.172l-5.164-5.172c-0.75-0.75-1.765-1.172-2.828-1.172
		c-1.059,0-2.078,0.422-2.828,1.172l-5.175,5.172l-5.167-5.172c-0.75-0.75-1.766-1.172-2.828-1.172
		c-1.062,0-2.078,0.422-2.827,1.172l-5.171,5.172l-5.171-5.172c-1.562-1.563-4.093-1.563-5.655,0l-5.175,5.172l-5.167-5.172
		c-0.75-0.75-1.765-1.172-2.828-1.172s-2.078,0.422-2.828,1.172l-5.171,5.172l-5.179-5.172c-1.563-1.563-4.093-1.563-5.655,0
		l-5.171,5.172l-5.164-5.172c-0.75-0.75-1.765-1.172-2.827-1.172c-1.062,0-2.078,0.422-2.828,1.172l-5.171,5.172l-5.179-5.172
		c-1.563-1.563-4.093-1.563-5.656,0l-5.171,5.172l-5.164-5.172c-0.75-0.75-1.765-1.172-2.828-1.172
		c-1.062,0-2.078,0.422-2.828,1.172l-5.171,5.172l-5.171-5.172c-1.562-1.563-4.093-1.563-5.655,0l-7.999,7.999
		c-1.562,1.563-1.562,4.093,0,5.655s4.093,1.563,5.656,0l5.171-5.171l5.171,5.171c1.563,1.563,4.093,1.563,5.655,0l5.171-5.171
		l5.164,5.171c0.75,0.75,1.765,1.172,2.828,1.172c1.062,0,2.078-0.422,2.828-1.172l5.171-5.171l5.179,5.171
		c1.562,1.563,4.093,1.563,5.655,0l5.171-5.171l5.163,5.171c0.75,0.75,1.766,1.172,2.828,1.172c1.063,0,2.078-0.422,2.828-1.172
		l5.171-5.171l5.179,5.171c1.562,1.563,4.093,1.563,5.655,0l5.171-5.171l5.163,5.171c0.75,0.75,1.766,1.172,2.828,1.172
		c1.059,0,2.078-0.422,2.828-1.172l5.179-5.171l5.171,5.171c1.562,1.563,4.093,1.563,5.655,0l5.171-5.171l5.164,5.171
		c0.75,0.75,1.765,1.172,2.828,1.172c1.059,0,2.078-0.422,2.828-1.172l5.175-5.171l5.167,5.171c0.75,0.75,1.766,1.172,2.828,1.172
		s2.077-0.422,2.827-1.172l5.171-5.171l5.171,5.171c1.562,1.563,4.093,1.563,5.655,0l5.174-5.171l5.168,5.171
		c0.75,0.75,1.766,1.172,2.828,1.172s2.077-0.422,2.827-1.172l5.171-5.171l5.172,5.171c1.563,1.563,4.092,1.563,5.654,0l5.172-5.171
		l5.179,5.171c1.562,1.563,4.093,1.563,5.655,0l5.172-5.171l5.17,5.171c1.504,1.508,4.16,1.492,5.656,0l5.163-5.171l5.171,5.171
		c1.563,1.563,4.094,1.563,5.656,0l5.17-5.171l5.18,5.171c1.563,1.563,4.094,1.563,5.654,0l5.172-5.171l5.172,5.171
		c1.563,1.563,4.092,1.563,5.654,0l5.172-5.171l5.17,5.171c1.563,1.563,4.094,1.563,5.656,0l5.172-5.171l5.17,5.171
		c1.563,1.563,4.094,1.563,5.656,0l5.17-5.171l5.172,5.171c1.563,1.563,4.094,1.563,5.656,0l5.17-5.171l5.172,5.171
		c1.563,1.563,4.094,1.563,5.654,0l5.172-5.171l5.172,5.171c1.563,1.563,4.092,1.563,5.654,0l5.172-5.171l5.17,5.171
		c1.563,1.563,4.094,1.563,5.656,0l5.172-5.171l5.17,5.171c1.563,1.563,4.094,1.563,5.656,0l5.17-5.171l5.172,5.171
		c1.563,1.563,4.094,1.563,5.656,0l5.17-5.171l5.172,5.171c1.563,1.563,4.094,1.563,5.654,0l5.172-5.171l5.172,5.171
		c1.563,1.563,4.092,1.563,5.654,0l5.172-5.171l5.17,5.171c1.563,1.563,4.094,1.563,5.656,0l5.172-5.171l5.17,5.171
		c1.563,1.563,4.094,1.563,5.656,0l5.17-5.171l5.172,5.171c1.563,1.563,4.094,1.563,5.656,0l5.17-5.171l5.172,5.171
		c0.781,0.781,1.805,1.172,2.828,1.172s2.047-0.391,2.826-1.172l8-7.999C512.316,379.213,512.316,376.682,510.753,375.119z"/>
	<path style="fill:#FFFFFF;" d="M302.782,415.113c-1.561-1.563-4.092-1.563-5.654,0l-5.172,5.172l-5.17-5.172
		c-1.563-1.563-4.094-1.563-5.656,0l-5.172,5.172l-5.17-5.172c-1.563-1.563-4.094-1.563-5.656,0l-5.178,5.172l-5.172-5.172
		c-1.5-1.508-4.156-1.492-5.655,0l-5.163,5.172l-5.172-5.172c-1.563-1.563-4.092-1.563-5.654,0l-5.172,5.172l-5.179-5.172
		c-1.562-1.563-4.093-1.563-5.655,0l-5.172,5.172l-5.17-5.172c-1.563-1.563-4.094-1.563-5.656,0l-5.171,5.172l-5.163-5.172
		c-0.75-0.75-1.766-1.172-2.828-1.172c-1.059,0-2.078,0.422-2.828,1.172l-8.006,7.999c-1.563,1.563-1.563,4.093,0,5.655
		s4.094,1.563,5.655,0l5.175-5.171l5.168,5.171c0.75,0.75,1.765,1.172,2.827,1.172s2.077-0.422,2.827-1.172l5.172-5.171l5.171,5.171
		c1.562,1.563,4.093,1.563,5.655,0l5.172-5.171l5.178,5.171c1.563,1.563,4.094,1.563,5.656,0l5.171-5.171l5.171,5.171
		c1.504,1.5,4.16,1.5,5.656,0l5.162-5.171l5.172,5.171c1.563,1.563,4.094,1.563,5.654,0l5.18-5.171l5.172,5.171
		c1.563,1.563,4.092,1.563,5.654,0l5.172-5.171l5.17,5.171c1.563,1.563,4.094,1.563,5.656,0l5.172-5.171l5.17,5.171
		c0.781,0.781,1.805,1.172,2.828,1.172s2.047-0.391,2.828-1.172c1.563-1.563,1.563-4.093,0-5.655L302.782,415.113z"/>
	<path style="fill:#FFFFFF;" d="M486.749,439.11c-1.563-1.562-4.094-1.562-5.656,0l-5.172,5.172l-5.17-5.172
		c-1.5-1.499-4.156-1.499-5.656,0l-5.162,5.172l-5.172-5.172c-1.563-1.562-4.094-1.562-5.656,0l-5.17,5.172l-5.18-5.172
		c-1.563-1.562-4.092-1.562-5.654,0l-5.172,5.172l-5.172-5.172c-1.561-1.562-4.092-1.562-5.654,0l-5.172,5.172l-5.162-5.172
		c-0.75-0.749-1.766-1.171-2.828-1.171s-2.078,0.422-2.828,1.171l-8.006,8c-1.563,1.562-1.563,4.093,0,5.654
		c1.563,1.563,4.092,1.563,5.654,0l5.18-5.171l5.162,5.171c0.75,0.75,1.766,1.172,2.828,1.172s2.078-0.422,2.828-1.172l5.172-5.171
		l5.17,5.171c1.563,1.563,4.094,1.563,5.656,0l5.17-5.171l5.18,5.171c1.563,1.563,4.094,1.563,5.656,0l5.17-5.171l5.172,5.171
		c1.5,1.5,4.156,1.5,5.654,0l5.164-5.171l5.172,5.171c0.781,0.781,1.805,1.172,2.826,1.172c1.023,0,2.047-0.391,2.828-1.172
		l5.172-5.171l5.178,5.171c1.563,1.563,4.094,1.563,5.656,0c1.563-1.562,1.563-4.093,0-5.654L486.749,439.11z"/>
	<path style="fill:#FFFFFF;" d="M110.799,447.11c-1.562-1.563-4.089-1.563-5.651,0l-5.171,5.17l-5.171-5.17
		c-0.75-0.75-1.765-1.172-2.828-1.172s-2.082,0.422-2.832,1.172l-5.156,5.17l-5.167-5.17c-1.563-1.563-4.093-1.563-5.655,0
		l-5.175,5.17l-5.187-5.17c-1.562-1.563-4.089-1.563-5.651,0l-5.171,5.17l-5.171-5.17c-1.563-1.563-4.093-1.563-5.656,0l-5.167,5.17
		l-5.156-5.17c-0.75-0.75-1.765-1.172-2.828-1.172h-0.004c-1.058,0-2.074,0.422-2.824,1.172l-8.015,7.998
		c-1.566,1.555-1.566,4.094-0.008,5.655c1.563,1.563,4.093,1.563,5.655,0l5.187-5.171l5.156,5.171
		c0.75,0.75,1.769,1.172,2.832,1.172c1.062,0,2.078-0.422,2.828-1.172l5.171-5.171l5.171,5.171c1.562,1.563,4.093,1.563,5.655,0
		l5.175-5.171l5.187,5.171c1.563,1.563,4.089,1.563,5.651,0l5.171-5.171l5.171,5.171c0.75,0.75,1.765,1.172,2.827,1.172
		s2.082-0.422,2.832-1.172l5.155-5.171l5.167,5.171c0.781,0.781,1.805,1.172,2.828,1.172s2.046-0.391,2.828-1.172l5.175-5.171
		l5.187,5.171c1.562,1.563,4.093,1.563,5.655,0c1.559-1.562,1.559-4.101-0.008-5.655L110.799,447.11z"/>
</g>
<g style="opacity:0.4;">
	<rect x="59.992" y="29.995" style="fill:#FFFFFF;" width="7.999" height="311.95"/>
</g>
<g style="opacity:0.2;">
	<rect x="83.992" y="29.995" width="7.999" height="311.95"/>
</g>
<g style="opacity:0.4;">
	<rect x="419.942" y="29.995" style="fill:#FFFFFF;" width="7.998" height="311.95"/>
</g>
<g style="opacity:0.2;">
	<rect x="443.932" y="29.995" width="7.998" height="311.95"/>
</g>
<g style="opacity:0.2;">
	<rect x="27.992" y="357.955" style="fill:#FFFFFF;" width="7.995" height="25.652"/>
</g>
<g style="opacity:0.2;">
	<rect x="115.992" y="357.955" width="7.995" height="25.652"/>
</g>
<g style="opacity:0.2;">
	<rect x="387.942" y="357.955" style="fill:#FFFFFF;" width="7.998" height="25.652"/>
</g>
<g style="opacity:0.2;">
	<rect x="475.942" y="357.955" width="7.992" height="25.652"/>
</g>
<rect x="51.992" y="341.955" style="fill:#CCD1D9;" width="47.993" height="15.998"/>
<g style="opacity:0.7;">
	<rect x="51.992" y="341.955" style="fill:#FFFFFF;" width="7.995" height="15.998"/>
</g>
<g style="opacity:0.2;">
	<rect x="91.982" y="341.955" width="7.995" height="15.998"/>
</g>
<rect x="411.942" y="341.955" style="fill:#CCD1D9;" width="47.994" height="15.998"/>
<g style="opacity:0.7;">
	<rect x="411.942" y="341.955" style="fill:#FFFFFF;" width="8" height="15.998"/>
</g>
<g style="opacity:0.2;">
	<rect x="451.932" y="341.955" width="8" height="15.998"/>
</g>
<g style="opacity:0.2;">
	<rect x="51.992" y="237.965" width="7.995" height="15.997"/>
</g>
<g style="opacity:0.2;">
	<rect x="91.982" y="237.965" width="7.995" height="15.997"/>
</g>
<g style="opacity:0.2;">
	<rect x="411.942" y="237.965" width="8" height="15.997"/>
</g>
<g style="opacity:0.2;">
	<rect x="451.932" y="237.965" width="8" height="15.997"/>
</g>
<g style="opacity:0.2;">
	<rect x="4.002" y="237.965" style="fill:#FFFFFF;" width="47.993" height="7.998"/>
</g>
<g style="opacity:0.2;">
	<rect x="99.992" y="237.965" style="fill:#FFFFFF;" width="311.95" height="7.998"/>
</g>
<g style="opacity:0.2;">
	<rect x="459.932" y="237.965" style="fill:#FFFFFF;" width="47.992" height="7.998"/>
</g>
<g>
	<path style="fill:#3A3847;" d="M499.927,385.945c-1.023,0-2.047-0.391-2.828-1.171l-5.172-5.171l-5.17,5.171
		c-1.563,1.562-4.094,1.562-5.656,0l-5.172-5.171l-5.17,5.171c-1.563,1.562-4.094,1.562-5.656,0l-5.17-5.171l-5.172,5.171
		c-1.563,1.562-4.094,1.562-5.656,0l-5.17-5.171l-5.172,5.171c-1.563,1.562-4.092,1.562-5.654,0l-5.172-5.171l-5.172,5.171
		c-1.561,1.562-4.092,1.562-5.654,0l-5.172-5.171l-5.17,5.171c-1.563,1.562-4.094,1.562-5.656,0l-5.172-5.171l-5.17,5.171
		c-1.563,1.562-4.094,1.562-5.656,0l-5.17-5.171l-5.172,5.171c-1.563,1.562-4.094,1.562-5.656,0l-5.17-5.171l-5.172,5.171
		c-1.563,1.562-4.092,1.562-5.654,0l-5.172-5.171l-5.172,5.171c-1.561,1.562-4.092,1.562-5.654,0l-5.172-5.171l-5.17,5.171
		c-1.563,1.562-4.094,1.562-5.656,0l-5.172-5.171l-5.17,5.171c-1.563,1.562-4.094,1.562-5.656,0l-5.17-5.171l-5.172,5.171
		c-1.563,1.562-4.094,1.562-5.656,0l-5.17-5.171l-5.172,5.171c-1.563,1.562-4.092,1.562-5.654,0l-5.172-5.171l-5.172,5.171
		c-1.561,1.562-4.092,1.562-5.654,0l-5.18-5.171l-5.17,5.171c-1.563,1.562-4.094,1.562-5.656,0l-5.171-5.171l-5.163,5.171
		c-1.496,1.491-4.152,1.507-5.656,0l-5.17-5.171l-5.172,5.171c-1.563,1.562-4.094,1.562-5.655,0l-5.18-5.17l-5.172,5.171
		c-1.563,1.562-4.092,1.562-5.654,0l-5.172-5.171l-5.171,5.171c-0.75,0.749-1.765,1.171-2.827,1.171l0,0
		c-1.063,0-2.078-0.422-2.828-1.171l-5.168-5.171l-5.174,5.171c-1.563,1.562-4.093,1.562-5.655,0l-5.171-5.171l-5.171,5.171
		c-0.75,0.749-1.765,1.171-2.827,1.171l0,0c-1.063,0-2.078-0.422-2.828-1.171l-5.167-5.171l-5.175,5.171
		c-0.75,0.749-1.769,1.171-2.828,1.171l0,0c-1.063,0-2.078-0.422-2.828-1.171l-5.164-5.171l-5.171,5.171
		c-1.563,1.562-4.093,1.562-5.655,0l-5.171-5.171l-5.179,5.171c-0.75,0.749-1.769,1.171-2.828,1.171l0,0
		c-1.063,0-2.078-0.422-2.828-1.171l-5.163-5.171l-5.171,5.171c-1.563,1.562-4.093,1.562-5.655,0l-5.179-5.171l-5.171,5.171
		c-0.75,0.749-1.765,1.171-2.828,1.171l0,0c-1.062,0-2.078-0.422-2.828-1.171l-5.163-5.171l-5.171,5.171
		c-1.562,1.562-4.093,1.562-5.655,0l-5.179-5.171l-5.171,5.171c-0.75,0.749-1.766,1.171-2.828,1.171l0,0
		c-1.063,0-2.078-0.422-2.828-1.171l-5.164-5.171l-5.171,5.171c-1.562,1.562-4.093,1.562-5.655,0l-5.171-5.171l-5.171,5.171
		c-1.563,1.562-4.094,1.562-5.656,0c-1.562-1.563-1.562-4.094,0-5.655l7.999-7.999c1.562-1.563,4.093-1.563,5.655,0l5.171,5.171
		l5.171-5.171c0.75-0.75,1.766-1.172,2.828-1.172l0,0c1.063,0,2.078,0.422,2.828,1.172l5.164,5.171l5.171-5.171
		c1.563-1.563,4.093-1.563,5.656,0l5.179,5.171l5.171-5.171c0.75-0.75,1.766-1.172,2.828-1.172l0,0c1.063,0,2.078,0.422,2.827,1.172
		l5.164,5.171l5.171-5.171c1.562-1.563,4.093-1.563,5.655,0l5.179,5.171l5.171-5.171c0.75-0.75,1.765-1.172,2.828-1.172l0,0
		c1.063,0,2.078,0.422,2.828,1.172l5.167,5.171l5.175-5.171c1.563-1.563,4.093-1.563,5.655,0l5.171,5.171l5.171-5.171
		c0.75-0.75,1.765-1.172,2.827-1.172l0,0c1.063,0,2.078,0.422,2.828,1.172l5.167,5.171l5.175-5.171
		c0.75-0.75,1.77-1.172,2.828-1.172l0,0c1.063,0,2.078,0.422,2.828,1.172l5.164,5.171l5.171-5.171c1.563-1.563,4.093-1.563,5.655,0
		l5.171,5.171l5.179-5.171c0.749-0.75,1.769-1.172,2.827-1.172l0,0c1.063,0,2.078,0.422,2.828,1.172l5.164,5.171l5.17-5.171
		c1.563-1.563,4.094-1.563,5.656,0l5.171,5.171l5.171-5.171c1.563-1.563,4.094-1.563,5.656,0l5.178,5.171l5.172-5.171
		c1.563-1.563,4.094-1.563,5.655,0l5.171,5.171l5.164-5.171c1.5-1.5,4.154-1.5,5.654,0l5.172,5.171l5.171-5.171
		c1.562-1.563,4.093-1.563,5.655,0l5.18,5.171l5.17-5.171c1.563-1.563,4.094-1.563,5.656,0l5.17,5.171l5.172-5.171
		c1.563-1.563,4.094-1.563,5.656,0l5.17,5.171l5.172-5.171c1.563-1.563,4.094-1.563,5.654,0l5.172,5.171l5.172-5.171
		c1.563-1.563,4.092-1.563,5.654,0l5.172,5.171l5.17-5.171c1.563-1.563,4.094-1.563,5.656,0l5.172,5.171l5.17-5.171
		c1.563-1.563,4.094-1.563,5.656,0l5.17,5.171l5.172-5.171c1.563-1.563,4.094-1.563,5.656,0l5.17,5.171l5.172-5.171
		c1.563-1.563,4.094-1.563,5.654,0l5.172,5.171l5.172-5.171c1.563-1.563,4.092-1.563,5.654,0l5.172,5.171l5.17-5.171
		c1.563-1.563,4.094-1.563,5.656,0l5.172,5.171l5.17-5.171c1.563-1.563,4.094-1.563,5.656,0l5.17,5.171l5.172-5.171
		c1.563-1.563,4.094-1.563,5.656,0l5.17,5.171l5.172-5.171c1.563-1.563,4.094-1.563,5.654,0l5.172,5.171l5.172-5.171
		c1.563-1.563,4.092-1.563,5.654,0l5.172,5.171l5.17-5.171c1.563-1.563,4.094-1.563,5.656,0l5.172,5.171l5.17-5.171
		c1.563-1.563,4.094-1.563,5.656,0c1.563,1.562,1.563,4.093,0,5.655l-8,7.999C501.974,385.555,500.95,385.945,499.927,385.945z"/>
	<path style="fill:#3A3847;" d="M307.954,425.94c-1.023,0-2.047-0.391-2.828-1.171l-5.17-5.171l-5.172,5.171
		c-1.563,1.562-4.094,1.562-5.656,0l-5.17-5.171l-5.172,5.171c-1.563,1.562-4.092,1.562-5.654,0l-5.172-5.171l-5.18,5.171
		c-1.561,1.562-4.092,1.562-5.654,0l-5.172-5.171l-5.162,5.171c-1.496,1.499-4.152,1.499-5.656,0l-5.171-5.171l-5.171,5.171
		c-1.563,1.562-4.094,1.562-5.656,0l-5.178-5.171l-5.172,5.171c-1.563,1.562-4.094,1.562-5.655,0l-5.171-5.171l-5.172,5.171
		c-0.75,0.75-1.766,1.171-2.827,1.171l0,0c-1.063,0-2.077-0.421-2.827-1.171l-5.168-5.171l-5.175,5.171
		c-1.562,1.562-4.093,1.562-5.655,0c-1.563-1.563-1.563-4.094,0-5.655l8.006-7.999c0.75-0.75,1.77-1.172,2.828-1.172l0,0
		c1.063,0,2.078,0.422,2.828,1.172l5.163,5.171l5.171-5.171c1.563-1.563,4.094-1.563,5.656,0l5.17,5.171l5.172-5.171
		c1.563-1.563,4.094-1.563,5.655,0l5.179,5.171l5.172-5.171c1.563-1.563,4.092-1.563,5.654,0l5.172,5.171l5.163-5.171
		c1.495-1.5,4.151-1.5,5.655,0l5.172,5.171l5.178-5.171c1.563-1.563,4.094-1.563,5.656,0l5.17,5.171l5.172-5.171
		c1.563-1.563,4.094-1.563,5.656,0l5.17,5.171l5.172-5.171c1.563-1.563,4.094-1.563,5.654,0l8,7.999
		c1.563,1.562,1.563,4.093,0,5.655C310.001,425.549,308.978,425.94,307.954,425.94z"/>
	<path style="fill:#3A3847;" d="M475.921,449.937c-1.021,0-2.045-0.391-2.826-1.172l-5.172-5.171l-5.164,5.171
		c-1.498,1.492-4.154,1.508-5.654,0l-5.172-5.171l-5.17,5.171c-1.563,1.563-4.094,1.563-5.656,0l-5.18-5.171l-5.17,5.171
		c-1.563,1.563-4.094,1.563-5.656,0l-5.17-5.171l-5.172,5.171c-0.75,0.75-1.766,1.172-2.828,1.172l0,0
		c-1.063,0-2.078-0.422-2.828-1.172l-5.162-5.171l-5.18,5.171c-1.563,1.563-4.092,1.563-5.654,0c-1.563-1.562-1.563-4.093,0-5.655
		l8.006-7.999c0.75-0.75,1.766-1.172,2.828-1.172l0,0c1.063,0,2.078,0.422,2.828,1.172l5.162,5.171l5.172-5.171
		c1.563-1.562,4.094-1.562,5.654,0l5.172,5.171l5.172-5.171c1.563-1.562,4.092-1.562,5.654,0l5.18,5.171l5.17-5.171
		c1.563-1.562,4.094-1.562,5.656,0l5.172,5.171l5.162-5.171c1.492-1.499,4.148-1.499,5.656,0l5.17,5.171l5.172-5.171
		c1.563-1.562,4.094-1.562,5.656,0l8.006,7.999c1.563,1.563,1.563,4.094,0,5.655c-1.563,1.563-4.094,1.563-5.656,0l-5.178-5.171
		l-5.172,5.171C477.968,449.546,476.944,449.937,475.921,449.937z"/>
	<path style="fill:#3A3847;" d="M99.977,457.936c-1.023,0-2.047-0.391-2.828-1.172l-5.167-5.171l-5.155,5.171
		c-0.75,0.75-1.77,1.172-2.832,1.172l0,0c-1.063,0-2.078-0.422-2.827-1.172l-5.171-5.171l-5.171,5.171
		c-1.562,1.563-4.089,1.563-5.651,0l-5.187-5.171l-5.175,5.171c-1.562,1.563-4.093,1.563-5.655,0l-5.171-5.171l-5.171,5.171
		c-0.75,0.75-1.766,1.172-2.828,1.172l0,0c-1.063,0-2.082-0.422-2.832-1.172L28,451.593l-5.187,5.171
		c-1.562,1.563-4.093,1.563-5.655,0c-1.558-1.563-1.558-4.102,0.008-5.655l8.015-7.999c0.75-0.75,1.766-1.172,2.824-1.172h0.004
		c1.063,0,2.078,0.422,2.828,1.172l5.156,5.171l5.167-5.171c1.563-1.563,4.093-1.563,5.656,0l5.171,5.171l5.171-5.171
		c1.563-1.563,4.089-1.563,5.651,0l5.187,5.171l5.175-5.171c1.562-1.563,4.093-1.563,5.655,0l5.167,5.171l5.156-5.171
		c0.75-0.75,1.769-1.172,2.832-1.172l0,0c1.063,0,2.078,0.422,2.828,1.172l5.171,5.171l5.171-5.171c1.563-1.563,4.089-1.563,5.651,0
		l8.015,7.999c1.566,1.554,1.566,4.093,0.008,5.655c-1.563,1.563-4.093,1.563-5.655,0l-5.187-5.171l-5.175,5.171
		C102.024,457.545,101.001,457.936,99.977,457.936z"/>
	<path style="fill:#3A3847;" d="M51.992,241.967H3.999c-2.21,0-3.999-1.789-3.999-3.999c0-2.211,1.789-4,3.999-4h47.993
		c2.211,0,4,1.789,4,4C55.991,240.178,54.203,241.967,51.992,241.967z"/>
	<path style="fill:#3A3847;" d="M51.992,257.965H3.999c-2.21,0-3.999-1.789-3.999-4c0-2.21,1.789-3.999,3.999-3.999h47.993
		c2.211,0,4,1.789,4,3.999C55.991,256.176,54.203,257.965,51.992,257.965z"/>
	<path style="fill:#3A3847;" d="M411.939,241.967H99.985c-2.211,0-4-1.789-4-3.999c0-2.211,1.789-4,4-4h311.954c2.211,0,4,1.789,4,4
		C415.939,240.178,414.15,241.967,411.939,241.967z"/>
	<path style="fill:#3A3847;" d="M411.939,257.965H99.985c-2.211,0-4-1.789-4-4c0-2.21,1.789-3.999,4-3.999h311.954
		c2.211,0,4,1.789,4,3.999C415.939,256.176,414.15,257.965,411.939,257.965z"/>
	<path style="fill:#3A3847;" d="M507.925,241.967h-47.992c-2.211,0-4-1.789-4-3.999c0-2.211,1.789-4,4-4h47.992c2.211,0,4,1.789,4,4
		C511.925,240.178,510.136,241.967,507.925,241.967z"/>
	<path style="fill:#3A3847;" d="M507.925,257.965h-47.992c-2.211,0-4-1.789-4-4c0-2.21,1.789-3.999,4-3.999h47.992
		c2.211,0,4,1.789,4,3.999C511.925,256.176,510.136,257.965,507.925,257.965z"/>
	<path style="fill:#3A3847;" d="M51.992,353.95c-2.211,0-4-1.788-4-3.999v-7.999c0-2.21,1.789-3.999,4-3.999s4,1.789,4,3.999v7.999
		C55.991,352.162,54.203,353.95,51.992,353.95z"/>
	<path style="fill:#3A3847;" d="M99.985,353.95c-2.211,0-4-1.788-4-3.999v-7.999c0-2.21,1.789-3.999,4-3.999
		c2.21,0,3.999,1.789,3.999,3.999v7.999C103.984,352.162,102.195,353.95,99.985,353.95z"/>
	<path style="fill:#3A3847;" d="M99.985,345.951H51.992c-2.211,0-4-1.788-4-3.999c0-2.21,1.789-3.999,4-3.999h47.993
		c2.21,0,3.999,1.789,3.999,3.999C103.984,344.163,102.195,345.951,99.985,345.951z"/>
	<path style="fill:#3A3847;" d="M59.991,337.953c-2.211,0-4-1.789-4-4V29.998c0-2.211,1.789-3.999,4-3.999
		c2.21,0,3.999,1.788,3.999,3.999v303.955C63.99,336.164,62.201,337.953,59.991,337.953z"/>
	<path style="fill:#3A3847;" d="M91.986,337.953c-2.211,0-4-1.789-4-4V29.998c0-2.211,1.789-3.999,4-3.999s4,1.788,4,3.999v303.955
		C95.985,336.164,94.197,337.953,91.986,337.953z"/>
	<path style="fill:#3A3847;" d="M91.986,33.997H59.991c-2.211,0-4-1.788-4-3.999s1.789-3.999,4-3.999h31.995
		c2.211,0,4,1.788,4,3.999S94.197,33.997,91.986,33.997z"/>
	<path style="fill:#3A3847;" d="M75.988,33.997c-2.21,0-4-1.788-4-3.999v-7.999c0-2.211,1.789-3.999,4-3.999s4,1.788,4,3.999v7.999
		C79.988,32.209,78.199,33.997,75.988,33.997z"/>
	<path style="fill:#3A3847;" d="M435.935,33.997c-2.209,0-3.998-1.788-3.998-3.999v-7.999c0-2.211,1.789-3.999,3.998-3.999
		c2.211,0,4,1.788,4,3.999v7.999C439.935,32.209,438.146,33.997,435.935,33.997z"/>
	<path style="fill:#3A3847;" d="M75.988,313.956c-2.21,0-4-1.788-4-3.999V53.994c0-2.21,1.789-3.999,4-3.999s4,1.789,4,3.999
		v255.963C79.988,312.168,78.199,313.956,75.988,313.956z"/>
	<path style="fill:#3A3847;" d="M451.933,33.997h-31.994c-2.211,0-4-1.788-4-3.999s1.789-3.999,4-3.999h31.994
		c2.211,0,4,1.788,4,3.999S454.144,33.997,451.933,33.997z"/>
	<path style="fill:#3A3847;" d="M255.962,153.98c-117.639,0-151.498-113.733-151.826-114.881c-0.605-2.125,0.625-4.336,2.746-4.945
		c2.128-0.633,4.339,0.617,4.944,2.742c0.316,1.094,32.616,109.086,144.135,109.086c111.672,0,143.822-107.992,144.135-109.086
		c0.609-2.125,2.828-3.359,4.938-2.742c2.125,0.602,3.359,2.82,2.75,4.945C407.456,40.246,373.601,153.98,255.962,153.98z"/>
	<path style="fill:#3A3847;" d="M507.558,108.432c-1.055,0-2.117-0.414-2.898-1.242c-29.838-31.354-40.15-66.607-40.572-68.091
		c-0.609-2.125,0.625-4.336,2.742-4.945c2.117-0.633,4.336,0.617,4.945,2.742c0.102,0.344,10.256,34.909,38.682,64.779
		c1.523,1.602,1.461,4.133-0.141,5.655C509.542,108.065,508.55,108.432,507.558,108.432z"/>
	<path style="fill:#3A3847;" d="M255.962,225.97c-2.211,0-4-1.789-4-4v-55.991c0-2.211,1.789-4,4-4s4,1.789,4,4v55.991
		C259.962,224.181,258.173,225.97,255.962,225.97z"/>
	<path style="fill:#3A3847;" d="M287.958,225.97c-2.211,0-4-1.789-4-4v-59.069c0-2.211,1.789-3.999,4-3.999
		c2.209,0,3.998,1.788,3.998,3.999v59.069C291.956,224.181,290.167,225.97,287.958,225.97z"/>
	<path style="fill:#3A3847;" d="M319.952,225.97c-2.211,0-4-1.789-4-4v-69.442c0-2.211,1.789-4,4-4s4,1.789,4,4v69.442
		C323.952,224.181,322.163,225.97,319.952,225.97z"/>
	<path style="fill:#3A3847;" d="M351.948,225.97c-2.211,0-4-1.789-4-4v-89.893c0-2.211,1.789-4,4-4s3.998,1.789,3.998,4v89.893
		C355.946,224.181,354.159,225.97,351.948,225.97z"/>
	<path style="fill:#3A3847;" d="M383.942,225.97c-2.209,0-3.998-1.789-3.998-4V103.448c0-2.211,1.789-3.999,3.998-3.999
		c2.211,0,4,1.788,4,3.999v118.521C387.942,224.181,386.153,225.97,383.942,225.97z"/>
	<path style="fill:#3A3847;" d="M487.929,225.97c-2.211,0-4-1.789-4-4V103.448c0-2.211,1.789-3.999,4-3.999
		c2.209,0,3.998,1.788,3.998,3.999v118.521C491.927,224.181,490.138,225.97,487.929,225.97z"/>
	<path style="fill:#3A3847;" d="M4.366,108.432c-0.992,0-1.984-0.367-2.757-1.102c-1.601-1.522-1.664-4.054-0.141-5.655
		c28.496-29.94,38.581-64.436,38.678-64.779c0.609-2.125,2.843-3.359,4.944-2.742c2.125,0.602,3.355,2.82,2.75,4.945
		c-0.425,1.483-10.737,36.736-40.576,68.091C6.479,108.018,5.42,108.432,4.366,108.432z"/>
	<path style="fill:#3A3847;" d="M23.996,225.97c-2.21,0-3.999-1.789-3.999-4V103.448c0-2.211,1.789-3.999,3.999-3.999
		c2.211,0,4,1.788,4,3.999v118.521C27.995,224.181,26.207,225.97,23.996,225.97z"/>
	<path style="fill:#3A3847;" d="M223.966,225.97c-2.21,0-3.998-1.789-3.998-4v-59.069c0-2.211,1.788-3.999,3.998-3.999
		c2.211,0,4,1.788,4,3.999v59.069C227.966,224.181,226.177,225.97,223.966,225.97z"/>
	<path style="fill:#3A3847;" d="M191.972,225.97c-2.211,0-4-1.789-4-4v-69.442c0-2.211,1.789-4,4-4s3.999,1.789,3.999,4v69.442
		C195.971,224.181,194.183,225.97,191.972,225.97z"/>
	<path style="fill:#3A3847;" d="M159.976,225.97c-2.211,0-4-1.789-4-4v-89.893c0-2.211,1.789-4,4-4c2.21,0,3.999,1.789,3.999,4
		v89.893C163.975,224.181,162.187,225.97,159.976,225.97z"/>
	<path style="fill:#3A3847;" d="M127.981,225.97c-2.21,0-4-1.789-4-4V103.456c0-2.211,1.789-3.999,4-3.999c2.211,0,4,1.788,4,3.999
		V221.97C131.98,224.181,130.191,225.97,127.981,225.97z"/>
	<path style="fill:#3A3847;" d="M123.981,361.949H27.995c-2.21,0-4-1.789-4-3.999c0-2.211,1.789-4,4-4h95.986c2.211,0,4,1.789,4,4
		C127.981,360.16,126.192,361.949,123.981,361.949z"/>
	<path style="fill:#3A3847;" d="M27.995,369.948c-2.21,0-4-1.789-4-3.999v-7.999c0-2.211,1.789-4,4-4s4,1.789,4,4v7.999
		C31.995,368.159,30.206,369.948,27.995,369.948z"/>
	<path style="fill:#3A3847;" d="M123.981,369.948c-2.21,0-3.999-1.789-3.999-3.999v-7.999c0-2.211,1.789-4,3.999-4
		c2.211,0,4,1.789,4,4v7.999C127.981,368.159,126.192,369.948,123.981,369.948z"/>
	<path style="fill:#3A3847;" d="M411.939,353.95c-2.211,0-3.998-1.788-3.998-3.999v-7.999c0-2.21,1.787-3.999,3.998-3.999
		s4,1.789,4,3.999v7.999C415.939,352.162,414.15,353.95,411.939,353.95z"/>
	<path style="fill:#3A3847;" d="M459.933,353.95c-2.211,0-4-1.788-4-3.999v-7.999c0-2.21,1.789-3.999,4-3.999
		s3.998,1.789,3.998,3.999v7.999C463.931,352.162,462.144,353.95,459.933,353.95z"/>
	<path style="fill:#3A3847;" d="M459.933,345.951h-47.994c-2.211,0-3.998-1.788-3.998-3.999c0-2.21,1.787-3.999,3.998-3.999h47.994
		c2.211,0,3.998,1.789,3.998,3.999C463.931,344.163,462.144,345.951,459.933,345.951z"/>
	<path style="fill:#3A3847;" d="M419.939,337.953c-2.211,0-4-1.789-4-4V29.998c0-2.211,1.789-3.999,4-3.999s3.998,1.788,3.998,3.999
		v303.955C423.937,336.164,422.15,337.953,419.939,337.953z"/>
	<path style="fill:#3A3847;" d="M451.933,337.953c-2.211,0-3.998-1.789-3.998-4V29.998c0-2.211,1.787-3.999,3.998-3.999
		s4,1.788,4,3.999v303.955C455.933,336.164,454.144,337.953,451.933,337.953z"/>
	<path style="fill:#3A3847;" d="M435.935,313.956c-2.209,0-3.998-1.788-3.998-3.999V53.994c0-2.21,1.789-3.999,3.998-3.999
		c2.211,0,4,1.789,4,3.999v255.963C439.935,312.168,438.146,313.956,435.935,313.956z"/>
	<path style="fill:#3A3847;" d="M483.929,361.949h-95.987c-2.211,0-4-1.789-4-3.999c0-2.211,1.789-4,4-4h95.986c2.211,0,4,1.789,4,4
		C487.929,360.16,486.14,361.949,483.929,361.949z"/>
	<path style="fill:#3A3847;" d="M387.942,369.948c-2.211,0-4-1.789-4-3.999v-7.999c0-2.211,1.789-4,4-4s4,1.789,4,4v7.999
		C391.942,368.159,390.153,369.948,387.942,369.948z"/>
	<path style="fill:#3A3847;" d="M483.929,369.948c-2.211,0-4-1.789-4-3.999v-7.999c0-2.211,1.789-4,4-4s4,1.789,4,4v7.999
		C487.929,368.159,486.14,369.948,483.929,369.948z"/>
</g>
<g>
</g>
<g>
</g>
<g>
</g>
<g>
</g>
<g>
</g>
<g>
</g>
<g>
</g>
<g>
</g>
<g>
</g>
<g>
</g>
<g>
</g>
<g>
</g>
<g>
</g>
<g>
</g>
<g>
</g>
</svg>
