<svg height="512" viewBox="0 0 74 74" width="512" xmlns="http://www.w3.org/2000/svg"><g id="line_color" data-name="line color"><path d="m46.67 42.037a.5.5 0 0 1 -.432-.247l-1.3-2.212a.5.5 0 0 1 .062-.585l3.373-3.8a.5.5 0 1 1 .748.664l-3.131 3.525 1.113 1.9a.5.5 0 0 1 -.431.753z" fill="#323c6b"/><path d="m50.3 34.274a.5.5 0 0 1 -.374-.832l.251-.283a.5.5 0 1 1 .748.664l-.251.283a.5.5 0 0 1 -.374.168z" fill="#323c6b"/><path d="m41.681 38.962 6.279 10.706-11.371-4.974-8.241 9.281 1.215-12.352-11.37-4.968 12.119-2.662 1.214-12.351 6.278 10.706 12.119-2.662z" fill="#eeefee"/><path d="m28.348 54.475a.5.5 0 0 1 -.5-.549l1.179-11.99-11.034-4.823a.5.5 0 0 1 .093-.946l11.764-2.584 1.179-11.989a.5.5 0 0 1 .929-.2l6.095 10.392 11.762-2.586a.5.5 0 0 1 .481.82l-8 9 6.094 10.392a.5.5 0 0 1 -.631.711l-11.038-4.823-8 9.009a.5.5 0 0 1 -.373.166zm-8.548-17.662 9.959 4.353a.5.5 0 0 1 .3.507l-1.059 10.818 7.218-8.129a.5.5 0 0 1 .574-.126l9.961 4.356-5.5-9.377a.5.5 0 0 1 .057-.585l7.217-8.13-10.615 2.336a.5.5 0 0 1 -.539-.235l-5.5-9.378-1.064 10.82a.5.5 0 0 1 -.39.439z" fill="#323c6b"/><path d="m35.417 33.388 2.658-.584-6.549-11.162-.431 4.381z" fill="#dbd8dd"/><path d="m49.923 29.686-3.727.819-7.514 8.457 5.243 8.941 4.035 1.765-6.278-10.706z" fill="#dbd8dd"/><path d="m34.817 43.334-6.095 6.841-.374 3.8 8.629-9.696z" fill="#dbd8dd"/><path d="m58.613 16.811-.338 7.568-4.174-6.322-7.302 2.018 4.722-5.923-4.174-6.319 7.091 2.659 4.722-5.923-.338 7.567 7.091 2.66z" fill="#eeefee"/><path d="m58.274 24.879a.5.5 0 0 1 -.417-.225l-3.973-6.02-6.951 1.922a.5.5 0 0 1 -.524-.793l4.5-5.639-3.979-6.016a.5.5 0 0 1 .593-.744l6.75 2.536 4.5-5.64a.5.5 0 0 1 .891.334l-.322 7.2 6.751 2.532a.5.5 0 0 1 -.042.95l-6.951 1.924-.326 7.2a.5.5 0 0 1 -.5.478zm-4.174-7.322a.5.5 0 0 1 .417.225l3.325 5.038.269-6.03a.5.5 0 0 1 .366-.459l5.823-1.607-5.654-2.124a.5.5 0 0 1 -.324-.491l.27-6.03-3.763 4.721a.5.5 0 0 1 -.567.157l-5.65-2.119 3.326 5.035a.5.5 0 0 1 -.026.587l-3.763 4.72 5.818-1.608a.5.5 0 0 1 .133-.015z" fill="#323c6b"/><path d="m52.101 18.057-4.736 1.309-.566.709 5.611-1.551z" fill="#dbd8dd"/><path d="m58.822 12.136.338-7.567-2.119 2.657-.219 4.91 7.091 2.66-7.301 2.015-.211 4.73 1.874 2.838.337-7.568 7.301-2.015z" fill="#dbd8dd"/><path d="m14.813 61.864-.338 7.567-4.173-6.322-7.302 2.019 4.722-5.924-4.175-6.319 7.092 2.659 4.722-5.923-.338 7.568 7.091 2.659z" fill="#eeefee"/><g fill="#323c6b"><path d="m14.475 69.932a.5.5 0 0 1 -.417-.225l-3.973-6.02-6.952 1.922a.5.5 0 0 1 -.524-.793l4.5-5.639-3.979-6.017a.5.5 0 0 1 .593-.744l6.751 2.532 4.5-5.639a.5.5 0 0 1 .891.334l-.322 7.2 6.747 2.537a.5.5 0 0 1 -.042.95l-6.948 1.919-.322 7.205a.5.5 0 0 1 -.5.478zm-4.175-7.323a.5.5 0 0 1 .417.225l3.325 5.038.269-6.03a.5.5 0 0 1 .366-.459l5.823-1.607-5.65-2.119a.5.5 0 0 1 -.324-.491l.27-6.03-3.763 4.72a.5.5 0 0 1 -.567.157l-5.65-2.119 3.326 5.035a.5.5 0 0 1 -.026.587l-3.763 4.72 5.818-1.608a.5.5 0 0 1 .129-.019z"/><path d="m22.281 13.672a.5.5 0 0 1 -.159-.026l-.356-.12a.5.5 0 1 1 .318-.948l.356.12a.5.5 0 0 1 -.159.974z"/><path d="m20.058 12.951a.5.5 0 0 1 -.159-.026l-2.061-.692a.5.5 0 0 1 -.341-.479l.016-1.666a.476.476 0 0 1 .5-.5.5.5 0 0 1 .5.5l-.013 1.312 1.717.576a.5.5 0 0 1 -.159.974z"/></g><path d="m14.931 18.589-.072 7.575-4.393-6.172-7.226 2.274 4.511-6.086-4.394-6.169 7.18 2.409 4.512-6.085-.073 7.575 7.181 2.409z" fill="#eeefee"/><path d="m14.859 26.664a.5.5 0 0 1 -.407-.21l-4.182-5.876-6.88 2.165a.5.5 0 0 1 -.552-.775l4.295-5.793-4.183-5.875a.5.5 0 0 1 .566-.764l6.835 2.294 4.295-5.794a.5.5 0 0 1 .9.3l-.069 7.211 6.836 2.293a.5.5 0 0 1 -.009.951l-6.879 2.162-.069 7.211a.5.5 0 0 1 -.5.5zm-4.393-7.172a.5.5 0 0 1 .407.21l3.5 4.918.058-6.036a.5.5 0 0 1 .35-.472l5.758-1.812-5.721-1.919a.5.5 0 0 1 -.341-.479l.058-6.036-3.595 4.85a.5.5 0 0 1 -.561.176l-5.721-1.917 3.5 4.915a.5.5 0 0 1 -.005.588l-3.595 4.849 5.758-1.812a.5.5 0 0 1 .15-.023z" fill="#323c6b"/><path d="m13.042 9.042-.065 6.868 5.069 1.701 4.111-1.292-7.18-2.409.072-7.575z" fill="#dbd8dd"/><path d="m12.918 18.702-.014 4.716 1.955 2.746.046-8.086z" fill="#dbd8dd"/><path d="m9.508 14.655 1.586-2.139-7.737-2.505 2.5 3.51z" fill="#dbd8dd"/><path d="m63.715 58.38-1.583 7.148-2.919-6.714-7.288.705 5.482-4.852-2.921-6.711 6.307 3.713 5.482-4.852-1.582 7.147 6.307 3.714z" fill="#eeefee"/><path d="m62.132 66.027a.5.5 0 0 1 -.458-.3l-2.774-6.381-6.925.67a.493.493 0 0 1 -.507-.3.5.5 0 0 1 .127-.574l5.21-4.611-2.776-6.377a.5.5 0 0 1 .712-.63l5.994 3.529 5.21-4.612a.5.5 0 0 1 .82.482l-1.5 6.793 5.994 3.529a.5.5 0 0 1 -.206.928l-6.924.667-1.5 6.792a.5.5 0 0 1 -.44.39zm-2.919-7.714a.5.5 0 0 1 .458.3l2.306 5.3 1.25-5.644a.5.5 0 0 1 .44-.39l5.753-.555-4.981-2.924a.5.5 0 0 1 -.234-.539l1.25-5.646-4.33 3.833a.5.5 0 0 1 -.585.056l-4.98-2.932 2.307 5.3a.5.5 0 0 1 -.127.574l-4.33 3.827 5.754-.557z" fill="#323c6b"/><path d="m64.693 53.964 1.582-7.147-2.487 2.201-1.095 4.946 6.307 3.714-7.282.275-.911 4.527 1.325 3.047 1.583-7.147 7.285-.702z" fill="#dbd8dd"/><path d="m57.213 58.814-5.042.487-.246.218 5.368-.52z" fill="#dbd8dd"/><g fill="#323c6b"><path d="m28.348 54.475a.5.5 0 0 1 -.5-.549l1.179-11.99-11.034-4.823a.5.5 0 0 1 .093-.946l11.764-2.584 1.179-11.989a.5.5 0 0 1 .929-.2l6.095 10.392 11.762-2.586a.5.5 0 0 1 .481.82l-8 9 6.094 10.392a.5.5 0 0 1 -.631.711l-11.038-4.823-8 9.009a.5.5 0 0 1 -.373.166zm-8.548-17.662 9.959 4.353a.5.5 0 0 1 .3.507l-1.059 10.818 7.218-8.129a.5.5 0 0 1 .574-.126l9.961 4.356-5.5-9.377a.5.5 0 0 1 .057-.585l7.217-8.13-10.615 2.336a.5.5 0 0 1 -.539-.235l-5.5-9.378-1.064 10.82a.5.5 0 0 1 -.39.439z"/><path d="m58.274 24.879a.5.5 0 0 1 -.417-.225l-3.973-6.02-6.951 1.922a.5.5 0 0 1 -.524-.793l4.5-5.639-3.979-6.016a.5.5 0 0 1 .593-.744l6.75 2.536 4.5-5.64a.5.5 0 0 1 .891.334l-.322 7.2 6.751 2.532a.5.5 0 0 1 -.042.95l-6.951 1.924-.326 7.2a.5.5 0 0 1 -.5.478zm-4.174-7.322a.5.5 0 0 1 .417.225l3.325 5.038.269-6.03a.5.5 0 0 1 .366-.459l5.823-1.607-5.654-2.124a.5.5 0 0 1 -.324-.491l.27-6.03-3.763 4.721a.5.5 0 0 1 -.567.157l-5.65-2.119 3.326 5.035a.5.5 0 0 1 -.026.587l-3.763 4.72 5.818-1.608a.5.5 0 0 1 .133-.015z"/><path d="m62.132 66.027a.5.5 0 0 1 -.458-.3l-2.774-6.381-6.925.67a.493.493 0 0 1 -.507-.3.5.5 0 0 1 .127-.574l5.21-4.611-2.776-6.377a.5.5 0 0 1 .712-.63l5.994 3.529 5.21-4.612a.5.5 0 0 1 .82.482l-1.5 6.793 5.994 3.529a.5.5 0 0 1 -.206.928l-6.924.667-1.5 6.792a.5.5 0 0 1 -.44.39zm-2.919-7.714a.5.5 0 0 1 .458.3l2.306 5.3 1.25-5.644a.5.5 0 0 1 .44-.39l5.753-.555-4.981-2.924a.5.5 0 0 1 -.234-.539l1.25-5.646-4.33 3.833a.5.5 0 0 1 -.585.056l-4.98-2.932 2.307 5.3a.5.5 0 0 1 -.127.574l-4.33 3.827 5.754-.557z"/><path d="m14.859 26.664a.5.5 0 0 1 -.407-.21l-4.182-5.876-6.88 2.165a.5.5 0 0 1 -.552-.775l4.295-5.793-4.183-5.875a.5.5 0 0 1 .566-.764l6.835 2.294 4.295-5.794a.5.5 0 0 1 .9.3l-.069 7.211 6.836 2.293a.5.5 0 0 1 -.009.951l-6.879 2.162-.069 7.211a.5.5 0 0 1 -.5.5zm-4.393-7.172a.5.5 0 0 1 .407.21l3.5 4.918.058-6.036a.5.5 0 0 1 .35-.472l5.758-1.812-5.721-1.919a.5.5 0 0 1 -.341-.479l.058-6.036-3.595 4.85a.5.5 0 0 1 -.561.176l-5.721-1.917 3.5 4.915a.5.5 0 0 1 -.005.588l-3.595 4.849 5.758-1.812a.5.5 0 0 1 .15-.023z"/></g><path d="m30.743 40.433-4.529-1.8a.447.447 0 0 1 -.294-.555.447.447 0 0 1 .595-.2l4.529 1.8a.447.447 0 0 1 .294.555.447.447 0 0 1 -.595.2z" fill="#dbd8dd"/><path d="m24.652 38.015-.238-.094a.447.447 0 0 1 -.294-.555.447.447 0 0 1 .595-.2l.238.094a.447.447 0 0 1 .294.555.447.447 0 0 1 -.595.2z" fill="#dbd8dd"/></g></svg>