<svg height="512" viewBox="0 0 74 74" width="512" xmlns="http://www.w3.org/2000/svg"><g id="line_color" data-name="line color"><path d="m28.24.882a.5.5 0 0 1 -.09-.992q.412-.076.83-.138a.5.5 0 0 1 .147.989q-.4.059-.8.132a.485.485 0 0 1 -.087.009z" fill="#323c6b"/><path d="m46.151 5.169a.5.5 0 0 1 -.312-.109 21.5 21.5 0 0 0 -13.399-4.56.5.5 0 0 1 -.5-.5.5.5 0 0 1 .5-.5 22.5 22.5 0 0 1 14.024 4.779.5.5 0 0 1 -.312.891z" fill="#323c6b"/><path d="m69.28 30.51c0 7.37-6.35 13.33-14.2 13.33h-15.7l3.58-7.36h-11.29l-2.51 7.36h-11.49c-7.14 0-12.95-5.44-12.95-12.17a12.183 12.183 0 0 1 7.91-11.19 11.5 11.5 0 0 1 2.56-.67 11.939 11.939 0 0 1 -.14-1.89c0-8.24 7.79-14.92 17.39-14.92 6.57 0 12.28 3.13 15.25 7.77a9.145 9.145 0 0 1 4.98-1.45 8.819 8.819 0 0 1 9.01 8.58c0 .28-.02.54-.04.81a13.226 13.226 0 0 1 7.64 11.8z" fill="#b6d2dd"/><path d="m55.08 44.34h-15.7a.5.5 0 0 1 -.45-.719l3.23-6.641h-10.132l-2.395 7.02a.5.5 0 0 1 -.473.338h-11.49c-7.417 0-13.45-5.684-13.45-12.67a12.636 12.636 0 0 1 8.226-11.655 12.259 12.259 0 0 1 2.183-.621 13.1 13.1 0 0 1 -.079-1.474c0-8.5 8.025-15.42 17.89-15.42 6.326 0 12.177 2.9 15.4 7.592a9.661 9.661 0 0 1 4.83-1.27 9.313 9.313 0 0 1 9.51 9.08c0 .176-.007.345-.018.512a13.64 13.64 0 0 1 7.618 12.1c0 7.624-6.594 13.828-14.7 13.828zm-14.9-1h14.9c7.554 0 13.7-5.755 13.7-12.83a12.674 12.674 0 0 0 -7.359-11.35.5.5 0 0 1 -.28-.487c.021-.275.039-.515.039-.773a8.313 8.313 0 0 0 -8.51-8.08 8.631 8.631 0 0 0 -4.708 1.37.5.5 0 0 1 -.693-.15c-2.977-4.651-8.659-7.54-14.829-7.54-9.313 0-16.89 6.469-16.89 14.42a11.432 11.432 0 0 0 .134 1.811.5.5 0 0 1 -.425.575 11.045 11.045 0 0 0 -2.449.642 11.64 11.64 0 0 0 -7.59 10.722c0 6.435 5.585 11.67 12.45 11.67h11.13l2.4-7.022a.5.5 0 0 1 .473-.338h11.287a.5.5 0 0 1 .45.719z" fill="#323c6b"/><path d="m45.685 11.917a8.958 8.958 0 0 1 2.259-1.042c-4.111-5.25-9.444-7.875-15.504-7.875-.5 0-.985.029-1.471.064 5.919.444 11.979 4.578 14.716 8.853z" fill="#acc6cc"/><path d="m61.64 18.71c.02-.27.04-.53.04-.81a8.819 8.819 0 0 0 -9.01-8.58 9.39 9.39 0 0 0 -1.5.129 8.729 8.729 0 0 1 7.51 8.451c0 .28-.02.54-.04.81a13.226 13.226 0 0 1 7.64 11.8c0 7.37-6.35 13.33-14.2 13.33h3c7.85 0 14.2-5.96 14.2-13.33a13.226 13.226 0 0 0 -7.64-11.8z" fill="#acc6cc"/><g fill="#323c6b"><path d="m20.791 20.56a.506.506 0 0 1 -.089-.008l-.94-.17a14.036 14.036 0 0 0 -4.494-.078.5.5 0 0 1 -.154-.988 15.041 15.041 0 0 1 4.821.081l.945.171a.5.5 0 0 1 -.088.992z"/><path d="m43.68 18.4a.5.5 0 0 1 -.5-.5 8.933 8.933 0 0 1 4.243-7.553.5.5 0 1 1 .534.846 7.938 7.938 0 0 0 -3.777 6.707.5.5 0 0 1 -.5.5z"/><path d="m55.08 44.34h-15.7a.5.5 0 0 1 -.45-.719l3.23-6.641h-10.132l-2.395 7.02a.5.5 0 0 1 -.473.338h-11.49c-7.417 0-13.45-5.684-13.45-12.67a12.636 12.636 0 0 1 8.226-11.655 12.259 12.259 0 0 1 2.183-.621 13.1 13.1 0 0 1 -.079-1.474c0-8.5 8.025-15.42 17.89-15.42 6.326 0 12.177 2.9 15.4 7.592a9.661 9.661 0 0 1 4.83-1.27 9.313 9.313 0 0 1 9.51 9.08c0 .176-.007.345-.018.512a13.64 13.64 0 0 1 7.618 12.1c0 7.624-6.594 13.828-14.7 13.828zm-14.9-1h14.9c7.554 0 13.7-5.755 13.7-12.83a12.674 12.674 0 0 0 -7.359-11.35.5.5 0 0 1 -.28-.487c.021-.275.039-.515.039-.773a8.313 8.313 0 0 0 -8.51-8.08 8.631 8.631 0 0 0 -4.708 1.37.5.5 0 0 1 -.693-.15c-2.977-4.651-8.659-7.54-14.829-7.54-9.313 0-16.89 6.469-16.89 14.42a11.432 11.432 0 0 0 .134 1.811.5.5 0 0 1 -.425.575 11.045 11.045 0 0 0 -2.449.642 11.64 11.64 0 0 0 -7.59 10.722c0 6.435 5.585 11.67 12.45 11.67h11.13l2.4-7.022a.5.5 0 0 1 .473-.338h11.287a.5.5 0 0 1 .45.719z"/><path d="m27.225 58.14h-5.937a.5.5 0 0 1 -.473-.661l2.124-6.231a.5.5 0 0 1 .946.322l-1.9 5.57h5.238a.5.5 0 1 1 0 1z"/><path d="m24.6 48.428a.492.492 0 0 1 -.162-.027.5.5 0 0 1 -.312-.635l.185-.542a.5.5 0 0 1 .946.323l-.185.542a.5.5 0 0 1 -.472.339z"/></g><path d="m36.84 49.07h6.12l-15.51 21.93 3.48-16.36h-5.45l6.19-18.16h11.29z" fill="#fed19a"/><path d="m27.45 71.5a.5.5 0 0 1 -.489-.6l3.352-15.76h-4.833a.5.5 0 0 1 -.473-.661l6.19-18.16a.5.5 0 0 1 .473-.339h11.29a.5.5 0 0 1 .45.719l-5.771 11.871h5.321a.5.5 0 0 1 .408.789l-15.51 21.93a.5.5 0 0 1 -.408.211zm-1.271-17.36h4.751a.5.5 0 0 1 .489.6l-2.974 13.988 13.549-19.158h-5.154a.5.5 0 0 1 -.45-.719l5.771-11.871h-10.133z" fill="#323c6b"/><path d="m36.64 49.471 6.32-12.991h-2l-6.32 12.991z" fill="#f4bb87"/><path d="m28.31 66.956-.86 4.044 15.51-21.93h-2z" fill="#f4bb87"/><path d="m27.45 71.5a.5.5 0 0 1 -.489-.6l3.352-15.76h-4.833a.5.5 0 0 1 -.473-.661l6.19-18.16a.5.5 0 0 1 .473-.339h11.29a.5.5 0 0 1 .45.719l-5.771 11.871h5.321a.5.5 0 0 1 .408.789l-15.51 21.93a.5.5 0 0 1 -.408.211zm-1.271-17.36h4.751a.5.5 0 0 1 .489.6l-2.974 13.988 13.549-19.158h-5.154a.5.5 0 0 1 -.45-.719l5.771-11.871h-10.133z" fill="#323c6b"/><g fill="#eeefee"><path d="m30.061 6.274c0-.021-.007-.043-.012-.064a.828.828 0 0 0 -.99-.626 3.823 3.823 0 0 0 -.8.227.828.828 0 1 0 .541 1.566 2.625 2.625 0 0 1 .628-.177.828.828 0 0 0 .633-.926z"/><path d="m26.525 7.758a.829.829 0 0 0 -1.184-.676 15.44 15.44 0 0 0 -7.268 7.7.828.828 0 0 0 1.49.724 13.9 13.9 0 0 1 6.495-6.936.829.829 0 0 0 .467-.812z"/></g></g></svg>